  0
SECTION
  2
HEADER
  9
$ACADVER
  1
AC1014
  9
$HANDSEED
  5
FFFF
  9
$MEASUREMENT
 70
     1
  0
ENDSEC
  0
SECTION
  2
TABLES
  0
TABLE
  2
VPORT
  5
8
330
0
100
AcDbSymbolTable
 70
     4
  0
VPORT
  5
2E
330
8
100
AcDbSymbolTableRecord
100
AcDbViewportTableRecord
  2
*ACTIVE
 70
     0
 10
0.0
 20
0.0
 11
1.0
 21
1.0
 12
210.0
 22
148.5
 13
0.0
 23
0.0
 14
10.0
 24
10.0
 15
10.0
 25
10.0
 16
0.0
 26
0.0
 36
1.0
 17
0.0
 27
0.0
 37
0.0
 40
341.0
 41
1.24
 42
50.0
 43
0.0
 44
0.0
 50
0.0
 51
0.0
 71
     0
 72
   100
 73
     1
 74
     3
 75
     0
 76
     0
 77
     0
 78
     0
  0
ENDTAB
  0
TABLE
  2
LTYPE
  5
5
330
0
100
AcDbSymbolTable
 70
     1
  0
LTYPE
  5
14
330
5
100
AcDbSymbolTableRecord
100
AcDbLinetypeTableRecord
  2
BYBLOCK
 70
     0
  3

 72
    65
 73
     0
 40
0.0
  0
LTYPE
  5
15
330
5
100
AcDbSymbolTableRecord
100
AcDbLinetypeTableRecord
  2
BYLAYER
 70
     0
  3

 72
    65
 73
     0
 40
0.0
  0
LTYPE
  5
16
330
5
100
AcDbSymbolTableRecord
100
AcDbLinetypeTableRecord
  2
CONTINUOUS
 70
     0
  3
Solid line
 72
    65
 73
     0
 40
0.0
  0
ENDTAB
  0
TABLE
  2
LAYER
  5
2
100
AcDbSymbolTable
 70
5
  0
LAYER
  5
50
100
AcDbSymbolTableRecord
100
AcDbLayerTableRecord
  2
0
 70
0
  6
CONTINUOUS
  0
LAYER
  5
51
100
AcDbSymbolTableRecord
100
AcDbLayerTableRecord
  2
mfos_vco_VI_panel_2
 70
0
  6
CONTINUOUS
  0
LAYER
  5
52
100
AcDbSymbolTableRecord
100
AcDbLayerTableRecord
  2
holes
 70
0
  6
CONTINUOUS
  0
LAYER
  5
53
100
AcDbSymbolTableRecord
100
AcDbLayerTableRecord
  2
text
 70
0
  6
CONTINUOUS
  0
LAYER
  5
54
100
AcDbSymbolTableRecord
100
AcDbLayerTableRecord
  2
overlay#1
 70
0
  6
CONTINUOUS
  0
ENDTAB
  0
TABLE
  2
STYLE
  5
3
330
0
100
AcDbSymbolTable
 70
     1
  0
STYLE
  5
11
330
3
100
AcDbSymbolTableRecord
100
AcDbTextStyleTableRecord
  2
STANDARD
 70
     0
 40
0.0
 41
1.0
 50
0.0
 71
     0
 42
2.5
  3
txt
  4

  0
ENDTAB
  0
TABLE
  2
VIEW
  5
6
330
0
100
AcDbSymbolTable
 70
     0
  0
ENDTAB
  0
TABLE
  2
UCS
  5
7
330
0
100
AcDbSymbolTable
 70
     0
  0
ENDTAB
  0
TABLE
  2
APPID
  5
9
330
0
100
AcDbSymbolTable
 70
     2
  0
APPID
  5
12
330
9
100
AcDbSymbolTableRecord
100
AcDbRegAppTableRecord
  2
ACAD
 70
     0
  0
ENDTAB
  0
TABLE
  2
DIMSTYLE
  5
A
330
0
100
AcDbSymbolTable
 70
     1
  0
DIMSTYLE
105
27
330
A
100
AcDbSymbolTableRecord
100
AcDbDimStyleTableRecord
  2
ISO-25
 70
     0
  3

  4

  5

  6

  7

 40
1.0
 41
2.5
 42
0.625
 43
3.75
 44
1.25
 45
0.0
 46
0.0
 47
0.0
 48
0.0
140
2.5
141
2.5
142
0.0
143
0.03937007874016
144
1.0
145
0.0
146
1.0
147
0.625
 71
     0
 72
     0
 73
     0
 74
     0
 75
     0
 76
     0
 77
     1
 78
     8
170
     0
171
     3
172
     1
173
     0
174
     0
175
     0
176
     0
177
     0
178
     0
270
     2
271
     2
272
     2
273
     2
274
     3
340
11
275
     0
280
     0
281
     0
282
     0
283
     0
284
     8
285
     0
286
     0
287
     3
288
     0
  0
ENDTAB
  0
TABLE
  2
BLOCK_RECORD
  5
1
330
0
100
AcDbSymbolTable
 70
     1
  0
BLOCK_RECORD
  5
1F
330
1
100
AcDbSymbolTableRecord
100
AcDbBlockTableRecord
  2
*MODEL_SPACE
  0
BLOCK_RECORD
  5
1B
330
1
100
AcDbSymbolTableRecord
100
AcDbBlockTableRecord
  2
*PAPER_SPACE
  0
ENDTAB
  0
ENDSEC
  0
SECTION
  2
BLOCKS
  0
BLOCK
  5
20
330
1F
100
AcDbEntity
  8
0
100
AcDbBlockBegin
  2
*MODEL_SPACE
 70
     0
 10
0.0
 20
0.0
 30
0.0
  3
*MODEL_SPACE
  1

  0
ENDBLK
  5
21
330
1F
100
AcDbEntity
  8
0
100
AcDbBlockEnd
  0
BLOCK
  5
1C
330
1B
100
AcDbEntity
 67
     1
  8
0
100
AcDbBlockBegin
  2
*PAPER_SPACE
  1

  0
ENDBLK
  5
1D
330
1B
100
AcDbEntity
 67
     1
  8
0
100
AcDbBlockEnd
  0
ENDSEC
  0
SECTION
  2
ENTITIES
  0
LWPOLYLINE
  5
100
100
AcDbEntity
  8
text
 62
1
100
AcDbPolyline
 90
5
 70
1
 10
12.470749
 20
780.450604
 30
0.0
 10
588.496141
 20
780.450604
 30
0.0
 10
588.496141
 20
23.053924
 30
0.0
 10
12.470749
 20
23.053924
 30
0.0
 10
12.470749
 20
780.450604
 30
0.0
  0
SPLINE
  5
101
100
AcDbEntity
  8
text
 62
1
100
AcDbSpline
 70
8
 71
3
 72
8
 73
4
 74
0
 40
0
 40
0
 40
0
 40
0
 40
1
 40
1
 40
1
 40
1
 10
550.236720
 20
761.779852
 30
0.0
 10
550.236720
 20
761.599428
 30
0.0
 10
550.157879
 20
761.426393
 30
0.0
 10
550.017542
 20
761.298815
 30
0.0
  0
SPLINE
  5
102
100
AcDbEntity
  8
text
 62
1
100
AcDbSpline
 70
8
 71
3
 72
8
 73
4
 74
0
 40
0
 40
0
 40
0
 40
0
 40
1
 40
1
 40
1
 40
1
 10
550.017542
 20
761.298815
 30
0.0
 10
549.877204
 20
761.171236
 30
0.0
 10
549.686866
 20
761.099563
 30
0.0
 10
549.488400
 20
761.099564
 30
0.0
  0
SPLINE
  5
103
100
AcDbEntity
  8
text
 62
1
100
AcDbSpline
 70
8
 71
3
 72
8
 73
4
 74
0
 40
0
 40
0
 40
0
 40
0
 40
1
 40
1
 40
1
 40
1
 10
549.488400
 20
761.099564
 30
0.0
 10
549.075118
 20
761.099566
 30
0.0
 10
548.740088
 20
761.404141
 30
0.0
 10
548.740088
 20
761.779852
 30
0.0
  0
SPLINE
  5
104
100
AcDbEntity
  8
text
 62
1
100
AcDbSpline
 70
8
 71
3
 72
8
 73
4
 74
0
 40
0
 40
0
 40
0
 40
0
 40
1
 40
1
 40
1
 40
1
 10
548.740088
 20
761.779852
 30
0.0
 10
548.740088
 20
762.155562
 30
0.0
 10
549.075118
 20
762.460137
 30
0.0
 10
549.488400
 20
762.460140
 30
0.0
  0
SPLINE
  5
105
100
AcDbEntity
  8
text
 62
1
100
AcDbSpline
 70
8
 71
3
 72
8
 73
4
 74
0
 40
0
 40
0
 40
0
 40
0
 40
1
 40
1
 40
1
 40
1
 10
549.488400
 20
762.460140
 30
0.0
 10
549.686866
 20
762.460140
 30
0.0
 10
549.877204
 20
762.388467
 30
0.0
 10
550.017542
 20
762.260889
 30
0.0
  0
SPLINE
  5
106
100
AcDbEntity
  8
text
 62
1
100
AcDbSpline
 70
8
 71
3
 72
8
 73
4
 74
0
 40
0
 40
0
 40
0
 40
0
 40
1
 40
1
 40
1
 40
1
 10
550.017542
 20
762.260889
 30
0.0
 10
550.157879
 20
762.133310
 30
0.0
 10
550.236720
 20
761.960276
 30
0.0
 10
550.236720
 20
761.779852
 30
0.0
  0
LWPOLYLINE
  5
107
100
AcDbEntity
  8
text
 62
1
100
AcDbPolyline
 90
6
 70
0
 10
523.714727
 20
407.618116
 30
0.0
 10
493.673951
 20
407.618116
 30
0.0
 10
493.673951
 20
770.903868
 30
0.0
 10
576.854582
 20
770.903868
 30
0.0
 10
576.854582
 20
407.618116
 30
0.0
 10
493.673951
 20
407.618116
 30
0.0
  0
SPLINE
  5
108
100
AcDbEntity
  8
text
 62
1
100
AcDbSpline
 70
8
 71
3
 72
8
 73
4
 74
0
 40
0
 40
0
 40
0
 40
0
 40
1
 40
1
 40
1
 40
1
 10
516.500657
 20
417.893860
 30
0.0
 10
516.500659
 20
417.767562
 30
0.0
 10
516.436154
 20
417.646437
 30
0.0
 10
516.321333
 20
417.557130
 30
0.0
  0
SPLINE
  5
109
100
AcDbEntity
  8
text
 62
1
100
AcDbSpline
 70
8
 71
3
 72
8
 73
4
 74
0
 40
0
 40
0
 40
0
 40
0
 40
1
 40
1
 40
1
 40
1
 10
516.321333
 20
417.557130
 30
0.0
 10
516.206512
 20
417.467824
 30
0.0
 10
516.050780
 20
417.417652
 30
0.0
 10
515.888398
 20
417.417652
 30
0.0
  0
SPLINE
  5
10a
100
AcDbEntity
  8
text
 62
1
100
AcDbSpline
 70
8
 71
3
 72
8
 73
4
 74
0
 40
0
 40
0
 40
0
 40
0
 40
1
 40
1
 40
1
 40
1
 10
515.888398
 20
417.417652
 30
0.0
 10
515.726015
 20
417.417652
 30
0.0
 10
515.570283
 20
417.467824
 30
0.0
 10
515.455462
 20
417.557130
 30
0.0
  0
SPLINE
  5
10b
100
AcDbEntity
  8
text
 62
1
100
AcDbSpline
 70
8
 71
3
 72
8
 73
4
 74
0
 40
0
 40
0
 40
0
 40
0
 40
1
 40
1
 40
1
 40
1
 10
515.455462
 20
417.557130
 30
0.0
 10
515.340641
 20
417.646437
 30
0.0
 10
515.276136
 20
417.767562
 30
0.0
 10
515.276138
 20
417.893860
 30
0.0
  0
SPLINE
  5
10c
100
AcDbEntity
  8
text
 62
1
100
AcDbSpline
 70
8
 71
3
 72
8
 73
4
 74
0
 40
0
 40
0
 40
0
 40
0
 40
1
 40
1
 40
1
 40
1
 10
515.276138
 20
417.893860
 30
0.0
 10
515.276139
 20
418.156858
 30
0.0
 10
515.550257
 20
418.370060
 30
0.0
 10
515.888398
 20
418.370060
 30
0.0
  0
SPLINE
  5
10d
100
AcDbEntity
  8
text
 62
1
100
AcDbSpline
 70
8
 71
3
 72
8
 73
4
 74
0
 40
0
 40
0
 40
0
 40
0
 40
1
 40
1
 40
1
 40
1
 10
515.888398
 20
418.370060
 30
0.0
 10
516.226538
 20
418.370059
 30
0.0
 10
516.500655
 20
418.156858
 30
0.0
 10
516.500657
 20
417.893860
 30
0.0
  0
LWPOLYLINE
  5
10e
100
AcDbEntity
  8
text
 62
1
100
AcDbPolyline
 90
2
 70
1
 10
550.236720
 20
761.779852
 30
0.0
 10
550.236720
 20
761.779852
 30
0.0
  0
SPLINE
  5
10f
100
AcDbEntity
  8
text
 62
1
100
AcDbSpline
 70
8
 71
3
 72
8
 73
4
 74
0
 40
0
 40
0
 40
0
 40
0
 40
1
 40
1
 40
1
 40
1
 10
544.922416
 20
592.865380
 30
0.0
 10
544.922416
 20
597.885380
 30
0.0
 10
548.270416
 20
601.232380
 30
0.0
 10
553.290416
 20
601.232380
 30
0.0
  0
SPLINE
  5
110
100
AcDbEntity
  8
text
 62
1
100
AcDbSpline
 70
8
 71
3
 72
8
 73
4
 74
0
 40
0
 40
0
 40
0
 40
0
 40
1
 40
1
 40
1
 40
1
 10
553.290416
 20
601.232380
 30
0.0
 10
558.313416
 20
601.232380
 30
0.0
 10
561.657416
 20
597.885380
 30
0.0
 10
561.657416
 20
592.865380
 30
0.0
  0
SPLINE
  5
111
100
AcDbEntity
  8
text
 62
1
100
AcDbSpline
 70
8
 71
3
 72
8
 73
4
 74
0
 40
0
 40
0
 40
0
 40
0
 40
1
 40
1
 40
1
 40
1
 10
561.657416
 20
592.865380
 30
0.0
 10
561.657416
 20
587.846380
 30
0.0
 10
558.313416
 20
584.498380
 30
0.0
 10
553.290416
 20
584.498380
 30
0.0
  0
SPLINE
  5
112
100
AcDbEntity
  8
text
 62
1
100
AcDbSpline
 70
8
 71
3
 72
8
 73
4
 74
0
 40
0
 40
0
 40
0
 40
0
 40
1
 40
1
 40
1
 40
1
 10
553.290416
 20
584.498380
 30
0.0
 10
548.270416
 20
584.498380
 30
0.0
 10
544.922416
 20
587.846380
 30
0.0
 10
544.922416
 20
592.865380
 30
0.0
  0
LWPOLYLINE
  5
113
100
AcDbEntity
  8
text
 62
1
100
AcDbPolyline
 90
2
 70
1
 10
516.500657
 20
417.893860
 30
0.0
 10
516.500657
 20
417.893860
 30
0.0
  0
LWPOLYLINE
  5
114
100
AcDbEntity
  8
text
 62
1
100
AcDbPolyline
 90
2
 70
0
 10
549.946416
 20
592.865380
 30
0.0
 10
556.637416
 20
592.865380
 30
0.0
  0
SPLINE
  5
115
100
AcDbEntity
  8
text
 62
1
100
AcDbSpline
 70
8
 71
3
 72
8
 73
4
 74
0
 40
0
 40
0
 40
0
 40
0
 40
1
 40
1
 40
1
 40
1
 10
513.066416
 20
477.040812
 30
0.0
 10
513.066416
 20
482.060812
 30
0.0
 10
516.414416
 20
485.407812
 30
0.0
 10
521.434416
 20
485.407812
 30
0.0
  0
SPLINE
  5
116
100
AcDbEntity
  8
text
 62
1
100
AcDbSpline
 70
8
 71
3
 72
8
 73
4
 74
0
 40
0
 40
0
 40
0
 40
0
 40
1
 40
1
 40
1
 40
1
 10
521.434416
 20
485.407812
 30
0.0
 10
526.457416
 20
485.407812
 30
0.0
 10
529.801416
 20
482.060812
 30
0.0
 10
529.801416
 20
477.040812
 30
0.0
  0
SPLINE
  5
117
100
AcDbEntity
  8
text
 62
1
100
AcDbSpline
 70
8
 71
3
 72
8
 73
4
 74
0
 40
0
 40
0
 40
0
 40
0
 40
1
 40
1
 40
1
 40
1
 10
529.801416
 20
477.040812
 30
0.0
 10
529.801416
 20
472.021812
 30
0.0
 10
526.457416
 20
468.673812
 30
0.0
 10
521.434416
 20
468.673812
 30
0.0
  0
SPLINE
  5
118
100
AcDbEntity
  8
text
 62
1
100
AcDbSpline
 70
8
 71
3
 72
8
 73
4
 74
0
 40
0
 40
0
 40
0
 40
0
 40
1
 40
1
 40
1
 40
1
 10
521.434416
 20
468.673812
 30
0.0
 10
516.414416
 20
468.673812
 30
0.0
 10
513.066416
 20
472.021812
 30
0.0
 10
513.066416
 20
477.040812
 30
0.0
  0
LWPOLYLINE
  5
119
100
AcDbEntity
  8
text
 62
1
100
AcDbPolyline
 90
2
 70
0
 10
553.290416
 20
589.518380
 30
0.0
 10
553.290416
 20
596.213380
 30
0.0
  0
LWPOLYLINE
  5
11a
100
AcDbEntity
  8
text
 62
1
100
AcDbPolyline
 90
2
 70
0
 10
518.090416
 20
477.040812
 30
0.0
 10
524.781416
 20
477.040812
 30
0.0
  0
SPLINE
  5
11b
100
AcDbEntity
  8
text
 62
1
100
AcDbSpline
 70
8
 71
3
 72
8
 73
4
 74
0
 40
0
 40
0
 40
0
 40
0
 40
1
 40
1
 40
1
 40
1
 10
535.322416
 20
543.212572
 30
0.0
 10
535.322416
 20
548.232572
 30
0.0
 10
538.670416
 20
551.579572
 30
0.0
 10
543.690416
 20
551.579572
 30
0.0
  0
SPLINE
  5
11c
100
AcDbEntity
  8
text
 62
1
100
AcDbSpline
 70
8
 71
3
 72
8
 73
4
 74
0
 40
0
 40
0
 40
0
 40
0
 40
1
 40
1
 40
1
 40
1
 10
543.690416
 20
551.579572
 30
0.0
 10
548.713416
 20
551.579572
 30
0.0
 10
552.057416
 20
548.232572
 30
0.0
 10
552.057416
 20
543.212572
 30
0.0
  0
SPLINE
  5
11d
100
AcDbEntity
  8
text
 62
1
100
AcDbSpline
 70
8
 71
3
 72
8
 73
4
 74
0
 40
0
 40
0
 40
0
 40
0
 40
1
 40
1
 40
1
 40
1
 10
552.057416
 20
543.212572
 30
0.0
 10
552.057416
 20
538.193572
 30
0.0
 10
548.713416
 20
534.845572
 30
0.0
 10
543.690416
 20
534.845572
 30
0.0
  0
SPLINE
  5
11e
100
AcDbEntity
  8
text
 62
1
100
AcDbSpline
 70
8
 71
3
 72
8
 73
4
 74
0
 40
0
 40
0
 40
0
 40
0
 40
1
 40
1
 40
1
 40
1
 10
543.690416
 20
534.845572
 30
0.0
 10
538.670416
 20
534.845572
 30
0.0
 10
535.322416
 20
538.193572
 30
0.0
 10
535.322416
 20
543.212572
 30
0.0
  0
LWPOLYLINE
  5
11f
100
AcDbEntity
  8
text
 62
1
100
AcDbPolyline
 90
2
 70
0
 10
521.434416
 20
473.693812
 30
0.0
 10
521.434416
 20
480.388812
 30
0.0
  0
LWPOLYLINE
  5
120
100
AcDbEntity
  8
text
 62
1
100
AcDbPolyline
 90
2
 70
0
 10
540.346416
 20
543.212572
 30
0.0
 10
547.037416
 20
543.212572
 30
0.0
  0
SPLINE
  5
121
100
AcDbEntity
  8
text
 62
1
100
AcDbSpline
 70
8
 71
3
 72
8
 73
4
 74
0
 40
0
 40
0
 40
0
 40
0
 40
1
 40
1
 40
1
 40
1
 10
513.066416
 20
628.473564
 30
0.0
 10
513.066416
 20
633.493564
 30
0.0
 10
516.414416
 20
636.840564
 30
0.0
 10
521.434416
 20
636.840564
 30
0.0
  0
SPLINE
  5
122
100
AcDbEntity
  8
text
 62
1
100
AcDbSpline
 70
8
 71
3
 72
8
 73
4
 74
0
 40
0
 40
0
 40
0
 40
0
 40
1
 40
1
 40
1
 40
1
 10
521.434416
 20
636.840564
 30
0.0
 10
526.457416
 20
636.840564
 30
0.0
 10
529.801416
 20
633.493564
 30
0.0
 10
529.801416
 20
628.473564
 30
0.0
  0
SPLINE
  5
123
100
AcDbEntity
  8
text
 62
1
100
AcDbSpline
 70
8
 71
3
 72
8
 73
4
 74
0
 40
0
 40
0
 40
0
 40
0
 40
1
 40
1
 40
1
 40
1
 10
529.801416
 20
628.473564
 30
0.0
 10
529.801416
 20
623.454564
 30
0.0
 10
526.457416
 20
620.106564
 30
0.0
 10
521.434416
 20
620.106564
 30
0.0
  0
SPLINE
  5
124
100
AcDbEntity
  8
text
 62
1
100
AcDbSpline
 70
8
 71
3
 72
8
 73
4
 74
0
 40
0
 40
0
 40
0
 40
0
 40
1
 40
1
 40
1
 40
1
 10
521.434416
 20
620.106564
 30
0.0
 10
516.414416
 20
620.106564
 30
0.0
 10
513.066416
 20
623.454564
 30
0.0
 10
513.066416
 20
628.473564
 30
0.0
  0
LWPOLYLINE
  5
125
100
AcDbEntity
  8
text
 62
1
100
AcDbPolyline
 90
2
 70
0
 10
543.690416
 20
539.865572
 30
0.0
 10
543.690416
 20
546.560572
 30
0.0
  0
LWPOLYLINE
  5
126
100
AcDbEntity
  8
text
 62
1
100
AcDbPolyline
 90
2
 70
0
 10
518.090416
 20
628.473564
 30
0.0
 10
524.781416
 20
628.473564
 30
0.0
  0
SPLINE
  5
127
100
AcDbEntity
  8
text
 62
7
100
AcDbSpline
 70
8
 71
3
 72
8
 73
4
 74
0
 40
0
 40
0
 40
0
 40
0
 40
1
 40
1
 40
1
 40
1
 10
564.508768
 20
679.954756
 30
0.0
 10
564.508768
 20
672.379787
 30
0.0
 10
561.499623
 20
665.115068
 30
0.0
 10
556.143311
 20
659.758756
 30
0.0
  0
SPLINE
  5
128
100
AcDbEntity
  8
text
 62
7
100
AcDbSpline
 70
8
 71
3
 72
8
 73
4
 74
0
 40
0
 40
0
 40
0
 40
0
 40
1
 40
1
 40
1
 40
1
 10
556.143311
 20
659.758756
 30
0.0
 10
550.786999
 20
654.402444
 30
0.0
 10
543.522281
 20
651.393300
 30
0.0
 10
535.947312
 20
651.393300
 30
0.0
  0
SPLINE
  5
129
100
AcDbEntity
  8
text
 62
7
100
AcDbSpline
 70
8
 71
3
 72
8
 73
4
 74
0
 40
0
 40
0
 40
0
 40
0
 40
1
 40
1
 40
1
 40
1
 10
535.947312
 20
651.393300
 30
0.0
 10
520.173256
 20
651.393301
 30
0.0
 10
507.385858
 20
664.180700
 30
0.0
 10
507.385858
 20
679.954756
 30
0.0
  0
SPLINE
  5
12a
100
AcDbEntity
  8
text
 62
7
100
AcDbSpline
 70
8
 71
3
 72
8
 73
4
 74
0
 40
0
 40
0
 40
0
 40
0
 40
1
 40
1
 40
1
 40
1
 10
507.385858
 20
679.954756
 30
0.0
 10
507.385858
 20
695.728811
 30
0.0
 10
520.173256
 20
708.516210
 30
0.0
 10
535.947312
 20
708.516212
 30
0.0
  0
SPLINE
  5
12b
100
AcDbEntity
  8
text
 62
7
100
AcDbSpline
 70
8
 71
3
 72
8
 73
4
 74
0
 40
0
 40
0
 40
0
 40
0
 40
1
 40
1
 40
1
 40
1
 10
535.947312
 20
708.516212
 30
0.0
 10
543.522281
 20
708.516212
 30
0.0
 10
550.786999
 20
705.507067
 30
0.0
 10
556.143311
 20
700.150755
 30
0.0
  0
SPLINE
  5
12c
100
AcDbEntity
  8
text
 62
7
100
AcDbSpline
 70
8
 71
3
 72
8
 73
4
 74
0
 40
0
 40
0
 40
0
 40
0
 40
1
 40
1
 40
1
 40
1
 10
556.143311
 20
700.150755
 30
0.0
 10
561.499623
 20
694.794443
 30
0.0
 10
564.508768
 20
687.529725
 30
0.0
 10
564.508768
 20
679.954756
 30
0.0
  0
LWPOLYLINE
  5
12d
100
AcDbEntity
  8
text
 62
1
100
AcDbPolyline
 90
2
 70
0
 10
521.434416
 20
625.126564
 30
0.0
 10
521.434416
 20
631.821564
 30
0.0
  0
LWPOLYLINE
  5
12e
100
AcDbEntity
  8
text
 62
7
100
AcDbPolyline
 90
2
 70
1
 10
564.508768
 20
679.954756
 30
0.0
 10
564.508768
 20
679.954756
 30
0.0
  0
LWPOLYLINE
  5
12f
100
AcDbEntity
  8
text
 62
5
100
AcDbPolyline
 90
5
 70
1
 10
17.459305
 20
399.370324
 30
0.0
 10
593.484697
 20
399.370324
 30
0.0
 10
593.484697
 20
-358.026356
 30
0.0
 10
17.459305
 20
-358.026356
 30
0.0
 10
17.459305
 20
399.370324
 30
0.0
  0
SPLINE
  5
130
100
AcDbEntity
  8
text
 62
1
100
AcDbSpline
 70
8
 71
3
 72
8
 73
4
 74
0
 40
0
 40
0
 40
0
 40
0
 40
1
 40
1
 40
1
 40
1
 10
154.500562
 20
381.056572
 30
0.0
 10
154.500562
 20
380.876148
 30
0.0
 10
154.421721
 20
380.703113
 30
0.0
 10
154.281384
 20
380.575535
 30
0.0
  0
SPLINE
  5
131
100
AcDbEntity
  8
text
 62
1
100
AcDbSpline
 70
8
 71
3
 72
8
 73
4
 74
0
 40
0
 40
0
 40
0
 40
0
 40
1
 40
1
 40
1
 40
1
 10
154.281384
 20
380.575535
 30
0.0
 10
154.141047
 20
380.447956
 30
0.0
 10
153.950709
 20
380.376283
 30
0.0
 10
153.752242
 20
380.376284
 30
0.0
  0
SPLINE
  5
132
100
AcDbEntity
  8
text
 62
1
100
AcDbSpline
 70
8
 71
3
 72
8
 73
4
 74
0
 40
0
 40
0
 40
0
 40
0
 40
1
 40
1
 40
1
 40
1
 10
153.752242
 20
380.376284
 30
0.0
 10
153.553776
 20
380.376283
 30
0.0
 10
153.363438
 20
380.447956
 30
0.0
 10
153.223101
 20
380.575535
 30
0.0
  0
SPLINE
  5
133
100
AcDbEntity
  8
text
 62
1
100
AcDbSpline
 70
8
 71
3
 72
8
 73
4
 74
0
 40
0
 40
0
 40
0
 40
0
 40
1
 40
1
 40
1
 40
1
 10
153.223101
 20
380.575535
 30
0.0
 10
153.082763
 20
380.703113
 30
0.0
 10
153.003923
 20
380.876148
 30
0.0
 10
153.003922
 20
381.056572
 30
0.0
  0
SPLINE
  5
134
100
AcDbEntity
  8
text
 62
1
100
AcDbSpline
 70
8
 71
3
 72
8
 73
4
 74
0
 40
0
 40
0
 40
0
 40
0
 40
1
 40
1
 40
1
 40
1
 10
153.003922
 20
381.056572
 30
0.0
 10
153.003923
 20
381.236996
 30
0.0
 10
153.082763
 20
381.410030
 30
0.0
 10
153.223101
 20
381.537609
 30
0.0
  0
SPLINE
  5
135
100
AcDbEntity
  8
text
 62
1
100
AcDbSpline
 70
8
 71
3
 72
8
 73
4
 74
0
 40
0
 40
0
 40
0
 40
0
 40
1
 40
1
 40
1
 40
1
 10
153.223101
 20
381.537609
 30
0.0
 10
153.363438
 20
381.665187
 30
0.0
 10
153.553776
 20
381.736860
 30
0.0
 10
153.752242
 20
381.736860
 30
0.0
  0
SPLINE
  5
136
100
AcDbEntity
  8
text
 62
1
100
AcDbSpline
 70
8
 71
3
 72
8
 73
4
 74
0
 40
0
 40
0
 40
0
 40
0
 40
1
 40
1
 40
1
 40
1
 10
153.752242
 20
381.736860
 30
0.0
 10
153.950709
 20
381.736860
 30
0.0
 10
154.141047
 20
381.665187
 30
0.0
 10
154.281384
 20
381.537609
 30
0.0
  0
SPLINE
  5
137
100
AcDbEntity
  8
text
 62
1
100
AcDbSpline
 70
8
 71
3
 72
8
 73
4
 74
0
 40
0
 40
0
 40
0
 40
0
 40
1
 40
1
 40
1
 40
1
 10
154.281384
 20
381.537609
 30
0.0
 10
154.421721
 20
381.410030
 30
0.0
 10
154.500562
 20
381.236996
 30
0.0
 10
154.500562
 20
381.056572
 30
0.0
  0
LWPOLYLINE
  5
138
100
AcDbEntity
  8
text
 62
7
100
AcDbPolyline
 90
6
 70
0
 10
79.947043
 20
25.852060
 30
0.0
 10
28.170582
 20
25.852060
 30
0.0
 10
28.170582
 20
390.019343
 30
0.0
 10
171.535679
 20
390.019343
 30
0.0
 10
171.535679
 20
25.852060
 30
0.0
 10
28.170582
 20
25.852060
 30
0.0
  0
SPLINE
  5
139
100
AcDbEntity
  8
text
 62
1
100
AcDbSpline
 70
8
 71
3
 72
8
 73
4
 74
0
 40
0
 40
0
 40
0
 40
0
 40
1
 40
1
 40
1
 40
1
 10
52.577704
 20
34.630732
 30
0.0
 10
52.577702
 20
34.367733
 30
0.0
 10
52.303585
 20
34.154532
 30
0.0
 10
51.965444
 20
34.154532
 30
0.0
  0
SPLINE
  5
13a
100
AcDbEntity
  8
text
 62
1
100
AcDbSpline
 70
8
 71
3
 72
8
 73
4
 74
0
 40
0
 40
0
 40
0
 40
0
 40
1
 40
1
 40
1
 40
1
 10
51.965444
 20
34.154532
 30
0.0
 10
51.627303
 20
34.154532
 30
0.0
 10
51.353186
 20
34.367733
 30
0.0
 10
51.353184
 20
34.630732
 30
0.0
  0
SPLINE
  5
13b
100
AcDbEntity
  8
text
 62
1
100
AcDbSpline
 70
8
 71
3
 72
8
 73
4
 74
0
 40
0
 40
0
 40
0
 40
0
 40
1
 40
1
 40
1
 40
1
 10
51.353184
 20
34.630732
 30
0.0
 10
51.353186
 20
34.893730
 30
0.0
 10
51.627303
 20
35.106932
 30
0.0
 10
51.965444
 20
35.106932
 30
0.0
  0
SPLINE
  5
13c
100
AcDbEntity
  8
text
 62
1
100
AcDbSpline
 70
8
 71
3
 72
8
 73
4
 74
0
 40
0
 40
0
 40
0
 40
0
 40
1
 40
1
 40
1
 40
1
 10
51.965444
 20
35.106932
 30
0.0
 10
52.303585
 20
35.106932
 30
0.0
 10
52.577702
 20
34.893730
 30
0.0
 10
52.577704
 20
34.630732
 30
0.0
  0
LWPOLYLINE
  5
13d
100
AcDbEntity
  8
text
 62
1
100
AcDbPolyline
 90
2
 70
1
 10
154.500562
 20
381.056572
 30
0.0
 10
154.500562
 20
381.056572
 30
0.0
  0
LWPOLYLINE
  5
13e
100
AcDbEntity
  8
text
 62
1
100
AcDbPolyline
 90
2
 70
1
 10
52.577704
 20
34.630732
 30
0.0
 10
52.577704
 20
34.630732
 30
0.0
  0
LWPOLYLINE
  5
13f
100
AcDbEntity
  8
text
 62
7
100
AcDbPolyline
 90
6
 70
1
 10
90.463743
 20
382.790965
 30
0.0
 10
80.900817
 20
382.790965
 30
0.0
 10
80.900817
 20
347.624716
 30
0.0
 10
90.463743
 20
347.624716
 30
0.0
 10
90.463743
 20
382.790965
 30
0.0
 10
90.463743
 20
382.790965
 30
0.0
  0
LWPOLYLINE
  5
140
100
AcDbEntity
  8
text
 62
7
100
AcDbPolyline
 90
6
 70
1
 10
139.301553
 20
382.790965
 30
0.0
 10
129.734645
 20
382.790965
 30
0.0
 10
129.734645
 20
347.624716
 30
0.0
 10
139.301553
 20
347.624716
 30
0.0
 10
139.301553
 20
382.790965
 30
0.0
 10
139.301553
 20
382.790965
 30
0.0
  0
SPLINE
  5
141
100
AcDbEntity
  8
text
 62
7
100
AcDbSpline
 70
8
 71
3
 72
8
 73
4
 74
0
 40
0
 40
0
 40
0
 40
0
 40
1
 40
1
 40
1
 40
1
 10
122.640084
 20
382.798927
 30
0.0
 10
124.483396
 20
382.798927
 30
0.0
 10
125.984322
 20
381.298002
 30
0.0
 10
125.984322
 20
379.446727
 30
0.0
  0
LWPOLYLINE
  5
142
100
AcDbEntity
  8
text
 62
7
100
AcDbPolyline
 90
6
 70
1
 10
103.780974
 20
356.064934
 30
0.0
 10
116.413433
 20
356.064934
 30
0.0
 10
116.413433
 20
374.342784
 30
0.0
 10
94.218048
 20
374.342784
 30
0.0
 10
94.218048
 20
382.790965
 30
0.0
 10
122.640084
 20
382.798927
 30
0.0
  0
SPLINE
  5
143
100
AcDbEntity
  8
text
 62
7
100
AcDbSpline
 70
8
 71
3
 72
8
 73
4
 74
0
 40
0
 40
0
 40
0
 40
0
 40
1
 40
1
 40
1
 40
1
 10
125.976359
 20
350.964972
 30
0.0
 10
125.976359
 20
349.113698
 30
0.0
 10
124.483396
 20
347.620735
 30
0.0
 10
122.624159
 20
347.620735
 30
0.0
  0
LWPOLYLINE
  5
144
100
AcDbEntity
  8
text
 62
7
100
AcDbPolyline
 90
2
 70
1
 10
125.984322
 20
379.446727
 30
0.0
 10
125.976359
 20
350.964972
 30
0.0
  0
LWPOLYLINE
  5
145
100
AcDbEntity
  8
text
 62
7
100
AcDbPolyline
 90
6
 70
1
 10
122.624159
 20
347.620735
 30
0.0
 10
94.218048
 20
347.620735
 30
0.0
 10
94.218048
 20
369.513546
 30
0.0
 10
103.780974
 20
369.513546
 30
0.0
 10
103.780974
 20
356.064934
 30
0.0
 10
103.780974
 20
356.064934
 30
0.0
  0
SPLINE
  5
146
100
AcDbEntity
  8
text
 62
7
100
AcDbSpline
 70
8
 71
3
 72
8
 73
4
 74
0
 40
0
 40
0
 40
0
 40
0
 40
1
 40
1
 40
1
 40
1
 10
77.154475
 20
379.446727
 30
0.0
 10
77.154475
 20
381.298002
 30
0.0
 10
75.653549
 20
382.798927
 30
0.0
 10
73.798294
 20
382.798927
 30
0.0
  0
LWPOLYLINE
  5
147
100
AcDbEntity
  8
text
 62
7
100
AcDbPolyline
 90
14
 70
0
 10
73.798294
 20
382.798927
 30
0.0
 10
67.575623
 20
382.790965
 30
0.0
 10
38.807219
 20
382.790965
 30
0.0
 10
38.807219
 20
347.620735
 30
0.0
 10
48.366165
 20
347.620735
 30
0.0
 10
48.366165
 20
374.342784
 30
0.0
 10
53.191421
 20
374.342784
 30
0.0
 10
53.191421
 20
347.620735
 30
0.0
 10
62.758329
 20
347.620735
 30
0.0
 10
62.758329
 20
374.342784
 30
0.0
 10
67.575623
 20
374.342784
 30
0.0
 10
67.575623
 20
347.620735
 30
0.0
 10
77.146512
 20
347.620735
 30
0.0
 10
77.154475
 20
379.446727
 30
0.0
  0
LWPOLYLINE
  5
148
100
AcDbEntity
  8
text
 62
1
100
AcDbPolyline
 90
2
 70
0
 10
81.984562
 20
226.839316
 30
0.0
 10
69.357250
 20
204.110116
 30
0.0
  0
LWPOLYLINE
  5
149
100
AcDbEntity
  8
text
 62
1
100
AcDbPolyline
 90
2
 70
0
 10
81.984562
 20
226.839316
 30
0.0
 10
58.750306
 20
215.222196
 30
0.0
  0
LWPOLYLINE
  5
14a
100
AcDbEntity
  8
text
 62
1
100
AcDbPolyline
 90
2
 70
0
 10
81.984562
 20
226.839316
 30
0.0
 10
56.224850
 20
229.869876
 30
0.0
  0
LWPOLYLINE
  5
14b
100
AcDbEntity
  8
text
 62
1
100
AcDbPolyline
 90
2
 70
0
 10
81.984562
 20
226.839316
 30
0.0
 10
62.285954
 20
243.507396
 30
0.0
  0
LWPOLYLINE
  5
14c
100
AcDbEntity
  8
text
 62
1
100
AcDbPolyline
 90
2
 70
0
 10
81.984562
 20
226.839316
 30
0.0
 10
74.913266
 20
251.588836
 30
0.0
  0
LWPOLYLINE
  5
14d
100
AcDbEntity
  8
text
 62
1
100
AcDbPolyline
 90
2
 70
0
 10
81.984562
 20
226.839316
 30
0.0
 10
89.055850
 20
251.588836
 30
0.0
  0
LWPOLYLINE
  5
14e
100
AcDbEntity
  8
text
 62
1
100
AcDbPolyline
 90
2
 70
0
 10
81.984562
 20
226.839316
 30
0.0
 10
101.683162
 20
243.507396
 30
0.0
  0
LWPOLYLINE
  5
14f
100
AcDbEntity
  8
text
 62
1
100
AcDbPolyline
 90
2
 70
0
 10
81.984562
 20
226.839316
 30
0.0
 10
107.744274
 20
229.869876
 30
0.0
  0
LWPOLYLINE
  5
150
100
AcDbEntity
  8
text
 62
1
100
AcDbPolyline
 90
2
 70
0
 10
81.984562
 20
226.839316
 30
0.0
 10
105.218810
 20
215.222196
 30
0.0
  0
LWPOLYLINE
  5
151
100
AcDbEntity
  8
text
 62
1
100
AcDbPolyline
 90
2
 70
0
 10
81.984562
 20
226.839316
 30
0.0
 10
95.116962
 20
204.110116
 30
0.0
  0
LWPOLYLINE
  5
152
100
AcDbEntity
  8
text
 62
1
100
AcDbPolyline
 90
2
 70
0
 10
81.984562
 20
226.839316
 30
0.0
 10
70.872530
 20
207.140676
 30
0.0
  0
LWPOLYLINE
  5
153
100
AcDbEntity
  8
text
 62
1
100
AcDbPolyline
 90
2
 70
0
 10
81.984562
 20
226.839316
 30
0.0
 10
67.841970
 20
208.655956
 30
0.0
  0
LWPOLYLINE
  5
154
100
AcDbEntity
  8
text
 62
1
100
AcDbPolyline
 90
2
 70
0
 10
81.984562
 20
226.839316
 30
0.0
 10
65.316506
 20
211.181476
 30
0.0
  0
LWPOLYLINE
  5
155
100
AcDbEntity
  8
text
 62
1
100
AcDbPolyline
 90
2
 70
0
 10
81.984562
 20
226.839316
 30
0.0
 10
63.296138
 20
213.706916
 30
0.0
  0
LWPOLYLINE
  5
156
100
AcDbEntity
  8
text
 62
1
100
AcDbPolyline
 90
2
 70
0
 10
81.984562
 20
226.839316
 30
0.0
 10
61.275770
 20
216.737476
 30
0.0
  0
LWPOLYLINE
  5
157
100
AcDbEntity
  8
text
 62
1
100
AcDbPolyline
 90
2
 70
0
 10
81.984562
 20
226.839316
 30
0.0
 10
60.265586
 20
219.768036
 30
0.0
  0
LWPOLYLINE
  5
158
100
AcDbEntity
  8
text
 62
1
100
AcDbPolyline
 90
2
 70
0
 10
81.984562
 20
226.839316
 30
0.0
 10
59.255402
 20
223.303636
 30
0.0
  0
LWPOLYLINE
  5
159
100
AcDbEntity
  8
text
 62
1
100
AcDbPolyline
 90
2
 70
0
 10
81.984562
 20
226.839316
 30
0.0
 10
59.255402
 20
226.334196
 30
0.0
  0
LWPOLYLINE
  5
15a
100
AcDbEntity
  8
text
 62
1
100
AcDbPolyline
 90
2
 70
0
 10
81.984562
 20
226.839316
 30
0.0
 10
59.255402
 20
229.364756
 30
0.0
  0
LWPOLYLINE
  5
15b
100
AcDbEntity
  8
text
 62
1
100
AcDbPolyline
 90
2
 70
0
 10
81.984562
 20
226.839316
 30
0.0
 10
59.760490
 20
232.395316
 30
0.0
  0
LWPOLYLINE
  5
15c
100
AcDbEntity
  8
text
 62
1
100
AcDbPolyline
 90
2
 70
0
 10
81.984562
 20
226.839316
 30
0.0
 10
60.770682
 20
235.930996
 30
0.0
  0
LWPOLYLINE
  5
15d
100
AcDbEntity
  8
text
 62
1
100
AcDbPolyline
 90
2
 70
0
 10
81.984562
 20
226.839316
 30
0.0
 10
62.285954
 20
238.961556
 30
0.0
  0
LWPOLYLINE
  5
15e
100
AcDbEntity
  8
text
 62
1
100
AcDbPolyline
 90
2
 70
0
 10
81.984562
 20
226.839316
 30
0.0
 10
64.306322
 20
241.486996
 30
0.0
  0
LWPOLYLINE
  5
15f
100
AcDbEntity
  8
text
 62
1
100
AcDbPolyline
 90
2
 70
0
 10
81.984562
 20
226.839316
 30
0.0
 10
66.831786
 20
244.012436
 30
0.0
  0
LWPOLYLINE
  5
160
100
AcDbEntity
  8
text
 62
1
100
AcDbPolyline
 90
2
 70
0
 10
81.984562
 20
226.839316
 30
0.0
 10
69.357250
 20
246.032836
 30
0.0
  0
LWPOLYLINE
  5
161
100
AcDbEntity
  8
text
 62
1
100
AcDbPolyline
 90
2
 70
0
 10
81.984562
 20
226.839316
 30
0.0
 10
72.387802
 20
247.548116
 30
0.0
  0
LWPOLYLINE
  5
162
100
AcDbEntity
  8
text
 62
1
100
AcDbPolyline
 90
2
 70
0
 10
81.984562
 20
226.839316
 30
0.0
 10
75.418362
 20
249.063396
 30
0.0
  0
LWPOLYLINE
  5
163
100
AcDbEntity
  8
text
 62
1
100
AcDbPolyline
 90
2
 70
0
 10
81.984562
 20
226.839316
 30
0.0
 10
78.954002
 20
249.568436
 30
0.0
  0
LWPOLYLINE
  5
164
100
AcDbEntity
  8
text
 62
1
100
AcDbPolyline
 90
2
 70
0
 10
81.984562
 20
226.839316
 30
0.0
 10
81.984562
 20
250.073556
 30
0.0
  0
LWPOLYLINE
  5
165
100
AcDbEntity
  8
text
 62
1
100
AcDbPolyline
 90
2
 70
0
 10
81.984562
 20
226.839316
 30
0.0
 10
85.015114
 20
249.568436
 30
0.0
  0
LWPOLYLINE
  5
166
100
AcDbEntity
  8
text
 62
1
100
AcDbPolyline
 90
2
 70
0
 10
81.984562
 20
226.839316
 30
0.0
 10
88.550762
 20
249.063396
 30
0.0
  0
LWPOLYLINE
  5
167
100
AcDbEntity
  8
text
 62
1
100
AcDbPolyline
 90
2
 70
0
 10
81.984562
 20
226.839316
 30
0.0
 10
91.581314
 20
247.548116
 30
0.0
  0
LWPOLYLINE
  5
168
100
AcDbEntity
  8
text
 62
1
100
AcDbPolyline
 90
2
 70
0
 10
81.984562
 20
226.839316
 30
0.0
 10
94.611866
 20
246.032836
 30
0.0
  0
LWPOLYLINE
  5
169
100
AcDbEntity
  8
text
 62
1
100
AcDbPolyline
 90
2
 70
0
 10
81.984562
 20
226.839316
 30
0.0
 10
97.137330
 20
244.012436
 30
0.0
  0
LWPOLYLINE
  5
16a
100
AcDbEntity
  8
text
 62
1
100
AcDbPolyline
 90
2
 70
0
 10
81.984562
 20
226.839316
 30
0.0
 10
99.662794
 20
241.486996
 30
0.0
  0
LWPOLYLINE
  5
16b
100
AcDbEntity
  8
text
 62
1
100
AcDbPolyline
 90
2
 70
0
 10
81.984562
 20
226.839316
 30
0.0
 10
101.683162
 20
238.961556
 30
0.0
  0
LWPOLYLINE
  5
16c
100
AcDbEntity
  8
text
 62
1
100
AcDbPolyline
 90
2
 70
0
 10
81.984562
 20
226.839316
 30
0.0
 10
103.198442
 20
235.930996
 30
0.0
  0
LWPOLYLINE
  5
16d
100
AcDbEntity
  8
text
 62
1
100
AcDbPolyline
 90
2
 70
0
 10
81.984562
 20
226.839316
 30
0.0
 10
104.208626
 20
232.395316
 30
0.0
  0
LWPOLYLINE
  5
16e
100
AcDbEntity
  8
text
 62
1
100
AcDbPolyline
 90
2
 70
0
 10
81.984562
 20
226.839316
 30
0.0
 10
104.713722
 20
229.364756
 30
0.0
  0
LWPOLYLINE
  5
16f
100
AcDbEntity
  8
text
 62
1
100
AcDbPolyline
 90
2
 70
0
 10
81.984562
 20
226.839316
 30
0.0
 10
104.713722
 20
226.334196
 30
0.0
  0
LWPOLYLINE
  5
170
100
AcDbEntity
  8
text
 62
1
100
AcDbPolyline
 90
2
 70
0
 10
81.984562
 20
226.839316
 30
0.0
 10
104.713722
 20
223.303636
 30
0.0
  0
LWPOLYLINE
  5
171
100
AcDbEntity
  8
text
 62
1
100
AcDbPolyline
 90
2
 70
0
 10
81.984562
 20
226.839316
 30
0.0
 10
103.703530
 20
219.768036
 30
0.0
  0
LWPOLYLINE
  5
172
100
AcDbEntity
  8
text
 62
1
100
AcDbPolyline
 90
2
 70
0
 10
81.984562
 20
226.839316
 30
0.0
 10
102.693346
 20
216.737476
 30
0.0
  0
LWPOLYLINE
  5
173
100
AcDbEntity
  8
text
 62
1
100
AcDbPolyline
 90
2
 70
0
 10
81.984562
 20
226.839316
 30
0.0
 10
100.672978
 20
213.706916
 30
0.0
  0
LWPOLYLINE
  5
174
100
AcDbEntity
  8
text
 62
1
100
AcDbPolyline
 90
2
 70
0
 10
81.984562
 20
226.839316
 30
0.0
 10
98.652610
 20
211.181476
 30
0.0
  0
LWPOLYLINE
  5
175
100
AcDbEntity
  8
text
 62
1
100
AcDbPolyline
 90
2
 70
0
 10
81.984562
 20
226.839316
 30
0.0
 10
96.127146
 20
208.655956
 30
0.0
  0
SPLINE
  5
176
100
AcDbEntity
  8
text
 62
1
100
AcDbSpline
 70
8
 71
3
 72
8
 73
4
 74
0
 40
0
 40
0
 40
0
 40
0
 40
1
 40
1
 40
1
 40
1
 10
74.408170
 20
226.839316
 30
0.0
 10
74.408170
 20
231.385156
 30
0.0
 10
77.438730
 20
234.415716
 30
0.0
 10
81.984562
 20
234.415716
 30
0.0
  0
SPLINE
  5
177
100
AcDbEntity
  8
text
 62
1
100
AcDbSpline
 70
8
 71
3
 72
8
 73
4
 74
0
 40
0
 40
0
 40
0
 40
0
 40
1
 40
1
 40
1
 40
1
 10
81.984562
 20
234.415716
 30
0.0
 10
86.530394
 20
234.415716
 30
0.0
 10
89.560946
 20
231.385156
 30
0.0
 10
89.560946
 20
226.839316
 30
0.0
  0
SPLINE
  5
178
100
AcDbEntity
  8
text
 62
1
100
AcDbSpline
 70
8
 71
3
 72
8
 73
4
 74
0
 40
0
 40
0
 40
0
 40
0
 40
1
 40
1
 40
1
 40
1
 10
89.560946
 20
226.839316
 30
0.0
 10
89.560946
 20
222.293476
 30
0.0
 10
86.530394
 20
219.262916
 30
0.0
 10
81.984562
 20
219.262916
 30
0.0
  0
SPLINE
  5
179
100
AcDbEntity
  8
text
 62
1
100
AcDbSpline
 70
8
 71
3
 72
8
 73
4
 74
0
 40
0
 40
0
 40
0
 40
0
 40
1
 40
1
 40
1
 40
1
 10
81.984562
 20
219.262916
 30
0.0
 10
77.438730
 20
219.262916
 30
0.0
 10
74.408170
 20
222.293476
 30
0.0
 10
74.408170
 20
226.839316
 30
0.0
  0
LWPOLYLINE
  5
17a
100
AcDbEntity
  8
text
 62
1
100
AcDbPolyline
 90
2
 70
0
 10
81.984562
 20
226.839316
 30
0.0
 10
93.601682
 20
207.140676
 30
0.0
  0
LWPOLYLINE
  5
17b
100
AcDbEntity
  8
text
 62
1
100
AcDbPolyline
 90
2
 70
0
 10
78.954002
 20
226.839316
 30
0.0
 10
85.015114
 20
226.839316
 30
0.0
  0
SPLINE
  5
17c
100
AcDbEntity
  8
text
 62
4
100
AcDbSpline
 70
8
 71
3
 72
8
 73
4
 74
0
 40
0
 40
0
 40
0
 40
0
 40
1
 40
1
 40
1
 40
1
 10
87.720938
 20
90.498181
 30
0.0
 10
87.720937
 20
90.335799
 30
0.0
 10
87.649264
 20
90.180069
 30
0.0
 10
87.521685
 20
90.065247
 30
0.0
  0
SPLINE
  5
17d
100
AcDbEntity
  8
text
 62
4
100
AcDbSpline
 70
8
 71
3
 72
8
 73
4
 74
0
 40
0
 40
0
 40
0
 40
0
 40
1
 40
1
 40
1
 40
1
 10
87.521685
 20
90.065247
 30
0.0
 10
87.394105
 20
89.950426
 30
0.0
 10
87.221071
 20
89.885921
 30
0.0
 10
87.040647
 20
89.885921
 30
0.0
  0
SPLINE
  5
17e
100
AcDbEntity
  8
text
 62
4
100
AcDbSpline
 70
8
 71
3
 72
8
 73
4
 74
0
 40
0
 40
0
 40
0
 40
0
 40
1
 40
1
 40
1
 40
1
 10
87.040647
 20
89.885921
 30
0.0
 10
86.860223
 20
89.885921
 30
0.0
 10
86.687188
 20
89.950426
 30
0.0
 10
86.559609
 20
90.065247
 30
0.0
  0
SPLINE
  5
17f
100
AcDbEntity
  8
text
 62
4
100
AcDbSpline
 70
8
 71
3
 72
8
 73
4
 74
0
 40
0
 40
0
 40
0
 40
0
 40
1
 40
1
 40
1
 40
1
 10
86.559609
 20
90.065247
 30
0.0
 10
86.432029
 20
90.180069
 30
0.0
 10
86.360356
 20
90.335799
 30
0.0
 10
86.360356
 20
90.498181
 30
0.0
  0
SPLINE
  5
180
100
AcDbEntity
  8
text
 62
4
100
AcDbSpline
 70
8
 71
3
 72
8
 73
4
 74
0
 40
0
 40
0
 40
0
 40
0
 40
1
 40
1
 40
1
 40
1
 10
86.360356
 20
90.498181
 30
0.0
 10
86.360356
 20
90.660563
 30
0.0
 10
86.432029
 20
90.816294
 30
0.0
 10
86.559609
 20
90.931115
 30
0.0
  0
SPLINE
  5
181
100
AcDbEntity
  8
text
 62
4
100
AcDbSpline
 70
8
 71
3
 72
8
 73
4
 74
0
 40
0
 40
0
 40
0
 40
0
 40
1
 40
1
 40
1
 40
1
 10
86.559609
 20
90.931115
 30
0.0
 10
86.687188
 20
91.045936
 30
0.0
 10
86.860223
 20
91.110441
 30
0.0
 10
87.040647
 20
91.110441
 30
0.0
  0
SPLINE
  5
182
100
AcDbEntity
  8
text
 62
4
100
AcDbSpline
 70
8
 71
3
 72
8
 73
4
 74
0
 40
0
 40
0
 40
0
 40
0
 40
1
 40
1
 40
1
 40
1
 10
87.040647
 20
91.110441
 30
0.0
 10
87.221071
 20
91.110441
 30
0.0
 10
87.394105
 20
91.045936
 30
0.0
 10
87.521685
 20
90.931115
 30
0.0
  0
SPLINE
  5
183
100
AcDbEntity
  8
text
 62
4
100
AcDbSpline
 70
8
 71
3
 72
8
 73
4
 74
0
 40
0
 40
0
 40
0
 40
0
 40
1
 40
1
 40
1
 40
1
 10
87.521685
 20
90.931115
 30
0.0
 10
87.649264
 20
90.816294
 30
0.0
 10
87.720937
 20
90.660563
 30
0.0
 10
87.720938
 20
90.498181
 30
0.0
  0
LWPOLYLINE
  5
184
100
AcDbEntity
  8
text
 62
1
100
AcDbPolyline
 90
2
 70
0
 10
81.984562
 20
223.808756
 30
0.0
 10
81.984562
 20
229.869876
 30
0.0
  0
SPLINE
  5
185
100
AcDbEntity
  8
text
 62
4
100
AcDbSpline
 70
8
 71
3
 72
8
 73
4
 74
0
 40
0
 40
0
 40
0
 40
0
 40
1
 40
1
 40
1
 40
1
 10
150.729586
 20
90.498181
 30
0.0
 10
150.729585
 20
90.335799
 30
0.0
 10
150.657912
 20
90.180069
 30
0.0
 10
150.530333
 20
90.065247
 30
0.0
  0
SPLINE
  5
186
100
AcDbEntity
  8
text
 62
4
100
AcDbSpline
 70
8
 71
3
 72
8
 73
4
 74
0
 40
0
 40
0
 40
0
 40
0
 40
1
 40
1
 40
1
 40
1
 10
150.530333
 20
90.065247
 30
0.0
 10
150.402753
 20
89.950426
 30
0.0
 10
150.229719
 20
89.885921
 30
0.0
 10
150.049295
 20
89.885921
 30
0.0
  0
SPLINE
  5
187
100
AcDbEntity
  8
text
 62
4
100
AcDbSpline
 70
8
 71
3
 72
8
 73
4
 74
0
 40
0
 40
0
 40
0
 40
0
 40
1
 40
1
 40
1
 40
1
 10
150.049295
 20
89.885921
 30
0.0
 10
149.868871
 20
89.885921
 30
0.0
 10
149.695836
 20
89.950426
 30
0.0
 10
149.568257
 20
90.065247
 30
0.0
  0
SPLINE
  5
188
100
AcDbEntity
  8
text
 62
4
100
AcDbSpline
 70
8
 71
3
 72
8
 73
4
 74
0
 40
0
 40
0
 40
0
 40
0
 40
1
 40
1
 40
1
 40
1
 10
149.568257
 20
90.065247
 30
0.0
 10
149.440677
 20
90.180069
 30
0.0
 10
149.369004
 20
90.335799
 30
0.0
 10
149.369004
 20
90.498181
 30
0.0
  0
SPLINE
  5
189
100
AcDbEntity
  8
text
 62
4
100
AcDbSpline
 70
8
 71
3
 72
8
 73
4
 74
0
 40
0
 40
0
 40
0
 40
0
 40
1
 40
1
 40
1
 40
1
 10
149.369004
 20
90.498181
 30
0.0
 10
149.369004
 20
90.660563
 30
0.0
 10
149.440677
 20
90.816294
 30
0.0
 10
149.568257
 20
90.931115
 30
0.0
  0
SPLINE
  5
18a
100
AcDbEntity
  8
text
 62
4
100
AcDbSpline
 70
8
 71
3
 72
8
 73
4
 74
0
 40
0
 40
0
 40
0
 40
0
 40
1
 40
1
 40
1
 40
1
 10
149.568257
 20
90.931115
 30
0.0
 10
149.695836
 20
91.045936
 30
0.0
 10
149.868871
 20
91.110441
 30
0.0
 10
150.049295
 20
91.110441
 30
0.0
  0
SPLINE
  5
18b
100
AcDbEntity
  8
text
 62
4
100
AcDbSpline
 70
8
 71
3
 72
8
 73
4
 74
0
 40
0
 40
0
 40
0
 40
0
 40
1
 40
1
 40
1
 40
1
 10
150.049295
 20
91.110441
 30
0.0
 10
150.229719
 20
91.110441
 30
0.0
 10
150.402753
 20
91.045936
 30
0.0
 10
150.530333
 20
90.931115
 30
0.0
  0
SPLINE
  5
18c
100
AcDbEntity
  8
text
 62
4
100
AcDbSpline
 70
8
 71
3
 72
8
 73
4
 74
0
 40
0
 40
0
 40
0
 40
0
 40
1
 40
1
 40
1
 40
1
 10
150.530333
 20
90.931115
 30
0.0
 10
150.657912
 20
90.816294
 30
0.0
 10
150.729585
 20
90.660563
 30
0.0
 10
150.729586
 20
90.498181
 30
0.0
  0
LWPOLYLINE
  5
18d
100
AcDbEntity
  8
text
 62
4
100
AcDbPolyline
 90
2
 70
1
 10
87.720938
 20
90.498181
 30
0.0
 10
87.720938
 20
90.498181
 30
0.0
  0
SPLINE
  5
18e
100
AcDbEntity
  8
text
 62
4
100
AcDbSpline
 70
8
 71
3
 72
8
 73
4
 74
0
 40
0
 40
0
 40
0
 40
0
 40
1
 40
1
 40
1
 40
1
 10
118.909402
 20
90.498181
 30
0.0
 10
118.909401
 20
90.335799
 30
0.0
 10
118.837728
 20
90.180069
 30
0.0
 10
118.710149
 20
90.065247
 30
0.0
  0
SPLINE
  5
18f
100
AcDbEntity
  8
text
 62
4
100
AcDbSpline
 70
8
 71
3
 72
8
 73
4
 74
0
 40
0
 40
0
 40
0
 40
0
 40
1
 40
1
 40
1
 40
1
 10
118.710149
 20
90.065247
 30
0.0
 10
118.582569
 20
89.950426
 30
0.0
 10
118.409535
 20
89.885921
 30
0.0
 10
118.229111
 20
89.885921
 30
0.0
  0
SPLINE
  5
190
100
AcDbEntity
  8
text
 62
4
100
AcDbSpline
 70
8
 71
3
 72
8
 73
4
 74
0
 40
0
 40
0
 40
0
 40
0
 40
1
 40
1
 40
1
 40
1
 10
118.229111
 20
89.885921
 30
0.0
 10
118.048687
 20
89.885921
 30
0.0
 10
117.875652
 20
89.950426
 30
0.0
 10
117.748073
 20
90.065247
 30
0.0
  0
SPLINE
  5
191
100
AcDbEntity
  8
text
 62
4
100
AcDbSpline
 70
8
 71
3
 72
8
 73
4
 74
0
 40
0
 40
0
 40
0
 40
0
 40
1
 40
1
 40
1
 40
1
 10
117.748073
 20
90.065247
 30
0.0
 10
117.620493
 20
90.180069
 30
0.0
 10
117.548820
 20
90.335799
 30
0.0
 10
117.548820
 20
90.498181
 30
0.0
  0
SPLINE
  5
192
100
AcDbEntity
  8
text
 62
4
100
AcDbSpline
 70
8
 71
3
 72
8
 73
4
 74
0
 40
0
 40
0
 40
0
 40
0
 40
1
 40
1
 40
1
 40
1
 10
117.548820
 20
90.498181
 30
0.0
 10
117.548820
 20
90.660563
 30
0.0
 10
117.620493
 20
90.816294
 30
0.0
 10
117.748073
 20
90.931115
 30
0.0
  0
SPLINE
  5
193
100
AcDbEntity
  8
text
 62
4
100
AcDbSpline
 70
8
 71
3
 72
8
 73
4
 74
0
 40
0
 40
0
 40
0
 40
0
 40
1
 40
1
 40
1
 40
1
 10
117.748073
 20
90.931115
 30
0.0
 10
117.875652
 20
91.045936
 30
0.0
 10
118.048687
 20
91.110441
 30
0.0
 10
118.229111
 20
91.110441
 30
0.0
  0
SPLINE
  5
194
100
AcDbEntity
  8
text
 62
4
100
AcDbSpline
 70
8
 71
3
 72
8
 73
4
 74
0
 40
0
 40
0
 40
0
 40
0
 40
1
 40
1
 40
1
 40
1
 10
118.229111
 20
91.110441
 30
0.0
 10
118.409535
 20
91.110441
 30
0.0
 10
118.582569
 20
91.045936
 30
0.0
 10
118.710149
 20
90.931115
 30
0.0
  0
SPLINE
  5
195
100
AcDbEntity
  8
text
 62
4
100
AcDbSpline
 70
8
 71
3
 72
8
 73
4
 74
0
 40
0
 40
0
 40
0
 40
0
 40
1
 40
1
 40
1
 40
1
 10
118.710149
 20
90.931115
 30
0.0
 10
118.837728
 20
90.816294
 30
0.0
 10
118.909401
 20
90.660563
 30
0.0
 10
118.909402
 20
90.498181
 30
0.0
  0
LWPOLYLINE
  5
196
100
AcDbEntity
  8
text
 62
4
100
AcDbPolyline
 90
2
 70
1
 10
150.729586
 20
90.498181
 30
0.0
 10
150.729586
 20
90.498181
 30
0.0
  0
SPLINE
  5
197
100
AcDbEntity
  8
text
 62
1
100
AcDbSpline
 70
8
 71
3
 72
8
 73
4
 74
0
 40
0
 40
0
 40
0
 40
0
 40
1
 40
1
 40
1
 40
1
 10
54.093194
 20
323.465060
 30
0.0
 10
54.093194
 20
328.485060
 30
0.0
 10
57.441194
 20
331.832060
 30
0.0
 10
62.461194
 20
331.832060
 30
0.0
  0
SPLINE
  5
198
100
AcDbEntity
  8
text
 62
1
100
AcDbSpline
 70
8
 71
3
 72
8
 73
4
 74
0
 40
0
 40
0
 40
0
 40
0
 40
1
 40
1
 40
1
 40
1
 10
62.461194
 20
331.832060
 30
0.0
 10
67.484194
 20
331.832060
 30
0.0
 10
70.828194
 20
328.485060
 30
0.0
 10
70.828194
 20
323.465060
 30
0.0
  0
SPLINE
  5
199
100
AcDbEntity
  8
text
 62
1
100
AcDbSpline
 70
8
 71
3
 72
8
 73
4
 74
0
 40
0
 40
0
 40
0
 40
0
 40
1
 40
1
 40
1
 40
1
 10
70.828194
 20
323.465060
 30
0.0
 10
70.828194
 20
318.446060
 30
0.0
 10
67.484194
 20
315.098060
 30
0.0
 10
62.461194
 20
315.098060
 30
0.0
  0
SPLINE
  5
19a
100
AcDbEntity
  8
text
 62
1
100
AcDbSpline
 70
8
 71
3
 72
8
 73
4
 74
0
 40
0
 40
0
 40
0
 40
0
 40
1
 40
1
 40
1
 40
1
 10
62.461194
 20
315.098060
 30
0.0
 10
57.441194
 20
315.098060
 30
0.0
 10
54.093194
 20
318.446060
 30
0.0
 10
54.093194
 20
323.465060
 30
0.0
  0
LWPOLYLINE
  5
19b
100
AcDbEntity
  8
text
 62
4
100
AcDbPolyline
 90
2
 70
1
 10
118.909402
 20
90.498181
 30
0.0
 10
118.909402
 20
90.498181
 30
0.0
  0
LWPOLYLINE
  5
19c
100
AcDbEntity
  8
text
 62
1
100
AcDbPolyline
 90
2
 70
0
 10
59.117194
 20
323.465060
 30
0.0
 10
65.808194
 20
323.465060
 30
0.0
  0
SPLINE
  5
19d
100
AcDbEntity
  8
text
 62
1
100
AcDbSpline
 70
8
 71
3
 72
8
 73
4
 74
0
 40
0
 40
0
 40
0
 40
0
 40
1
 40
1
 40
1
 40
1
 10
53.995194
 20
183.139180
 30
0.0
 10
53.995194
 20
188.159180
 30
0.0
 10
57.343194
 20
191.506180
 30
0.0
 10
62.363194
 20
191.506180
 30
0.0
  0
SPLINE
  5
19e
100
AcDbEntity
  8
text
 62
1
100
AcDbSpline
 70
8
 71
3
 72
8
 73
4
 74
0
 40
0
 40
0
 40
0
 40
0
 40
1
 40
1
 40
1
 40
1
 10
62.363194
 20
191.506180
 30
0.0
 10
67.386194
 20
191.506180
 30
0.0
 10
70.730194
 20
188.159180
 30
0.0
 10
70.730194
 20
183.139180
 30
0.0
  0
SPLINE
  5
19f
100
AcDbEntity
  8
text
 62
1
100
AcDbSpline
 70
8
 71
3
 72
8
 73
4
 74
0
 40
0
 40
0
 40
0
 40
0
 40
1
 40
1
 40
1
 40
1
 10
70.730194
 20
183.139180
 30
0.0
 10
70.730194
 20
178.120180
 30
0.0
 10
67.386194
 20
174.772180
 30
0.0
 10
62.363194
 20
174.772180
 30
0.0
  0
SPLINE
  5
1a0
100
AcDbEntity
  8
text
 62
1
100
AcDbSpline
 70
8
 71
3
 72
8
 73
4
 74
0
 40
0
 40
0
 40
0
 40
0
 40
1
 40
1
 40
1
 40
1
 10
62.363194
 20
174.772180
 30
0.0
 10
57.343194
 20
174.772180
 30
0.0
 10
53.995194
 20
178.120180
 30
0.0
 10
53.995194
 20
183.139180
 30
0.0
  0
LWPOLYLINE
  5
1a1
100
AcDbEntity
  8
text
 62
1
100
AcDbPolyline
 90
2
 70
0
 10
62.461194
 20
320.118060
 30
0.0
 10
62.461194
 20
326.813060
 30
0.0
  0
LWPOLYLINE
  5
1a2
100
AcDbEntity
  8
text
 62
1
100
AcDbPolyline
 90
2
 70
0
 10
59.019194
 20
183.139180
 30
0.0
 10
65.710194
 20
183.139180
 30
0.0
  0
SPLINE
  5
1a3
100
AcDbEntity
  8
text
 62
1
100
AcDbSpline
 70
8
 71
3
 72
8
 73
4
 74
0
 40
0
 40
0
 40
0
 40
0
 40
1
 40
1
 40
1
 40
1
 10
54.153666
 20
287.494308
 30
0.0
 10
54.153666
 20
292.514308
 30
0.0
 10
57.501666
 20
295.861308
 30
0.0
 10
62.521666
 20
295.861308
 30
0.0
  0
SPLINE
  5
1a4
100
AcDbEntity
  8
text
 62
1
100
AcDbSpline
 70
8
 71
3
 72
8
 73
4
 74
0
 40
0
 40
0
 40
0
 40
0
 40
1
 40
1
 40
1
 40
1
 10
62.521666
 20
295.861308
 30
0.0
 10
67.544666
 20
295.861308
 30
0.0
 10
70.888666
 20
292.514308
 30
0.0
 10
70.888666
 20
287.494308
 30
0.0
  0
SPLINE
  5
1a5
100
AcDbEntity
  8
text
 62
1
100
AcDbSpline
 70
8
 71
3
 72
8
 73
4
 74
0
 40
0
 40
0
 40
0
 40
0
 40
1
 40
1
 40
1
 40
1
 10
70.888666
 20
287.494308
 30
0.0
 10
70.888666
 20
282.475308
 30
0.0
 10
67.544666
 20
279.127308
 30
0.0
 10
62.521666
 20
279.127308
 30
0.0
  0
SPLINE
  5
1a6
100
AcDbEntity
  8
text
 62
1
100
AcDbSpline
 70
8
 71
3
 72
8
 73
4
 74
0
 40
0
 40
0
 40
0
 40
0
 40
1
 40
1
 40
1
 40
1
 10
62.521666
 20
279.127308
 30
0.0
 10
57.501666
 20
279.127308
 30
0.0
 10
54.153666
 20
282.475308
 30
0.0
 10
54.153666
 20
287.494308
 30
0.0
  0
LWPOLYLINE
  5
1a7
100
AcDbEntity
  8
text
 62
1
100
AcDbPolyline
 90
2
 70
0
 10
62.363194
 20
179.792180
 30
0.0
 10
62.363194
 20
186.487180
 30
0.0
  0
LWPOLYLINE
  5
1a8
100
AcDbEntity
  8
text
 62
1
100
AcDbPolyline
 90
2
 70
0
 10
59.177666
 20
287.494308
 30
0.0
 10
65.868666
 20
287.494308
 30
0.0
  0
SPLINE
  5
1a9
100
AcDbEntity
  8
text
 62
1
100
AcDbSpline
 70
8
 71
3
 72
8
 73
4
 74
0
 40
0
 40
0
 40
0
 40
0
 40
1
 40
1
 40
1
 40
1
 10
54.252954
 20
147.074268
 30
0.0
 10
54.252954
 20
152.094268
 30
0.0
 10
57.600954
 20
155.441268
 30
0.0
 10
62.620954
 20
155.441268
 30
0.0
  0
SPLINE
  5
1aa
100
AcDbEntity
  8
text
 62
1
100
AcDbSpline
 70
8
 71
3
 72
8
 73
4
 74
0
 40
0
 40
0
 40
0
 40
0
 40
1
 40
1
 40
1
 40
1
 10
62.620954
 20
155.441268
 30
0.0
 10
67.643954
 20
155.441268
 30
0.0
 10
70.987954
 20
152.094268
 30
0.0
 10
70.987954
 20
147.074268
 30
0.0
  0
SPLINE
  5
1ab
100
AcDbEntity
  8
text
 62
1
100
AcDbSpline
 70
8
 71
3
 72
8
 73
4
 74
0
 40
0
 40
0
 40
0
 40
0
 40
1
 40
1
 40
1
 40
1
 10
70.987954
 20
147.074268
 30
0.0
 10
70.987954
 20
142.055268
 30
0.0
 10
67.643954
 20
138.707268
 30
0.0
 10
62.620954
 20
138.707268
 30
0.0
  0
SPLINE
  5
1ac
100
AcDbEntity
  8
text
 62
1
100
AcDbSpline
 70
8
 71
3
 72
8
 73
4
 74
0
 40
0
 40
0
 40
0
 40
0
 40
1
 40
1
 40
1
 40
1
 10
62.620954
 20
138.707268
 30
0.0
 10
57.600954
 20
138.707268
 30
0.0
 10
54.252954
 20
142.055268
 30
0.0
 10
54.252954
 20
147.074268
 30
0.0
  0
LWPOLYLINE
  5
1ad
100
AcDbEntity
  8
text
 62
1
100
AcDbPolyline
 90
2
 70
0
 10
62.521666
 20
284.147308
 30
0.0
 10
62.521666
 20
290.842308
 30
0.0
  0
LWPOLYLINE
  5
1ae
100
AcDbEntity
  8
text
 62
1
100
AcDbPolyline
 90
2
 70
0
 10
59.276954
 20
147.074268
 30
0.0
 10
65.967954
 20
147.074268
 30
0.0
  0
SPLINE
  5
1af
100
AcDbEntity
  8
text
 62
1
100
AcDbSpline
 70
8
 71
3
 72
8
 73
4
 74
0
 40
0
 40
0
 40
0
 40
0
 40
1
 40
1
 40
1
 40
1
 10
138.953666
 20
287.494308
 30
0.0
 10
138.953666
 20
292.514308
 30
0.0
 10
142.301666
 20
295.861308
 30
0.0
 10
147.321666
 20
295.861308
 30
0.0
  0
SPLINE
  5
1b0
100
AcDbEntity
  8
text
 62
1
100
AcDbSpline
 70
8
 71
3
 72
8
 73
4
 74
0
 40
0
 40
0
 40
0
 40
0
 40
1
 40
1
 40
1
 40
1
 10
147.321666
 20
295.861308
 30
0.0
 10
152.344666
 20
295.861308
 30
0.0
 10
155.688666
 20
292.514308
 30
0.0
 10
155.688666
 20
287.494308
 30
0.0
  0
SPLINE
  5
1b1
100
AcDbEntity
  8
text
 62
1
100
AcDbSpline
 70
8
 71
3
 72
8
 73
4
 74
0
 40
0
 40
0
 40
0
 40
0
 40
1
 40
1
 40
1
 40
1
 10
155.688666
 20
287.494308
 30
0.0
 10
155.688666
 20
282.475308
 30
0.0
 10
152.344666
 20
279.127308
 30
0.0
 10
147.321666
 20
279.127308
 30
0.0
  0
SPLINE
  5
1b2
100
AcDbEntity
  8
text
 62
1
100
AcDbSpline
 70
8
 71
3
 72
8
 73
4
 74
0
 40
0
 40
0
 40
0
 40
0
 40
1
 40
1
 40
1
 40
1
 10
147.321666
 20
279.127308
 30
0.0
 10
142.301666
 20
279.127308
 30
0.0
 10
138.953666
 20
282.475308
 30
0.0
 10
138.953666
 20
287.494308
 30
0.0
  0
LWPOLYLINE
  5
1b3
100
AcDbEntity
  8
text
 62
1
100
AcDbPolyline
 90
2
 70
0
 10
62.620954
 20
143.727268
 30
0.0
 10
62.620954
 20
150.422268
 30
0.0
  0
LWPOLYLINE
  5
1b4
100
AcDbEntity
  8
text
 62
1
100
AcDbPolyline
 90
2
 70
0
 10
143.977666
 20
287.494308
 30
0.0
 10
150.668666
 20
287.494308
 30
0.0
  0
SPLINE
  5
1b5
100
AcDbEntity
  8
text
 62
1
100
AcDbSpline
 70
8
 71
3
 72
8
 73
4
 74
0
 40
0
 40
0
 40
0
 40
0
 40
1
 40
1
 40
1
 40
1
 10
138.953666
 20
323.465060
 30
0.0
 10
138.953666
 20
328.485060
 30
0.0
 10
142.301666
 20
331.832060
 30
0.0
 10
147.321666
 20
331.832060
 30
0.0
  0
SPLINE
  5
1b6
100
AcDbEntity
  8
text
 62
1
100
AcDbSpline
 70
8
 71
3
 72
8
 73
4
 74
0
 40
0
 40
0
 40
0
 40
0
 40
1
 40
1
 40
1
 40
1
 10
147.321666
 20
331.832060
 30
0.0
 10
152.344666
 20
331.832060
 30
0.0
 10
155.688666
 20
328.485060
 30
0.0
 10
155.688666
 20
323.465060
 30
0.0
  0
SPLINE
  5
1b7
100
AcDbEntity
  8
text
 62
1
100
AcDbSpline
 70
8
 71
3
 72
8
 73
4
 74
0
 40
0
 40
0
 40
0
 40
0
 40
1
 40
1
 40
1
 40
1
 10
155.688666
 20
323.465060
 30
0.0
 10
155.688666
 20
318.446060
 30
0.0
 10
152.344666
 20
315.098060
 30
0.0
 10
147.321666
 20
315.098060
 30
0.0
  0
SPLINE
  5
1b8
100
AcDbEntity
  8
text
 62
1
100
AcDbSpline
 70
8
 71
3
 72
8
 73
4
 74
0
 40
0
 40
0
 40
0
 40
0
 40
1
 40
1
 40
1
 40
1
 10
147.321666
 20
315.098060
 30
0.0
 10
142.301666
 20
315.098060
 30
0.0
 10
138.953666
 20
318.446060
 30
0.0
 10
138.953666
 20
323.465060
 30
0.0
  0
LWPOLYLINE
  5
1b9
100
AcDbEntity
  8
text
 62
1
100
AcDbPolyline
 90
2
 70
0
 10
147.321666
 20
284.147308
 30
0.0
 10
147.321666
 20
290.842308
 30
0.0
  0
LWPOLYLINE
  5
1ba
100
AcDbEntity
  8
text
 62
1
100
AcDbPolyline
 90
2
 70
0
 10
143.977666
 20
323.465060
 30
0.0
 10
150.668666
 20
323.465060
 30
0.0
  0
LWPOLYLINE
  5
1bb
100
AcDbEntity
  8
text
 62
1
100
AcDbPolyline
 90
2
 70
0
 10
147.321666
 20
320.118060
 30
0.0
 10
147.321666
 20
326.813060
 30
0.0
  0
LWPOLYLINE
  5
1bc
100
AcDbEntity
  8
text
 62
1
100
AcDbPolyline
 90
4
 70
0
 10
110.942954
 20
222.516684
 30
0.0
 10
144.702682
 20
213.528932
 30
0.0
 10
144.706682
 20
194.301492
 30
0.0
 10
120.518178
 20
186.907596
 30
0.0
  0
SPLINE
  5
1bd
100
AcDbEntity
  8
text
 62
1
100
AcDbSpline
 70
8
 71
3
 72
8
 73
4
 74
0
 40
0
 40
0
 40
0
 40
0
 40
1
 40
1
 40
1
 40
1
 10
203.972685
 20
123.247964
 30
0.0
 10
203.972685
 20
128.271964
 30
0.0
 10
207.320685
 20
131.614964
 30
0.0
 10
212.343685
 20
131.614964
 30
0.0
  0
SPLINE
  5
1be
100
AcDbEntity
  8
text
 62
1
100
AcDbSpline
 70
8
 71
3
 72
8
 73
4
 74
0
 40
0
 40
0
 40
0
 40
0
 40
1
 40
1
 40
1
 40
1
 10
212.343685
 20
131.614964
 30
0.0
 10
217.363685
 20
131.614964
 30
0.0
 10
220.706685
 20
128.271964
 30
0.0
 10
220.706685
 20
123.247964
 30
0.0
  0
SPLINE
  5
1bf
100
AcDbEntity
  8
text
 62
1
100
AcDbSpline
 70
8
 71
3
 72
8
 73
4
 74
0
 40
0
 40
0
 40
0
 40
0
 40
1
 40
1
 40
1
 40
1
 10
220.706685
 20
123.247964
 30
0.0
 10
220.706685
 20
118.232964
 30
0.0
 10
217.363685
 20
114.884964
 30
0.0
 10
212.343685
 20
114.884964
 30
0.0
  0
SPLINE
  5
1c0
100
AcDbEntity
  8
text
 62
1
100
AcDbSpline
 70
8
 71
3
 72
8
 73
4
 74
0
 40
0
 40
0
 40
0
 40
0
 40
1
 40
1
 40
1
 40
1
 10
212.343685
 20
114.884964
 30
0.0
 10
207.320685
 20
114.884964
 30
0.0
 10
203.972685
 20
118.232964
 30
0.0
 10
203.972685
 20
123.247964
 30
0.0
  0
LWPOLYLINE
  5
1c1
100
AcDbEntity
  8
text
 62
1
100
AcDbPolyline
 90
5
 70
1
 10
176.313624
 20
397.287756
 30
0.0
 10
735.622368
 20
397.287756
 30
0.0
 10
735.622368
 20
-430.695844
 30
0.0
 10
176.313624
 20
-430.695844
 30
0.0
 10
176.313624
 20
397.287756
 30
0.0
  0
LWPOLYLINE
  5
1c2
100
AcDbEntity
  8
text
 62
1
100
AcDbPolyline
 90
2
 70
0
 10
208.996685
 20
123.247964
 30
0.0
 10
215.687685
 20
123.247964
 30
0.0
  0
LWPOLYLINE
  5
1c3
100
AcDbEntity
  8
text
 62
1
100
AcDbPolyline
 90
2
 70
0
 10
212.343685
 20
119.903964
 30
0.0
 10
212.343685
 20
126.599964
 30
0.0
  0
SPLINE
  5
1c4
100
AcDbEntity
  8
text
 62
1
100
AcDbSpline
 70
8
 71
3
 72
8
 73
4
 74
0
 40
0
 40
0
 40
0
 40
0
 40
1
 40
1
 40
1
 40
1
 10
265.083702
 20
379.060548
 30
0.0
 10
265.083702
 20
378.685548
 30
0.0
 10
264.747702
 20
378.381548
 30
0.0
 10
264.333702
 20
378.381548
 30
0.0
  0
SPLINE
  5
1c5
100
AcDbEntity
  8
text
 62
1
100
AcDbSpline
 70
8
 71
3
 72
8
 73
4
 74
0
 40
0
 40
0
 40
0
 40
0
 40
1
 40
1
 40
1
 40
1
 10
264.333702
 20
378.381548
 30
0.0
 10
263.918702
 20
378.381548
 30
0.0
 10
263.586702
 20
378.685548
 30
0.0
 10
263.586702
 20
379.060548
 30
0.0
  0
SPLINE
  5
1c6
100
AcDbEntity
  8
text
 62
1
100
AcDbSpline
 70
8
 71
3
 72
8
 73
4
 74
0
 40
0
 40
0
 40
0
 40
0
 40
1
 40
1
 40
1
 40
1
 10
263.586702
 20
379.060548
 30
0.0
 10
263.586702
 20
379.435548
 30
0.0
 10
263.918702
 20
379.740548
 30
0.0
 10
264.333702
 20
379.740548
 30
0.0
  0
SPLINE
  5
1c7
100
AcDbEntity
  8
text
 62
1
100
AcDbSpline
 70
8
 71
3
 72
8
 73
4
 74
0
 40
0
 40
0
 40
0
 40
0
 40
1
 40
1
 40
1
 40
1
 10
264.333702
 20
379.740548
 30
0.0
 10
264.747702
 20
379.740548
 30
0.0
 10
265.083702
 20
379.435548
 30
0.0
 10
265.083702
 20
379.060548
 30
0.0
  0
LWPOLYLINE
  5
1c8
100
AcDbEntity
  8
text
 62
1
100
AcDbPolyline
 90
6
 70
0
 10
214.148158
 20
24.969874
 30
0.0
 10
181.456425
 20
24.969874
 30
0.0
 10
181.456425
 20
388.982099
 30
0.0
 10
271.983568
 20
388.982099
 30
0.0
 10
271.983568
 20
24.969874
 30
0.0
 10
181.456425
 20
24.969874
 30
0.0
  0
SPLINE
  5
1c9
100
AcDbEntity
  8
text
 62
1
100
AcDbSpline
 70
8
 71
3
 72
8
 73
4
 74
0
 40
0
 40
0
 40
0
 40
0
 40
1
 40
1
 40
1
 40
1
 10
206.768600
 20
33.574548
 30
0.0
 10
206.768600
 20
33.312548
 30
0.0
 10
206.494600
 20
33.097548
 30
0.0
 10
206.155600
 20
33.097548
 30
0.0
  0
SPLINE
  5
1ca
100
AcDbEntity
  8
text
 62
1
100
AcDbSpline
 70
8
 71
3
 72
8
 73
4
 74
0
 40
0
 40
0
 40
0
 40
0
 40
1
 40
1
 40
1
 40
1
 10
206.155600
 20
33.097548
 30
0.0
 10
205.819600
 20
33.097548
 30
0.0
 10
205.541600
 20
33.312548
 30
0.0
 10
205.541600
 20
33.574548
 30
0.0
  0
SPLINE
  5
1cb
100
AcDbEntity
  8
text
 62
1
100
AcDbSpline
 70
8
 71
3
 72
8
 73
4
 74
0
 40
0
 40
0
 40
0
 40
0
 40
1
 40
1
 40
1
 40
1
 10
205.541600
 20
33.574548
 30
0.0
 10
205.541600
 20
33.835548
 30
0.0
 10
205.819600
 20
34.050548
 30
0.0
 10
206.155600
 20
34.050548
 30
0.0
  0
SPLINE
  5
1cc
100
AcDbEntity
  8
text
 62
1
100
AcDbSpline
 70
8
 71
3
 72
8
 73
4
 74
0
 40
0
 40
0
 40
0
 40
0
 40
1
 40
1
 40
1
 40
1
 10
206.155600
 20
34.050548
 30
0.0
 10
206.494600
 20
34.050548
 30
0.0
 10
206.768600
 20
33.835548
 30
0.0
 10
206.768600
 20
33.574548
 30
0.0
  0
LWPOLYLINE
  5
1cd
100
AcDbEntity
  8
text
 62
1
100
AcDbPolyline
 90
2
 70
1
 10
265.083702
 20
379.060548
 30
0.0
 10
265.083702
 20
379.060548
 30
0.0
  0
LWPOLYLINE
  5
1ce
100
AcDbEntity
  8
text
 62
1
100
AcDbPolyline
 90
2
 70
1
 10
206.768600
 20
33.574548
 30
0.0
 10
206.768600
 20
33.574548
 30
0.0
  0
LWPOLYLINE
  5
1cf
100
AcDbEntity
  8
text
 62
1
100
AcDbPolyline
 90
2
 70
0
 10
232.308888
 20
217.210364
 30
0.0
 10
219.683888
 20
194.479364
 30
0.0
  0
LWPOLYLINE
  5
1d0
100
AcDbEntity
  8
text
 62
1
100
AcDbPolyline
 90
2
 70
0
 10
232.308888
 20
217.210364
 30
0.0
 10
209.074888
 20
205.593364
 30
0.0
  0
LWPOLYLINE
  5
1d1
100
AcDbEntity
  8
text
 62
1
100
AcDbPolyline
 90
2
 70
0
 10
232.308888
 20
217.210364
 30
0.0
 10
206.550888
 20
220.241364
 30
0.0
  0
LWPOLYLINE
  5
1d2
100
AcDbEntity
  8
text
 62
1
100
AcDbPolyline
 90
2
 70
0
 10
232.308888
 20
217.210364
 30
0.0
 10
212.613888
 20
233.878364
 30
0.0
  0
LWPOLYLINE
  5
1d3
100
AcDbEntity
  8
text
 62
1
100
AcDbPolyline
 90
2
 70
0
 10
232.308888
 20
217.210364
 30
0.0
 10
225.238888
 20
241.960364
 30
0.0
  0
LWPOLYLINE
  5
1d4
100
AcDbEntity
  8
text
 62
1
100
AcDbPolyline
 90
2
 70
0
 10
232.308888
 20
217.210364
 30
0.0
 10
239.382888
 20
241.960364
 30
0.0
  0
LWPOLYLINE
  5
1d5
100
AcDbEntity
  8
text
 62
1
100
AcDbPolyline
 90
2
 70
0
 10
232.308888
 20
217.210364
 30
0.0
 10
252.007888
 20
233.878364
 30
0.0
  0
LWPOLYLINE
  5
1d6
100
AcDbEntity
  8
text
 62
1
100
AcDbPolyline
 90
2
 70
0
 10
232.308888
 20
217.210364
 30
0.0
 10
258.070888
 20
220.241364
 30
0.0
  0
LWPOLYLINE
  5
1d7
100
AcDbEntity
  8
text
 62
1
100
AcDbPolyline
 90
2
 70
0
 10
232.308888
 20
217.210364
 30
0.0
 10
255.543888
 20
205.593364
 30
0.0
  0
LWPOLYLINE
  5
1d8
100
AcDbEntity
  8
text
 62
1
100
AcDbPolyline
 90
2
 70
0
 10
232.308888
 20
217.210364
 30
0.0
 10
245.441888
 20
194.479364
 30
0.0
  0
LWPOLYLINE
  5
1d9
100
AcDbEntity
  8
text
 62
1
100
AcDbPolyline
 90
2
 70
0
 10
232.308888
 20
217.210364
 30
0.0
 10
221.199888
 20
197.511364
 30
0.0
  0
LWPOLYLINE
  5
1da
100
AcDbEntity
  8
text
 62
1
100
AcDbPolyline
 90
2
 70
0
 10
232.308888
 20
217.210364
 30
0.0
 10
218.168888
 20
199.026364
 30
0.0
  0
LWPOLYLINE
  5
1db
100
AcDbEntity
  8
text
 62
1
100
AcDbPolyline
 90
2
 70
0
 10
232.308888
 20
217.210364
 30
0.0
 10
215.640888
 20
201.550364
 30
0.0
  0
LWPOLYLINE
  5
1dc
100
AcDbEntity
  8
text
 62
1
100
AcDbPolyline
 90
2
 70
0
 10
232.308888
 20
217.210364
 30
0.0
 10
213.621888
 20
204.077364
 30
0.0
  0
LWPOLYLINE
  5
1dd
100
AcDbEntity
  8
text
 62
1
100
AcDbPolyline
 90
2
 70
0
 10
232.308888
 20
217.210364
 30
0.0
 10
211.601888
 20
207.108364
 30
0.0
  0
LWPOLYLINE
  5
1de
100
AcDbEntity
  8
text
 62
1
100
AcDbPolyline
 90
2
 70
0
 10
232.308888
 20
217.210364
 30
0.0
 10
210.589888
 20
210.140364
 30
0.0
  0
LWPOLYLINE
  5
1df
100
AcDbEntity
  8
text
 62
1
100
AcDbPolyline
 90
2
 70
0
 10
232.308888
 20
217.210364
 30
0.0
 10
209.582888
 20
213.675364
 30
0.0
  0
LWPOLYLINE
  5
1e0
100
AcDbEntity
  8
text
 62
1
100
AcDbPolyline
 90
2
 70
0
 10
232.308888
 20
217.210364
 30
0.0
 10
209.582888
 20
216.702364
 30
0.0
  0
LWPOLYLINE
  5
1e1
100
AcDbEntity
  8
text
 62
1
100
AcDbPolyline
 90
2
 70
0
 10
232.308888
 20
217.210364
 30
0.0
 10
209.582888
 20
219.733364
 30
0.0
  0
LWPOLYLINE
  5
1e2
100
AcDbEntity
  8
text
 62
1
100
AcDbPolyline
 90
2
 70
0
 10
232.308888
 20
217.210364
 30
0.0
 10
210.086888
 20
222.765364
 30
0.0
  0
LWPOLYLINE
  5
1e3
100
AcDbEntity
  8
text
 62
1
100
AcDbPolyline
 90
2
 70
0
 10
232.308888
 20
217.210364
 30
0.0
 10
211.097888
 20
226.300364
 30
0.0
  0
LWPOLYLINE
  5
1e4
100
AcDbEntity
  8
text
 62
1
100
AcDbPolyline
 90
2
 70
0
 10
232.308888
 20
217.210364
 30
0.0
 10
212.613888
 20
229.331364
 30
0.0
  0
LWPOLYLINE
  5
1e5
100
AcDbEntity
  8
text
 62
1
100
AcDbPolyline
 90
2
 70
0
 10
232.308888
 20
217.210364
 30
0.0
 10
214.632888
 20
231.858364
 30
0.0
  0
LWPOLYLINE
  5
1e6
100
AcDbEntity
  8
text
 62
1
100
AcDbPolyline
 90
2
 70
0
 10
232.308888
 20
217.210364
 30
0.0
 10
217.156888
 20
234.382364
 30
0.0
  0
LWPOLYLINE
  5
1e7
100
AcDbEntity
  8
text
 62
1
100
AcDbPolyline
 90
2
 70
0
 10
232.308888
 20
217.210364
 30
0.0
 10
219.683888
 20
236.401364
 30
0.0
  0
LWPOLYLINE
  5
1e8
100
AcDbEntity
  8
text
 62
1
100
AcDbPolyline
 90
2
 70
0
 10
232.308888
 20
217.210364
 30
0.0
 10
222.714888
 20
237.917364
 30
0.0
  0
LWPOLYLINE
  5
1e9
100
AcDbEntity
  8
text
 62
1
100
AcDbPolyline
 90
2
 70
0
 10
232.308888
 20
217.210364
 30
0.0
 10
225.742888
 20
239.433364
 30
0.0
  0
LWPOLYLINE
  5
1ea
100
AcDbEntity
  8
text
 62
1
100
AcDbPolyline
 90
2
 70
0
 10
232.308888
 20
217.210364
 30
0.0
 10
229.281888
 20
239.937364
 30
0.0
  0
LWPOLYLINE
  5
1eb
100
AcDbEntity
  8
text
 62
1
100
AcDbPolyline
 90
2
 70
0
 10
232.308888
 20
217.210364
 30
0.0
 10
232.308888
 20
240.444364
 30
0.0
  0
LWPOLYLINE
  5
1ec
100
AcDbEntity
  8
text
 62
1
100
AcDbPolyline
 90
2
 70
0
 10
232.308888
 20
217.210364
 30
0.0
 10
235.339888
 20
239.937364
 30
0.0
  0
LWPOLYLINE
  5
1ed
100
AcDbEntity
  8
text
 62
1
100
AcDbPolyline
 90
2
 70
0
 10
232.308888
 20
217.210364
 30
0.0
 10
238.875888
 20
239.433364
 30
0.0
  0
LWPOLYLINE
  5
1ee
100
AcDbEntity
  8
text
 62
1
100
AcDbPolyline
 90
2
 70
0
 10
232.308888
 20
217.210364
 30
0.0
 10
241.906888
 20
237.917364
 30
0.0
  0
LWPOLYLINE
  5
1ef
100
AcDbEntity
  8
text
 62
1
100
AcDbPolyline
 90
2
 70
0
 10
232.308888
 20
217.210364
 30
0.0
 10
244.937888
 20
236.401364
 30
0.0
  0
LWPOLYLINE
  5
1f0
100
AcDbEntity
  8
text
 62
1
100
AcDbPolyline
 90
2
 70
0
 10
232.308888
 20
217.210364
 30
0.0
 10
247.461888
 20
234.382364
 30
0.0
  0
LWPOLYLINE
  5
1f1
100
AcDbEntity
  8
text
 62
1
100
AcDbPolyline
 90
2
 70
0
 10
232.308888
 20
217.210364
 30
0.0
 10
249.988888
 20
231.858364
 30
0.0
  0
LWPOLYLINE
  5
1f2
100
AcDbEntity
  8
text
 62
1
100
AcDbPolyline
 90
2
 70
0
 10
232.308888
 20
217.210364
 30
0.0
 10
252.007888
 20
229.331364
 30
0.0
  0
LWPOLYLINE
  5
1f3
100
AcDbEntity
  8
text
 62
1
100
AcDbPolyline
 90
2
 70
0
 10
232.308888
 20
217.210364
 30
0.0
 10
253.523888
 20
226.300364
 30
0.0
  0
LWPOLYLINE
  5
1f4
100
AcDbEntity
  8
text
 62
1
100
AcDbPolyline
 90
2
 70
0
 10
232.308888
 20
217.210364
 30
0.0
 10
254.535888
 20
222.765364
 30
0.0
  0
LWPOLYLINE
  5
1f5
100
AcDbEntity
  8
text
 62
1
100
AcDbPolyline
 90
2
 70
0
 10
232.308888
 20
217.210364
 30
0.0
 10
255.039888
 20
219.733364
 30
0.0
  0
LWPOLYLINE
  5
1f6
100
AcDbEntity
  8
text
 62
1
100
AcDbPolyline
 90
2
 70
0
 10
232.308888
 20
217.210364
 30
0.0
 10
255.039888
 20
216.702364
 30
0.0
  0
LWPOLYLINE
  5
1f7
100
AcDbEntity
  8
text
 62
1
100
AcDbPolyline
 90
2
 70
0
 10
232.308888
 20
217.210364
 30
0.0
 10
255.039888
 20
213.675364
 30
0.0
  0
LWPOLYLINE
  5
1f8
100
AcDbEntity
  8
text
 62
1
100
AcDbPolyline
 90
2
 70
0
 10
232.308888
 20
217.210364
 30
0.0
 10
254.027888
 20
210.140364
 30
0.0
  0
LWPOLYLINE
  5
1f9
100
AcDbEntity
  8
text
 62
1
100
AcDbPolyline
 90
2
 70
0
 10
232.308888
 20
217.210364
 30
0.0
 10
253.019888
 20
207.108364
 30
0.0
  0
LWPOLYLINE
  5
1fa
100
AcDbEntity
  8
text
 62
1
100
AcDbPolyline
 90
2
 70
0
 10
232.308888
 20
217.210364
 30
0.0
 10
251.000888
 20
204.077364
 30
0.0
  0
LWPOLYLINE
  5
1fb
100
AcDbEntity
  8
text
 62
1
100
AcDbPolyline
 90
2
 70
0
 10
232.308888
 20
217.210364
 30
0.0
 10
248.976888
 20
201.550364
 30
0.0
  0
LWPOLYLINE
  5
1fc
100
AcDbEntity
  8
text
 62
1
100
AcDbPolyline
 90
2
 70
0
 10
232.308888
 20
217.210364
 30
0.0
 10
246.453888
 20
199.026364
 30
0.0
  0
SPLINE
  5
1fd
100
AcDbEntity
  8
text
 62
1
100
AcDbSpline
 70
8
 71
3
 72
8
 73
4
 74
0
 40
0
 40
0
 40
0
 40
0
 40
1
 40
1
 40
1
 40
1
 10
224.734888
 20
217.210364
 30
0.0
 10
224.734888
 20
221.753364
 30
0.0
 10
227.765888
 20
224.784364
 30
0.0
 10
232.308888
 20
224.784364
 30
0.0
  0
SPLINE
  5
1fe
100
AcDbEntity
  8
text
 62
1
100
AcDbSpline
 70
8
 71
3
 72
8
 73
4
 74
0
 40
0
 40
0
 40
0
 40
0
 40
1
 40
1
 40
1
 40
1
 10
232.308888
 20
224.784364
 30
0.0
 10
236.855888
 20
224.784364
 30
0.0
 10
239.886888
 20
221.753364
 30
0.0
 10
239.886888
 20
217.210364
 30
0.0
  0
SPLINE
  5
1ff
100
AcDbEntity
  8
text
 62
1
100
AcDbSpline
 70
8
 71
3
 72
8
 73
4
 74
0
 40
0
 40
0
 40
0
 40
0
 40
1
 40
1
 40
1
 40
1
 10
239.886888
 20
217.210364
 30
0.0
 10
239.886888
 20
212.663364
 30
0.0
 10
236.855888
 20
209.632364
 30
0.0
 10
232.308888
 20
209.632364
 30
0.0
  0
SPLINE
  5
200
100
AcDbEntity
  8
text
 62
1
100
AcDbSpline
 70
8
 71
3
 72
8
 73
4
 74
0
 40
0
 40
0
 40
0
 40
0
 40
1
 40
1
 40
1
 40
1
 10
232.308888
 20
209.632364
 30
0.0
 10
227.765888
 20
209.632364
 30
0.0
 10
224.734888
 20
212.663364
 30
0.0
 10
224.734888
 20
217.210364
 30
0.0
  0
LWPOLYLINE
  5
201
100
AcDbEntity
  8
text
 62
1
100
AcDbPolyline
 90
2
 70
0
 10
232.308888
 20
217.210364
 30
0.0
 10
243.925888
 20
197.511364
 30
0.0
  0
LWPOLYLINE
  5
202
100
AcDbEntity
  8
text
 62
1
100
AcDbPolyline
 90
2
 70
0
 10
229.281888
 20
217.210364
 30
0.0
 10
235.339888
 20
217.210364
 30
0.0
  0
SPLINE
  5
203
100
AcDbEntity
  8
text
 62
7
100
AcDbSpline
 70
8
 71
3
 72
8
 73
4
 74
0
 40
0
 40
0
 40
0
 40
0
 40
1
 40
1
 40
1
 40
1
 10
232.910888
 20
217.054364
 30
0.0
 10
232.910888
 20
216.718364
 30
0.0
 10
232.605888
 20
216.444364
 30
0.0
 10
232.230888
 20
216.444364
 30
0.0
  0
SPLINE
  5
204
100
AcDbEntity
  8
text
 62
7
100
AcDbSpline
 70
8
 71
3
 72
8
 73
4
 74
0
 40
0
 40
0
 40
0
 40
0
 40
1
 40
1
 40
1
 40
1
 10
232.230888
 20
216.444364
 30
0.0
 10
231.855888
 20
216.444364
 30
0.0
 10
231.550888
 20
216.718364
 30
0.0
 10
231.550888
 20
217.054364
 30
0.0
  0
SPLINE
  5
205
100
AcDbEntity
  8
text
 62
7
100
AcDbSpline
 70
8
 71
3
 72
8
 73
4
 74
0
 40
0
 40
0
 40
0
 40
0
 40
1
 40
1
 40
1
 40
1
 10
231.550888
 20
217.054364
 30
0.0
 10
231.550888
 20
217.394364
 30
0.0
 10
231.855888
 20
217.667364
 30
0.0
 10
232.230888
 20
217.667364
 30
0.0
  0
SPLINE
  5
206
100
AcDbEntity
  8
text
 62
7
100
AcDbSpline
 70
8
 71
3
 72
8
 73
4
 74
0
 40
0
 40
0
 40
0
 40
0
 40
1
 40
1
 40
1
 40
1
 10
232.230888
 20
217.667364
 30
0.0
 10
232.605888
 20
217.667364
 30
0.0
 10
232.910888
 20
217.394364
 30
0.0
 10
232.910888
 20
217.054364
 30
0.0
  0
LWPOLYLINE
  5
207
100
AcDbEntity
  8
text
 62
1
100
AcDbPolyline
 90
2
 70
0
 10
232.308888
 20
214.179364
 30
0.0
 10
232.308888
 20
220.241364
 30
0.0
  0
SPLINE
  5
208
100
AcDbEntity
  8
text
 62
1
100
AcDbSpline
 70
8
 71
3
 72
8
 73
4
 74
0
 40
0
 40
0
 40
0
 40
0
 40
1
 40
1
 40
1
 40
1
 10
203.973791
 20
259.881884
 30
0.0
 10
203.973791
 20
264.901884
 30
0.0
 10
207.321791
 20
268.248884
 30
0.0
 10
212.344791
 20
268.248884
 30
0.0
  0
SPLINE
  5
209
100
AcDbEntity
  8
text
 62
1
100
AcDbSpline
 70
8
 71
3
 72
8
 73
4
 74
0
 40
0
 40
0
 40
0
 40
0
 40
1
 40
1
 40
1
 40
1
 10
212.344791
 20
268.248884
 30
0.0
 10
217.364791
 20
268.248884
 30
0.0
 10
220.707791
 20
264.901884
 30
0.0
 10
220.707791
 20
259.881884
 30
0.0
  0
SPLINE
  5
20a
100
AcDbEntity
  8
text
 62
1
100
AcDbSpline
 70
8
 71
3
 72
8
 73
4
 74
0
 40
0
 40
0
 40
0
 40
0
 40
1
 40
1
 40
1
 40
1
 10
220.707791
 20
259.881884
 30
0.0
 10
220.707791
 20
254.862884
 30
0.0
 10
217.364791
 20
251.514884
 30
0.0
 10
212.344791
 20
251.514884
 30
0.0
  0
SPLINE
  5
20b
100
AcDbEntity
  8
text
 62
1
100
AcDbSpline
 70
8
 71
3
 72
8
 73
4
 74
0
 40
0
 40
0
 40
0
 40
0
 40
1
 40
1
 40
1
 40
1
 10
212.344791
 20
251.514884
 30
0.0
 10
207.321791
 20
251.514884
 30
0.0
 10
203.973791
 20
254.862884
 30
0.0
 10
203.973791
 20
259.881884
 30
0.0
  0
LWPOLYLINE
  5
20c
100
AcDbEntity
  8
text
 62
7
100
AcDbPolyline
 90
2
 70
1
 10
232.910888
 20
217.054364
 30
0.0
 10
232.910888
 20
217.054364
 30
0.0
  0
LWPOLYLINE
  5
20d
100
AcDbEntity
  8
text
 62
1
100
AcDbPolyline
 90
2
 70
0
 10
208.997791
 20
259.881884
 30
0.0
 10
215.688791
 20
259.881884
 30
0.0
  0
LWPOLYLINE
  5
20e
100
AcDbEntity
  8
text
 62
1
100
AcDbPolyline
 90
2
 70
0
 10
212.344791
 20
256.534884
 30
0.0
 10
212.344791
 20
263.229884
 30
0.0
  0
LWPOLYLINE
  5
20f
100
AcDbEntity
  8
text
 62
1
100
AcDbPolyline
 90
2
 70
0
 10
232.308432
 20
166.753644
 30
0.0
 10
219.683432
 20
144.022644
 30
0.0
  0
LWPOLYLINE
  5
210
100
AcDbEntity
  8
text
 62
1
100
AcDbPolyline
 90
2
 70
0
 10
232.308432
 20
166.753644
 30
0.0
 10
209.074432
 20
155.136644
 30
0.0
  0
LWPOLYLINE
  5
211
100
AcDbEntity
  8
text
 62
1
100
AcDbPolyline
 90
2
 70
0
 10
232.308432
 20
166.753644
 30
0.0
 10
206.550432
 20
169.784644
 30
0.0
  0
LWPOLYLINE
  5
212
100
AcDbEntity
  8
text
 62
1
100
AcDbPolyline
 90
2
 70
0
 10
232.308432
 20
166.753644
 30
0.0
 10
212.613432
 20
183.421644
 30
0.0
  0
LWPOLYLINE
  5
213
100
AcDbEntity
  8
text
 62
1
100
AcDbPolyline
 90
2
 70
0
 10
232.308432
 20
166.753644
 30
0.0
 10
225.238432
 20
191.503644
 30
0.0
  0
LWPOLYLINE
  5
214
100
AcDbEntity
  8
text
 62
1
100
AcDbPolyline
 90
2
 70
0
 10
232.308432
 20
166.753644
 30
0.0
 10
239.382432
 20
191.503644
 30
0.0
  0
LWPOLYLINE
  5
215
100
AcDbEntity
  8
text
 62
1
100
AcDbPolyline
 90
2
 70
0
 10
232.308432
 20
166.753644
 30
0.0
 10
252.007432
 20
183.421644
 30
0.0
  0
LWPOLYLINE
  5
216
100
AcDbEntity
  8
text
 62
1
100
AcDbPolyline
 90
2
 70
0
 10
232.308432
 20
166.753644
 30
0.0
 10
258.070432
 20
169.784644
 30
0.0
  0
LWPOLYLINE
  5
217
100
AcDbEntity
  8
text
 62
1
100
AcDbPolyline
 90
2
 70
0
 10
232.308432
 20
166.753644
 30
0.0
 10
255.543432
 20
155.136644
 30
0.0
  0
LWPOLYLINE
  5
218
100
AcDbEntity
  8
text
 62
1
100
AcDbPolyline
 90
2
 70
0
 10
232.308432
 20
166.753644
 30
0.0
 10
245.441432
 20
144.022644
 30
0.0
  0
LWPOLYLINE
  5
219
100
AcDbEntity
  8
text
 62
1
100
AcDbPolyline
 90
2
 70
0
 10
232.308432
 20
166.753644
 30
0.0
 10
221.199432
 20
147.054644
 30
0.0
  0
LWPOLYLINE
  5
21a
100
AcDbEntity
  8
text
 62
1
100
AcDbPolyline
 90
2
 70
0
 10
232.308432
 20
166.753644
 30
0.0
 10
218.168432
 20
148.569644
 30
0.0
  0
LWPOLYLINE
  5
21b
100
AcDbEntity
  8
text
 62
1
100
AcDbPolyline
 90
2
 70
0
 10
232.308432
 20
166.753644
 30
0.0
 10
215.640432
 20
151.093644
 30
0.0
  0
LWPOLYLINE
  5
21c
100
AcDbEntity
  8
text
 62
1
100
AcDbPolyline
 90
2
 70
0
 10
232.308432
 20
166.753644
 30
0.0
 10
213.621432
 20
153.620644
 30
0.0
  0
LWPOLYLINE
  5
21d
100
AcDbEntity
  8
text
 62
1
100
AcDbPolyline
 90
2
 70
0
 10
232.308432
 20
166.753644
 30
0.0
 10
211.601432
 20
156.651644
 30
0.0
  0
LWPOLYLINE
  5
21e
100
AcDbEntity
  8
text
 62
1
100
AcDbPolyline
 90
2
 70
0
 10
232.308432
 20
166.753644
 30
0.0
 10
210.589432
 20
159.683644
 30
0.0
  0
LWPOLYLINE
  5
21f
100
AcDbEntity
  8
text
 62
1
100
AcDbPolyline
 90
2
 70
0
 10
232.308432
 20
166.753644
 30
0.0
 10
209.582432
 20
163.218644
 30
0.0
  0
LWPOLYLINE
  5
220
100
AcDbEntity
  8
text
 62
1
100
AcDbPolyline
 90
2
 70
0
 10
232.308432
 20
166.753644
 30
0.0
 10
209.582432
 20
166.245644
 30
0.0
  0
LWPOLYLINE
  5
221
100
AcDbEntity
  8
text
 62
1
100
AcDbPolyline
 90
2
 70
0
 10
232.308432
 20
166.753644
 30
0.0
 10
209.582432
 20
169.276644
 30
0.0
  0
LWPOLYLINE
  5
222
100
AcDbEntity
  8
text
 62
1
100
AcDbPolyline
 90
2
 70
0
 10
232.308432
 20
166.753644
 30
0.0
 10
210.086432
 20
172.308644
 30
0.0
  0
LWPOLYLINE
  5
223
100
AcDbEntity
  8
text
 62
1
100
AcDbPolyline
 90
2
 70
0
 10
232.308432
 20
166.753644
 30
0.0
 10
211.097432
 20
175.843644
 30
0.0
  0
LWPOLYLINE
  5
224
100
AcDbEntity
  8
text
 62
1
100
AcDbPolyline
 90
2
 70
0
 10
232.308432
 20
166.753644
 30
0.0
 10
212.613432
 20
178.874644
 30
0.0
  0
LWPOLYLINE
  5
225
100
AcDbEntity
  8
text
 62
1
100
AcDbPolyline
 90
2
 70
0
 10
232.308432
 20
166.753644
 30
0.0
 10
214.632432
 20
181.401644
 30
0.0
  0
LWPOLYLINE
  5
226
100
AcDbEntity
  8
text
 62
1
100
AcDbPolyline
 90
2
 70
0
 10
232.308432
 20
166.753644
 30
0.0
 10
217.156432
 20
183.925644
 30
0.0
  0
LWPOLYLINE
  5
227
100
AcDbEntity
  8
text
 62
1
100
AcDbPolyline
 90
2
 70
0
 10
232.308432
 20
166.753644
 30
0.0
 10
219.683432
 20
185.944644
 30
0.0
  0
LWPOLYLINE
  5
228
100
AcDbEntity
  8
text
 62
1
100
AcDbPolyline
 90
2
 70
0
 10
232.308432
 20
166.753644
 30
0.0
 10
222.714432
 20
187.460644
 30
0.0
  0
LWPOLYLINE
  5
229
100
AcDbEntity
  8
text
 62
1
100
AcDbPolyline
 90
2
 70
0
 10
232.308432
 20
166.753644
 30
0.0
 10
225.742432
 20
188.976644
 30
0.0
  0
LWPOLYLINE
  5
22a
100
AcDbEntity
  8
text
 62
1
100
AcDbPolyline
 90
2
 70
0
 10
232.308432
 20
166.753644
 30
0.0
 10
229.281432
 20
189.480644
 30
0.0
  0
LWPOLYLINE
  5
22b
100
AcDbEntity
  8
text
 62
1
100
AcDbPolyline
 90
2
 70
0
 10
232.308432
 20
166.753644
 30
0.0
 10
232.308432
 20
189.987644
 30
0.0
  0
LWPOLYLINE
  5
22c
100
AcDbEntity
  8
text
 62
1
100
AcDbPolyline
 90
2
 70
0
 10
232.308432
 20
166.753644
 30
0.0
 10
235.339432
 20
189.480644
 30
0.0
  0
LWPOLYLINE
  5
22d
100
AcDbEntity
  8
text
 62
1
100
AcDbPolyline
 90
2
 70
0
 10
232.308432
 20
166.753644
 30
0.0
 10
238.875432
 20
188.976644
 30
0.0
  0
LWPOLYLINE
  5
22e
100
AcDbEntity
  8
text
 62
1
100
AcDbPolyline
 90
2
 70
0
 10
232.308432
 20
166.753644
 30
0.0
 10
241.906432
 20
187.460644
 30
0.0
  0
LWPOLYLINE
  5
22f
100
AcDbEntity
  8
text
 62
1
100
AcDbPolyline
 90
2
 70
0
 10
232.308432
 20
166.753644
 30
0.0
 10
244.937432
 20
185.944644
 30
0.0
  0
LWPOLYLINE
  5
230
100
AcDbEntity
  8
text
 62
1
100
AcDbPolyline
 90
2
 70
0
 10
232.308432
 20
166.753644
 30
0.0
 10
247.461432
 20
183.925644
 30
0.0
  0
LWPOLYLINE
  5
231
100
AcDbEntity
  8
text
 62
1
100
AcDbPolyline
 90
2
 70
0
 10
232.308432
 20
166.753644
 30
0.0
 10
249.988432
 20
181.401644
 30
0.0
  0
LWPOLYLINE
  5
232
100
AcDbEntity
  8
text
 62
1
100
AcDbPolyline
 90
2
 70
0
 10
232.308432
 20
166.753644
 30
0.0
 10
252.007432
 20
178.874644
 30
0.0
  0
LWPOLYLINE
  5
233
100
AcDbEntity
  8
text
 62
1
100
AcDbPolyline
 90
2
 70
0
 10
232.308432
 20
166.753644
 30
0.0
 10
253.523432
 20
175.843644
 30
0.0
  0
LWPOLYLINE
  5
234
100
AcDbEntity
  8
text
 62
1
100
AcDbPolyline
 90
2
 70
0
 10
232.308432
 20
166.753644
 30
0.0
 10
254.535432
 20
172.308644
 30
0.0
  0
LWPOLYLINE
  5
235
100
AcDbEntity
  8
text
 62
1
100
AcDbPolyline
 90
2
 70
0
 10
232.308432
 20
166.753644
 30
0.0
 10
255.039432
 20
169.276644
 30
0.0
  0
LWPOLYLINE
  5
236
100
AcDbEntity
  8
text
 62
1
100
AcDbPolyline
 90
2
 70
0
 10
232.308432
 20
166.753644
 30
0.0
 10
255.039432
 20
166.245644
 30
0.0
  0
LWPOLYLINE
  5
237
100
AcDbEntity
  8
text
 62
1
100
AcDbPolyline
 90
2
 70
0
 10
232.308432
 20
166.753644
 30
0.0
 10
255.039432
 20
163.218644
 30
0.0
  0
LWPOLYLINE
  5
238
100
AcDbEntity
  8
text
 62
1
100
AcDbPolyline
 90
2
 70
0
 10
232.308432
 20
166.753644
 30
0.0
 10
254.027432
 20
159.683644
 30
0.0
  0
LWPOLYLINE
  5
239
100
AcDbEntity
  8
text
 62
1
100
AcDbPolyline
 90
2
 70
0
 10
232.308432
 20
166.753644
 30
0.0
 10
253.019432
 20
156.651644
 30
0.0
  0
LWPOLYLINE
  5
23a
100
AcDbEntity
  8
text
 62
1
100
AcDbPolyline
 90
2
 70
0
 10
232.308432
 20
166.753644
 30
0.0
 10
251.000432
 20
153.620644
 30
0.0
  0
LWPOLYLINE
  5
23b
100
AcDbEntity
  8
text
 62
1
100
AcDbPolyline
 90
2
 70
0
 10
232.308432
 20
166.753644
 30
0.0
 10
248.976432
 20
151.093644
 30
0.0
  0
LWPOLYLINE
  5
23c
100
AcDbEntity
  8
text
 62
1
100
AcDbPolyline
 90
2
 70
0
 10
232.308432
 20
166.753644
 30
0.0
 10
246.453432
 20
148.569644
 30
0.0
  0
SPLINE
  5
23d
100
AcDbEntity
  8
text
 62
1
100
AcDbSpline
 70
8
 71
3
 72
8
 73
4
 74
0
 40
0
 40
0
 40
0
 40
0
 40
1
 40
1
 40
1
 40
1
 10
224.734432
 20
166.753644
 30
0.0
 10
224.734432
 20
171.296644
 30
0.0
 10
227.765432
 20
174.327644
 30
0.0
 10
232.308432
 20
174.327644
 30
0.0
  0
SPLINE
  5
23e
100
AcDbEntity
  8
text
 62
1
100
AcDbSpline
 70
8
 71
3
 72
8
 73
4
 74
0
 40
0
 40
0
 40
0
 40
0
 40
1
 40
1
 40
1
 40
1
 10
232.308432
 20
174.327644
 30
0.0
 10
236.855432
 20
174.327644
 30
0.0
 10
239.886432
 20
171.296644
 30
0.0
 10
239.886432
 20
166.753644
 30
0.0
  0
SPLINE
  5
23f
100
AcDbEntity
  8
text
 62
1
100
AcDbSpline
 70
8
 71
3
 72
8
 73
4
 74
0
 40
0
 40
0
 40
0
 40
0
 40
1
 40
1
 40
1
 40
1
 10
239.886432
 20
166.753644
 30
0.0
 10
239.886432
 20
162.206644
 30
0.0
 10
236.855432
 20
159.175644
 30
0.0
 10
232.308432
 20
159.175644
 30
0.0
  0
SPLINE
  5
240
100
AcDbEntity
  8
text
 62
1
100
AcDbSpline
 70
8
 71
3
 72
8
 73
4
 74
0
 40
0
 40
0
 40
0
 40
0
 40
1
 40
1
 40
1
 40
1
 10
232.308432
 20
159.175644
 30
0.0
 10
227.765432
 20
159.175644
 30
0.0
 10
224.734432
 20
162.206644
 30
0.0
 10
224.734432
 20
166.753644
 30
0.0
  0
LWPOLYLINE
  5
241
100
AcDbEntity
  8
text
 62
1
100
AcDbPolyline
 90
2
 70
0
 10
232.308432
 20
166.753644
 30
0.0
 10
243.925432
 20
147.054644
 30
0.0
  0
LWPOLYLINE
  5
242
100
AcDbEntity
  8
text
 62
1
100
AcDbPolyline
 90
2
 70
0
 10
229.281432
 20
166.753644
 30
0.0
 10
235.339432
 20
166.753644
 30
0.0
  0
SPLINE
  5
243
100
AcDbEntity
  8
text
 62
7
100
AcDbSpline
 70
8
 71
3
 72
8
 73
4
 74
0
 40
0
 40
0
 40
0
 40
0
 40
1
 40
1
 40
1
 40
1
 10
232.910432
 20
166.597644
 30
0.0
 10
232.910432
 20
166.261644
 30
0.0
 10
232.605432
 20
165.987644
 30
0.0
 10
232.230432
 20
165.987644
 30
0.0
  0
SPLINE
  5
244
100
AcDbEntity
  8
text
 62
7
100
AcDbSpline
 70
8
 71
3
 72
8
 73
4
 74
0
 40
0
 40
0
 40
0
 40
0
 40
1
 40
1
 40
1
 40
1
 10
232.230432
 20
165.987644
 30
0.0
 10
231.855432
 20
165.987644
 30
0.0
 10
231.550432
 20
166.261644
 30
0.0
 10
231.550432
 20
166.597644
 30
0.0
  0
SPLINE
  5
245
100
AcDbEntity
  8
text
 62
7
100
AcDbSpline
 70
8
 71
3
 72
8
 73
4
 74
0
 40
0
 40
0
 40
0
 40
0
 40
1
 40
1
 40
1
 40
1
 10
231.550432
 20
166.597644
 30
0.0
 10
231.550432
 20
166.937644
 30
0.0
 10
231.855432
 20
167.210644
 30
0.0
 10
232.230432
 20
167.210644
 30
0.0
  0
SPLINE
  5
246
100
AcDbEntity
  8
text
 62
7
100
AcDbSpline
 70
8
 71
3
 72
8
 73
4
 74
0
 40
0
 40
0
 40
0
 40
0
 40
1
 40
1
 40
1
 40
1
 10
232.230432
 20
167.210644
 30
0.0
 10
232.605432
 20
167.210644
 30
0.0
 10
232.910432
 20
166.937644
 30
0.0
 10
232.910432
 20
166.597644
 30
0.0
  0
LWPOLYLINE
  5
247
100
AcDbEntity
  8
text
 62
1
100
AcDbPolyline
 90
2
 70
0
 10
232.308432
 20
163.722644
 30
0.0
 10
232.308432
 20
169.784644
 30
0.0
  0
SPLINE
  5
248
100
AcDbEntity
  8
text
 62
1
100
AcDbSpline
 70
8
 71
3
 72
8
 73
4
 74
0
 40
0
 40
0
 40
0
 40
0
 40
1
 40
1
 40
1
 40
1
 10
203.973791
 20
296.165324
 30
0.0
 10
203.973791
 20
301.185324
 30
0.0
 10
207.321791
 20
304.532324
 30
0.0
 10
212.344791
 20
304.532324
 30
0.0
  0
SPLINE
  5
249
100
AcDbEntity
  8
text
 62
1
100
AcDbSpline
 70
8
 71
3
 72
8
 73
4
 74
0
 40
0
 40
0
 40
0
 40
0
 40
1
 40
1
 40
1
 40
1
 10
212.344791
 20
304.532324
 30
0.0
 10
217.364791
 20
304.532324
 30
0.0
 10
220.707791
 20
301.185324
 30
0.0
 10
220.707791
 20
296.165324
 30
0.0
  0
SPLINE
  5
24a
100
AcDbEntity
  8
text
 62
1
100
AcDbSpline
 70
8
 71
3
 72
8
 73
4
 74
0
 40
0
 40
0
 40
0
 40
0
 40
1
 40
1
 40
1
 40
1
 10
220.707791
 20
296.165324
 30
0.0
 10
220.707791
 20
291.146324
 30
0.0
 10
217.364791
 20
287.798324
 30
0.0
 10
212.344791
 20
287.798324
 30
0.0
  0
SPLINE
  5
24b
100
AcDbEntity
  8
text
 62
1
100
AcDbSpline
 70
8
 71
3
 72
8
 73
4
 74
0
 40
0
 40
0
 40
0
 40
0
 40
1
 40
1
 40
1
 40
1
 10
212.344791
 20
287.798324
 30
0.0
 10
207.321791
 20
287.798324
 30
0.0
 10
203.973791
 20
291.146324
 30
0.0
 10
203.973791
 20
296.165324
 30
0.0
  0
LWPOLYLINE
  5
24c
100
AcDbEntity
  8
text
 62
7
100
AcDbPolyline
 90
2
 70
1
 10
232.910432
 20
166.597644
 30
0.0
 10
232.910432
 20
166.597644
 30
0.0
  0
LWPOLYLINE
  5
24d
100
AcDbEntity
  8
text
 62
1
100
AcDbPolyline
 90
2
 70
0
 10
208.997791
 20
296.165324
 30
0.0
 10
215.688791
 20
296.165324
 30
0.0
  0
SPLINE
  5
24e
100
AcDbEntity
  8
text
 62
1
100
AcDbSpline
 70
8
 71
3
 72
8
 73
4
 74
0
 40
0
 40
0
 40
0
 40
0
 40
1
 40
1
 40
1
 40
1
 10
309.572685
 20
123.247964
 30
0.0
 10
309.572685
 20
128.271964
 30
0.0
 10
312.920685
 20
131.614964
 30
0.0
 10
317.943685
 20
131.614964
 30
0.0
  0
SPLINE
  5
24f
100
AcDbEntity
  8
text
 62
1
100
AcDbSpline
 70
8
 71
3
 72
8
 73
4
 74
0
 40
0
 40
0
 40
0
 40
0
 40
1
 40
1
 40
1
 40
1
 10
317.943685
 20
131.614964
 30
0.0
 10
322.963685
 20
131.614964
 30
0.0
 10
326.306685
 20
128.271964
 30
0.0
 10
326.306685
 20
123.247964
 30
0.0
  0
SPLINE
  5
250
100
AcDbEntity
  8
text
 62
1
100
AcDbSpline
 70
8
 71
3
 72
8
 73
4
 74
0
 40
0
 40
0
 40
0
 40
0
 40
1
 40
1
 40
1
 40
1
 10
326.306685
 20
123.247964
 30
0.0
 10
326.306685
 20
118.232964
 30
0.0
 10
322.963685
 20
114.884964
 30
0.0
 10
317.943685
 20
114.884964
 30
0.0
  0
SPLINE
  5
251
100
AcDbEntity
  8
text
 62
1
100
AcDbSpline
 70
8
 71
3
 72
8
 73
4
 74
0
 40
0
 40
0
 40
0
 40
0
 40
1
 40
1
 40
1
 40
1
 10
317.943685
 20
114.884964
 30
0.0
 10
312.920685
 20
114.884964
 30
0.0
 10
309.572685
 20
118.232964
 30
0.0
 10
309.572685
 20
123.247964
 30
0.0
  0
LWPOLYLINE
  5
252
100
AcDbEntity
  8
text
 62
1
100
AcDbPolyline
 90
2
 70
0
 10
212.344791
 20
292.818324
 30
0.0
 10
212.344791
 20
299.513324
 30
0.0
  0
LWPOLYLINE
  5
253
100
AcDbEntity
  8
text
 62
1
100
AcDbPolyline
 90
2
 70
0
 10
314.596685
 20
123.247964
 30
0.0
 10
321.287685
 20
123.247964
 30
0.0
  0
LWPOLYLINE
  5
254
100
AcDbEntity
  8
text
 62
1
100
AcDbPolyline
 90
2
 70
0
 10
317.943685
 20
119.903964
 30
0.0
 10
317.943685
 20
126.599964
 30
0.0
  0
SPLINE
  5
255
100
AcDbEntity
  8
text
 62
1
100
AcDbSpline
 70
8
 71
3
 72
8
 73
4
 74
0
 40
0
 40
0
 40
0
 40
0
 40
1
 40
1
 40
1
 40
1
 10
370.683702
 20
379.060548
 30
0.0
 10
370.683702
 20
378.685548
 30
0.0
 10
370.347702
 20
378.381548
 30
0.0
 10
369.933702
 20
378.381548
 30
0.0
  0
SPLINE
  5
256
100
AcDbEntity
  8
text
 62
1
100
AcDbSpline
 70
8
 71
3
 72
8
 73
4
 74
0
 40
0
 40
0
 40
0
 40
0
 40
1
 40
1
 40
1
 40
1
 10
369.933702
 20
378.381548
 30
0.0
 10
369.518702
 20
378.381548
 30
0.0
 10
369.186702
 20
378.685548
 30
0.0
 10
369.186702
 20
379.060548
 30
0.0
  0
SPLINE
  5
257
100
AcDbEntity
  8
text
 62
1
100
AcDbSpline
 70
8
 71
3
 72
8
 73
4
 74
0
 40
0
 40
0
 40
0
 40
0
 40
1
 40
1
 40
1
 40
1
 10
369.186702
 20
379.060548
 30
0.0
 10
369.186702
 20
379.435548
 30
0.0
 10
369.518702
 20
379.740548
 30
0.0
 10
369.933702
 20
379.740548
 30
0.0
  0
SPLINE
  5
258
100
AcDbEntity
  8
text
 62
1
100
AcDbSpline
 70
8
 71
3
 72
8
 73
4
 74
0
 40
0
 40
0
 40
0
 40
0
 40
1
 40
1
 40
1
 40
1
 10
369.933702
 20
379.740548
 30
0.0
 10
370.347702
 20
379.740548
 30
0.0
 10
370.683702
 20
379.435548
 30
0.0
 10
370.683702
 20
379.060548
 30
0.0
  0
LWPOLYLINE
  5
259
100
AcDbEntity
  8
text
 62
1
100
AcDbPolyline
 90
6
 70
0
 10
319.748158
 20
24.969874
 30
0.0
 10
287.056425
 20
24.969874
 30
0.0
 10
287.056425
 20
388.982099
 30
0.0
 10
377.583568
 20
388.982099
 30
0.0
 10
377.583568
 20
24.969874
 30
0.0
 10
287.056425
 20
24.969874
 30
0.0
  0
SPLINE
  5
25a
100
AcDbEntity
  8
text
 62
1
100
AcDbSpline
 70
8
 71
3
 72
8
 73
4
 74
0
 40
0
 40
0
 40
0
 40
0
 40
1
 40
1
 40
1
 40
1
 10
312.368600
 20
33.574548
 30
0.0
 10
312.368600
 20
33.312548
 30
0.0
 10
312.094600
 20
33.097548
 30
0.0
 10
311.755600
 20
33.097548
 30
0.0
  0
SPLINE
  5
25b
100
AcDbEntity
  8
text
 62
1
100
AcDbSpline
 70
8
 71
3
 72
8
 73
4
 74
0
 40
0
 40
0
 40
0
 40
0
 40
1
 40
1
 40
1
 40
1
 10
311.755600
 20
33.097548
 30
0.0
 10
311.419600
 20
33.097548
 30
0.0
 10
311.141600
 20
33.312548
 30
0.0
 10
311.141600
 20
33.574548
 30
0.0
  0
SPLINE
  5
25c
100
AcDbEntity
  8
text
 62
1
100
AcDbSpline
 70
8
 71
3
 72
8
 73
4
 74
0
 40
0
 40
0
 40
0
 40
0
 40
1
 40
1
 40
1
 40
1
 10
311.141600
 20
33.574548
 30
0.0
 10
311.141600
 20
33.835548
 30
0.0
 10
311.419600
 20
34.050548
 30
0.0
 10
311.755600
 20
34.050548
 30
0.0
  0
SPLINE
  5
25d
100
AcDbEntity
  8
text
 62
1
100
AcDbSpline
 70
8
 71
3
 72
8
 73
4
 74
0
 40
0
 40
0
 40
0
 40
0
 40
1
 40
1
 40
1
 40
1
 10
311.755600
 20
34.050548
 30
0.0
 10
312.094600
 20
34.050548
 30
0.0
 10
312.368600
 20
33.835548
 30
0.0
 10
312.368600
 20
33.574548
 30
0.0
  0
LWPOLYLINE
  5
25e
100
AcDbEntity
  8
text
 62
1
100
AcDbPolyline
 90
2
 70
1
 10
370.683702
 20
379.060548
 30
0.0
 10
370.683702
 20
379.060548
 30
0.0
  0
LWPOLYLINE
  5
25f
100
AcDbEntity
  8
text
 62
1
100
AcDbPolyline
 90
2
 70
1
 10
312.368600
 20
33.574548
 30
0.0
 10
312.368600
 20
33.574548
 30
0.0
  0
LWPOLYLINE
  5
260
100
AcDbEntity
  8
text
 62
1
100
AcDbPolyline
 90
2
 70
0
 10
337.908888
 20
217.210364
 30
0.0
 10
325.283888
 20
194.479364
 30
0.0
  0
LWPOLYLINE
  5
261
100
AcDbEntity
  8
text
 62
1
100
AcDbPolyline
 90
2
 70
0
 10
337.908888
 20
217.210364
 30
0.0
 10
314.674888
 20
205.593364
 30
0.0
  0
LWPOLYLINE
  5
262
100
AcDbEntity
  8
text
 62
1
100
AcDbPolyline
 90
2
 70
0
 10
337.908888
 20
217.210364
 30
0.0
 10
312.150888
 20
220.241364
 30
0.0
  0
LWPOLYLINE
  5
263
100
AcDbEntity
  8
text
 62
1
100
AcDbPolyline
 90
2
 70
0
 10
337.908888
 20
217.210364
 30
0.0
 10
318.213888
 20
233.878364
 30
0.0
  0
LWPOLYLINE
  5
264
100
AcDbEntity
  8
text
 62
1
100
AcDbPolyline
 90
2
 70
0
 10
337.908888
 20
217.210364
 30
0.0
 10
330.838888
 20
241.960364
 30
0.0
  0
LWPOLYLINE
  5
265
100
AcDbEntity
  8
text
 62
1
100
AcDbPolyline
 90
2
 70
0
 10
337.908888
 20
217.210364
 30
0.0
 10
344.982888
 20
241.960364
 30
0.0
  0
LWPOLYLINE
  5
266
100
AcDbEntity
  8
text
 62
1
100
AcDbPolyline
 90
2
 70
0
 10
337.908888
 20
217.210364
 30
0.0
 10
357.607888
 20
233.878364
 30
0.0
  0
LWPOLYLINE
  5
267
100
AcDbEntity
  8
text
 62
1
100
AcDbPolyline
 90
2
 70
0
 10
337.908888
 20
217.210364
 30
0.0
 10
363.670888
 20
220.241364
 30
0.0
  0
LWPOLYLINE
  5
268
100
AcDbEntity
  8
text
 62
1
100
AcDbPolyline
 90
2
 70
0
 10
337.908888
 20
217.210364
 30
0.0
 10
361.143888
 20
205.593364
 30
0.0
  0
LWPOLYLINE
  5
269
100
AcDbEntity
  8
text
 62
1
100
AcDbPolyline
 90
2
 70
0
 10
337.908888
 20
217.210364
 30
0.0
 10
351.041888
 20
194.479364
 30
0.0
  0
LWPOLYLINE
  5
26a
100
AcDbEntity
  8
text
 62
1
100
AcDbPolyline
 90
2
 70
0
 10
337.908888
 20
217.210364
 30
0.0
 10
326.799888
 20
197.511364
 30
0.0
  0
LWPOLYLINE
  5
26b
100
AcDbEntity
  8
text
 62
1
100
AcDbPolyline
 90
2
 70
0
 10
337.908888
 20
217.210364
 30
0.0
 10
323.768888
 20
199.026364
 30
0.0
  0
LWPOLYLINE
  5
26c
100
AcDbEntity
  8
text
 62
1
100
AcDbPolyline
 90
2
 70
0
 10
337.908888
 20
217.210364
 30
0.0
 10
321.240888
 20
201.550364
 30
0.0
  0
LWPOLYLINE
  5
26d
100
AcDbEntity
  8
text
 62
1
100
AcDbPolyline
 90
2
 70
0
 10
337.908888
 20
217.210364
 30
0.0
 10
319.221888
 20
204.077364
 30
0.0
  0
LWPOLYLINE
  5
26e
100
AcDbEntity
  8
text
 62
1
100
AcDbPolyline
 90
2
 70
0
 10
337.908888
 20
217.210364
 30
0.0
 10
317.201888
 20
207.108364
 30
0.0
  0
LWPOLYLINE
  5
26f
100
AcDbEntity
  8
text
 62
1
100
AcDbPolyline
 90
2
 70
0
 10
337.908888
 20
217.210364
 30
0.0
 10
316.189888
 20
210.140364
 30
0.0
  0
LWPOLYLINE
  5
270
100
AcDbEntity
  8
text
 62
1
100
AcDbPolyline
 90
2
 70
0
 10
337.908888
 20
217.210364
 30
0.0
 10
315.182888
 20
213.675364
 30
0.0
  0
LWPOLYLINE
  5
271
100
AcDbEntity
  8
text
 62
1
100
AcDbPolyline
 90
2
 70
0
 10
337.908888
 20
217.210364
 30
0.0
 10
315.182888
 20
216.702364
 30
0.0
  0
LWPOLYLINE
  5
272
100
AcDbEntity
  8
text
 62
1
100
AcDbPolyline
 90
2
 70
0
 10
337.908888
 20
217.210364
 30
0.0
 10
315.182888
 20
219.733364
 30
0.0
  0
LWPOLYLINE
  5
273
100
AcDbEntity
  8
text
 62
1
100
AcDbPolyline
 90
2
 70
0
 10
337.908888
 20
217.210364
 30
0.0
 10
315.686888
 20
222.765364
 30
0.0
  0
LWPOLYLINE
  5
274
100
AcDbEntity
  8
text
 62
1
100
AcDbPolyline
 90
2
 70
0
 10
337.908888
 20
217.210364
 30
0.0
 10
316.697888
 20
226.300364
 30
0.0
  0
LWPOLYLINE
  5
275
100
AcDbEntity
  8
text
 62
1
100
AcDbPolyline
 90
2
 70
0
 10
337.908888
 20
217.210364
 30
0.0
 10
318.213888
 20
229.331364
 30
0.0
  0
LWPOLYLINE
  5
276
100
AcDbEntity
  8
text
 62
1
100
AcDbPolyline
 90
2
 70
0
 10
337.908888
 20
217.210364
 30
0.0
 10
320.232888
 20
231.858364
 30
0.0
  0
LWPOLYLINE
  5
277
100
AcDbEntity
  8
text
 62
1
100
AcDbPolyline
 90
2
 70
0
 10
337.908888
 20
217.210364
 30
0.0
 10
322.756888
 20
234.382364
 30
0.0
  0
LWPOLYLINE
  5
278
100
AcDbEntity
  8
text
 62
1
100
AcDbPolyline
 90
2
 70
0
 10
337.908888
 20
217.210364
 30
0.0
 10
325.283888
 20
236.401364
 30
0.0
  0
LWPOLYLINE
  5
279
100
AcDbEntity
  8
text
 62
1
100
AcDbPolyline
 90
2
 70
0
 10
337.908888
 20
217.210364
 30
0.0
 10
328.314888
 20
237.917364
 30
0.0
  0
LWPOLYLINE
  5
27a
100
AcDbEntity
  8
text
 62
1
100
AcDbPolyline
 90
2
 70
0
 10
337.908888
 20
217.210364
 30
0.0
 10
331.342888
 20
239.433364
 30
0.0
  0
LWPOLYLINE
  5
27b
100
AcDbEntity
  8
text
 62
1
100
AcDbPolyline
 90
2
 70
0
 10
337.908888
 20
217.210364
 30
0.0
 10
334.881888
 20
239.937364
 30
0.0
  0
LWPOLYLINE
  5
27c
100
AcDbEntity
  8
text
 62
1
100
AcDbPolyline
 90
2
 70
0
 10
337.908888
 20
217.210364
 30
0.0
 10
337.908888
 20
240.444364
 30
0.0
  0
LWPOLYLINE
  5
27d
100
AcDbEntity
  8
text
 62
1
100
AcDbPolyline
 90
2
 70
0
 10
337.908888
 20
217.210364
 30
0.0
 10
340.939888
 20
239.937364
 30
0.0
  0
LWPOLYLINE
  5
27e
100
AcDbEntity
  8
text
 62
1
100
AcDbPolyline
 90
2
 70
0
 10
337.908888
 20
217.210364
 30
0.0
 10
344.475888
 20
239.433364
 30
0.0
  0
LWPOLYLINE
  5
27f
100
AcDbEntity
  8
text
 62
1
100
AcDbPolyline
 90
2
 70
0
 10
337.908888
 20
217.210364
 30
0.0
 10
347.506888
 20
237.917364
 30
0.0
  0
LWPOLYLINE
  5
280
100
AcDbEntity
  8
text
 62
1
100
AcDbPolyline
 90
2
 70
0
 10
337.908888
 20
217.210364
 30
0.0
 10
350.537888
 20
236.401364
 30
0.0
  0
LWPOLYLINE
  5
281
100
AcDbEntity
  8
text
 62
1
100
AcDbPolyline
 90
2
 70
0
 10
337.908888
 20
217.210364
 30
0.0
 10
353.061888
 20
234.382364
 30
0.0
  0
LWPOLYLINE
  5
282
100
AcDbEntity
  8
text
 62
1
100
AcDbPolyline
 90
2
 70
0
 10
337.908888
 20
217.210364
 30
0.0
 10
355.588888
 20
231.858364
 30
0.0
  0
LWPOLYLINE
  5
283
100
AcDbEntity
  8
text
 62
1
100
AcDbPolyline
 90
2
 70
0
 10
337.908888
 20
217.210364
 30
0.0
 10
357.607888
 20
229.331364
 30
0.0
  0
LWPOLYLINE
  5
284
100
AcDbEntity
  8
text
 62
1
100
AcDbPolyline
 90
2
 70
0
 10
337.908888
 20
217.210364
 30
0.0
 10
359.123888
 20
226.300364
 30
0.0
  0
LWPOLYLINE
  5
285
100
AcDbEntity
  8
text
 62
1
100
AcDbPolyline
 90
2
 70
0
 10
337.908888
 20
217.210364
 30
0.0
 10
360.135888
 20
222.765364
 30
0.0
  0
LWPOLYLINE
  5
286
100
AcDbEntity
  8
text
 62
1
100
AcDbPolyline
 90
2
 70
0
 10
337.908888
 20
217.210364
 30
0.0
 10
360.639888
 20
219.733364
 30
0.0
  0
LWPOLYLINE
  5
287
100
AcDbEntity
  8
text
 62
1
100
AcDbPolyline
 90
2
 70
0
 10
337.908888
 20
217.210364
 30
0.0
 10
360.639888
 20
216.702364
 30
0.0
  0
LWPOLYLINE
  5
288
100
AcDbEntity
  8
text
 62
1
100
AcDbPolyline
 90
2
 70
0
 10
337.908888
 20
217.210364
 30
0.0
 10
360.639888
 20
213.675364
 30
0.0
  0
LWPOLYLINE
  5
289
100
AcDbEntity
  8
text
 62
1
100
AcDbPolyline
 90
2
 70
0
 10
337.908888
 20
217.210364
 30
0.0
 10
359.627888
 20
210.140364
 30
0.0
  0
LWPOLYLINE
  5
28a
100
AcDbEntity
  8
text
 62
1
100
AcDbPolyline
 90
2
 70
0
 10
337.908888
 20
217.210364
 30
0.0
 10
358.619888
 20
207.108364
 30
0.0
  0
LWPOLYLINE
  5
28b
100
AcDbEntity
  8
text
 62
1
100
AcDbPolyline
 90
2
 70
0
 10
337.908888
 20
217.210364
 30
0.0
 10
356.600888
 20
204.077364
 30
0.0
  0
LWPOLYLINE
  5
28c
100
AcDbEntity
  8
text
 62
1
100
AcDbPolyline
 90
2
 70
0
 10
337.908888
 20
217.210364
 30
0.0
 10
354.576888
 20
201.550364
 30
0.0
  0
LWPOLYLINE
  5
28d
100
AcDbEntity
  8
text
 62
1
100
AcDbPolyline
 90
2
 70
0
 10
337.908888
 20
217.210364
 30
0.0
 10
352.053888
 20
199.026364
 30
0.0
  0
SPLINE
  5
28e
100
AcDbEntity
  8
text
 62
1
100
AcDbSpline
 70
8
 71
3
 72
8
 73
4
 74
0
 40
0
 40
0
 40
0
 40
0
 40
1
 40
1
 40
1
 40
1
 10
330.334888
 20
217.210364
 30
0.0
 10
330.334888
 20
221.753364
 30
0.0
 10
333.365888
 20
224.784364
 30
0.0
 10
337.908888
 20
224.784364
 30
0.0
  0
SPLINE
  5
28f
100
AcDbEntity
  8
text
 62
1
100
AcDbSpline
 70
8
 71
3
 72
8
 73
4
 74
0
 40
0
 40
0
 40
0
 40
0
 40
1
 40
1
 40
1
 40
1
 10
337.908888
 20
224.784364
 30
0.0
 10
342.455888
 20
224.784364
 30
0.0
 10
345.486888
 20
221.753364
 30
0.0
 10
345.486888
 20
217.210364
 30
0.0
  0
SPLINE
  5
290
100
AcDbEntity
  8
text
 62
1
100
AcDbSpline
 70
8
 71
3
 72
8
 73
4
 74
0
 40
0
 40
0
 40
0
 40
0
 40
1
 40
1
 40
1
 40
1
 10
345.486888
 20
217.210364
 30
0.0
 10
345.486888
 20
212.663364
 30
0.0
 10
342.455888
 20
209.632364
 30
0.0
 10
337.908888
 20
209.632364
 30
0.0
  0
SPLINE
  5
291
100
AcDbEntity
  8
text
 62
1
100
AcDbSpline
 70
8
 71
3
 72
8
 73
4
 74
0
 40
0
 40
0
 40
0
 40
0
 40
1
 40
1
 40
1
 40
1
 10
337.908888
 20
209.632364
 30
0.0
 10
333.365888
 20
209.632364
 30
0.0
 10
330.334888
 20
212.663364
 30
0.0
 10
330.334888
 20
217.210364
 30
0.0
  0
LWPOLYLINE
  5
292
100
AcDbEntity
  8
text
 62
1
100
AcDbPolyline
 90
2
 70
0
 10
337.908888
 20
217.210364
 30
0.0
 10
349.525888
 20
197.511364
 30
0.0
  0
LWPOLYLINE
  5
293
100
AcDbEntity
  8
text
 62
1
100
AcDbPolyline
 90
2
 70
0
 10
334.881888
 20
217.210364
 30
0.0
 10
340.939888
 20
217.210364
 30
0.0
  0
SPLINE
  5
294
100
AcDbEntity
  8
text
 62
7
100
AcDbSpline
 70
8
 71
3
 72
8
 73
4
 74
0
 40
0
 40
0
 40
0
 40
0
 40
1
 40
1
 40
1
 40
1
 10
338.510888
 20
217.054364
 30
0.0
 10
338.510888
 20
216.718364
 30
0.0
 10
338.205888
 20
216.444364
 30
0.0
 10
337.830888
 20
216.444364
 30
0.0
  0
SPLINE
  5
295
100
AcDbEntity
  8
text
 62
7
100
AcDbSpline
 70
8
 71
3
 72
8
 73
4
 74
0
 40
0
 40
0
 40
0
 40
0
 40
1
 40
1
 40
1
 40
1
 10
337.830888
 20
216.444364
 30
0.0
 10
337.455888
 20
216.444364
 30
0.0
 10
337.150888
 20
216.718364
 30
0.0
 10
337.150888
 20
217.054364
 30
0.0
  0
SPLINE
  5
296
100
AcDbEntity
  8
text
 62
7
100
AcDbSpline
 70
8
 71
3
 72
8
 73
4
 74
0
 40
0
 40
0
 40
0
 40
0
 40
1
 40
1
 40
1
 40
1
 10
337.150888
 20
217.054364
 30
0.0
 10
337.150888
 20
217.394364
 30
0.0
 10
337.455888
 20
217.667364
 30
0.0
 10
337.830888
 20
217.667364
 30
0.0
  0
SPLINE
  5
297
100
AcDbEntity
  8
text
 62
7
100
AcDbSpline
 70
8
 71
3
 72
8
 73
4
 74
0
 40
0
 40
0
 40
0
 40
0
 40
1
 40
1
 40
1
 40
1
 10
337.830888
 20
217.667364
 30
0.0
 10
338.205888
 20
217.667364
 30
0.0
 10
338.510888
 20
217.394364
 30
0.0
 10
338.510888
 20
217.054364
 30
0.0
  0
LWPOLYLINE
  5
298
100
AcDbEntity
  8
text
 62
1
100
AcDbPolyline
 90
2
 70
0
 10
337.908888
 20
214.179364
 30
0.0
 10
337.908888
 20
220.241364
 30
0.0
  0
SPLINE
  5
299
100
AcDbEntity
  8
text
 62
1
100
AcDbSpline
 70
8
 71
3
 72
8
 73
4
 74
0
 40
0
 40
0
 40
0
 40
0
 40
1
 40
1
 40
1
 40
1
 10
309.573791
 20
259.881884
 30
0.0
 10
309.573791
 20
264.901884
 30
0.0
 10
312.921791
 20
268.248884
 30
0.0
 10
317.944791
 20
268.248884
 30
0.0
  0
SPLINE
  5
29a
100
AcDbEntity
  8
text
 62
1
100
AcDbSpline
 70
8
 71
3
 72
8
 73
4
 74
0
 40
0
 40
0
 40
0
 40
0
 40
1
 40
1
 40
1
 40
1
 10
317.944791
 20
268.248884
 30
0.0
 10
322.964791
 20
268.248884
 30
0.0
 10
326.307791
 20
264.901884
 30
0.0
 10
326.307791
 20
259.881884
 30
0.0
  0
SPLINE
  5
29b
100
AcDbEntity
  8
text
 62
1
100
AcDbSpline
 70
8
 71
3
 72
8
 73
4
 74
0
 40
0
 40
0
 40
0
 40
0
 40
1
 40
1
 40
1
 40
1
 10
326.307791
 20
259.881884
 30
0.0
 10
326.307791
 20
254.862884
 30
0.0
 10
322.964791
 20
251.514884
 30
0.0
 10
317.944791
 20
251.514884
 30
0.0
  0
SPLINE
  5
29c
100
AcDbEntity
  8
text
 62
1
100
AcDbSpline
 70
8
 71
3
 72
8
 73
4
 74
0
 40
0
 40
0
 40
0
 40
0
 40
1
 40
1
 40
1
 40
1
 10
317.944791
 20
251.514884
 30
0.0
 10
312.921791
 20
251.514884
 30
0.0
 10
309.573791
 20
254.862884
 30
0.0
 10
309.573791
 20
259.881884
 30
0.0
  0
LWPOLYLINE
  5
29d
100
AcDbEntity
  8
text
 62
7
100
AcDbPolyline
 90
2
 70
1
 10
338.510888
 20
217.054364
 30
0.0
 10
338.510888
 20
217.054364
 30
0.0
  0
LWPOLYLINE
  5
29e
100
AcDbEntity
  8
text
 62
1
100
AcDbPolyline
 90
2
 70
0
 10
314.597791
 20
259.881884
 30
0.0
 10
321.288791
 20
259.881884
 30
0.0
  0
LWPOLYLINE
  5
29f
100
AcDbEntity
  8
text
 62
1
100
AcDbPolyline
 90
2
 70
0
 10
317.944791
 20
256.534884
 30
0.0
 10
317.944791
 20
263.229884
 30
0.0
  0
LWPOLYLINE
  5
2a0
100
AcDbEntity
  8
text
 62
1
100
AcDbPolyline
 90
2
 70
0
 10
337.908432
 20
166.753644
 30
0.0
 10
325.283432
 20
144.022644
 30
0.0
  0
LWPOLYLINE
  5
2a1
100
AcDbEntity
  8
text
 62
1
100
AcDbPolyline
 90
2
 70
0
 10
337.908432
 20
166.753644
 30
0.0
 10
314.674432
 20
155.136644
 30
0.0
  0
LWPOLYLINE
  5
2a2
100
AcDbEntity
  8
text
 62
1
100
AcDbPolyline
 90
2
 70
0
 10
337.908432
 20
166.753644
 30
0.0
 10
312.150432
 20
169.784644
 30
0.0
  0
LWPOLYLINE
  5
2a3
100
AcDbEntity
  8
text
 62
1
100
AcDbPolyline
 90
2
 70
0
 10
337.908432
 20
166.753644
 30
0.0
 10
318.213432
 20
183.421644
 30
0.0
  0
LWPOLYLINE
  5
2a4
100
AcDbEntity
  8
text
 62
1
100
AcDbPolyline
 90
2
 70
0
 10
337.908432
 20
166.753644
 30
0.0
 10
330.838432
 20
191.503644
 30
0.0
  0
LWPOLYLINE
  5
2a5
100
AcDbEntity
  8
text
 62
1
100
AcDbPolyline
 90
2
 70
0
 10
337.908432
 20
166.753644
 30
0.0
 10
344.982432
 20
191.503644
 30
0.0
  0
LWPOLYLINE
  5
2a6
100
AcDbEntity
  8
text
 62
1
100
AcDbPolyline
 90
2
 70
0
 10
337.908432
 20
166.753644
 30
0.0
 10
357.607432
 20
183.421644
 30
0.0
  0
LWPOLYLINE
  5
2a7
100
AcDbEntity
  8
text
 62
1
100
AcDbPolyline
 90
2
 70
0
 10
337.908432
 20
166.753644
 30
0.0
 10
363.670432
 20
169.784644
 30
0.0
  0
LWPOLYLINE
  5
2a8
100
AcDbEntity
  8
text
 62
1
100
AcDbPolyline
 90
2
 70
0
 10
337.908432
 20
166.753644
 30
0.0
 10
361.143432
 20
155.136644
 30
0.0
  0
LWPOLYLINE
  5
2a9
100
AcDbEntity
  8
text
 62
1
100
AcDbPolyline
 90
2
 70
0
 10
337.908432
 20
166.753644
 30
0.0
 10
351.041432
 20
144.022644
 30
0.0
  0
LWPOLYLINE
  5
2aa
100
AcDbEntity
  8
text
 62
1
100
AcDbPolyline
 90
2
 70
0
 10
337.908432
 20
166.753644
 30
0.0
 10
326.799432
 20
147.054644
 30
0.0
  0
LWPOLYLINE
  5
2ab
100
AcDbEntity
  8
text
 62
1
100
AcDbPolyline
 90
2
 70
0
 10
337.908432
 20
166.753644
 30
0.0
 10
323.768432
 20
148.569644
 30
0.0
  0
LWPOLYLINE
  5
2ac
100
AcDbEntity
  8
text
 62
1
100
AcDbPolyline
 90
2
 70
0
 10
337.908432
 20
166.753644
 30
0.0
 10
321.240432
 20
151.093644
 30
0.0
  0
LWPOLYLINE
  5
2ad
100
AcDbEntity
  8
text
 62
1
100
AcDbPolyline
 90
2
 70
0
 10
337.908432
 20
166.753644
 30
0.0
 10
319.221432
 20
153.620644
 30
0.0
  0
LWPOLYLINE
  5
2ae
100
AcDbEntity
  8
text
 62
1
100
AcDbPolyline
 90
2
 70
0
 10
337.908432
 20
166.753644
 30
0.0
 10
317.201432
 20
156.651644
 30
0.0
  0
LWPOLYLINE
  5
2af
100
AcDbEntity
  8
text
 62
1
100
AcDbPolyline
 90
2
 70
0
 10
337.908432
 20
166.753644
 30
0.0
 10
316.189432
 20
159.683644
 30
0.0
  0
LWPOLYLINE
  5
2b0
100
AcDbEntity
  8
text
 62
1
100
AcDbPolyline
 90
2
 70
0
 10
337.908432
 20
166.753644
 30
0.0
 10
315.182432
 20
163.218644
 30
0.0
  0
LWPOLYLINE
  5
2b1
100
AcDbEntity
  8
text
 62
1
100
AcDbPolyline
 90
2
 70
0
 10
337.908432
 20
166.753644
 30
0.0
 10
315.182432
 20
166.245644
 30
0.0
  0
LWPOLYLINE
  5
2b2
100
AcDbEntity
  8
text
 62
1
100
AcDbPolyline
 90
2
 70
0
 10
337.908432
 20
166.753644
 30
0.0
 10
315.182432
 20
169.276644
 30
0.0
  0
LWPOLYLINE
  5
2b3
100
AcDbEntity
  8
text
 62
1
100
AcDbPolyline
 90
2
 70
0
 10
337.908432
 20
166.753644
 30
0.0
 10
315.686432
 20
172.308644
 30
0.0
  0
LWPOLYLINE
  5
2b4
100
AcDbEntity
  8
text
 62
1
100
AcDbPolyline
 90
2
 70
0
 10
337.908432
 20
166.753644
 30
0.0
 10
316.697432
 20
175.843644
 30
0.0
  0
LWPOLYLINE
  5
2b5
100
AcDbEntity
  8
text
 62
1
100
AcDbPolyline
 90
2
 70
0
 10
337.908432
 20
166.753644
 30
0.0
 10
318.213432
 20
178.874644
 30
0.0
  0
LWPOLYLINE
  5
2b6
100
AcDbEntity
  8
text
 62
1
100
AcDbPolyline
 90
2
 70
0
 10
337.908432
 20
166.753644
 30
0.0
 10
320.232432
 20
181.401644
 30
0.0
  0
LWPOLYLINE
  5
2b7
100
AcDbEntity
  8
text
 62
1
100
AcDbPolyline
 90
2
 70
0
 10
337.908432
 20
166.753644
 30
0.0
 10
322.756432
 20
183.925644
 30
0.0
  0
LWPOLYLINE
  5
2b8
100
AcDbEntity
  8
text
 62
1
100
AcDbPolyline
 90
2
 70
0
 10
337.908432
 20
166.753644
 30
0.0
 10
325.283432
 20
185.944644
 30
0.0
  0
LWPOLYLINE
  5
2b9
100
AcDbEntity
  8
text
 62
1
100
AcDbPolyline
 90
2
 70
0
 10
337.908432
 20
166.753644
 30
0.0
 10
328.314432
 20
187.460644
 30
0.0
  0
LWPOLYLINE
  5
2ba
100
AcDbEntity
  8
text
 62
1
100
AcDbPolyline
 90
2
 70
0
 10
337.908432
 20
166.753644
 30
0.0
 10
331.342432
 20
188.976644
 30
0.0
  0
LWPOLYLINE
  5
2bb
100
AcDbEntity
  8
text
 62
1
100
AcDbPolyline
 90
2
 70
0
 10
337.908432
 20
166.753644
 30
0.0
 10
334.881432
 20
189.480644
 30
0.0
  0
LWPOLYLINE
  5
2bc
100
AcDbEntity
  8
text
 62
1
100
AcDbPolyline
 90
2
 70
0
 10
337.908432
 20
166.753644
 30
0.0
 10
337.908432
 20
189.987644
 30
0.0
  0
LWPOLYLINE
  5
2bd
100
AcDbEntity
  8
text
 62
1
100
AcDbPolyline
 90
2
 70
0
 10
337.908432
 20
166.753644
 30
0.0
 10
340.939432
 20
189.480644
 30
0.0
  0
LWPOLYLINE
  5
2be
100
AcDbEntity
  8
text
 62
1
100
AcDbPolyline
 90
2
 70
0
 10
337.908432
 20
166.753644
 30
0.0
 10
344.475432
 20
188.976644
 30
0.0
  0
LWPOLYLINE
  5
2bf
100
AcDbEntity
  8
text
 62
1
100
AcDbPolyline
 90
2
 70
0
 10
337.908432
 20
166.753644
 30
0.0
 10
347.506432
 20
187.460644
 30
0.0
  0
LWPOLYLINE
  5
2c0
100
AcDbEntity
  8
text
 62
1
100
AcDbPolyline
 90
2
 70
0
 10
337.908432
 20
166.753644
 30
0.0
 10
350.537432
 20
185.944644
 30
0.0
  0
LWPOLYLINE
  5
2c1
100
AcDbEntity
  8
text
 62
1
100
AcDbPolyline
 90
2
 70
0
 10
337.908432
 20
166.753644
 30
0.0
 10
353.061432
 20
183.925644
 30
0.0
  0
LWPOLYLINE
  5
2c2
100
AcDbEntity
  8
text
 62
1
100
AcDbPolyline
 90
2
 70
0
 10
337.908432
 20
166.753644
 30
0.0
 10
355.588432
 20
181.401644
 30
0.0
  0
LWPOLYLINE
  5
2c3
100
AcDbEntity
  8
text
 62
1
100
AcDbPolyline
 90
2
 70
0
 10
337.908432
 20
166.753644
 30
0.0
 10
357.607432
 20
178.874644
 30
0.0
  0
LWPOLYLINE
  5
2c4
100
AcDbEntity
  8
text
 62
1
100
AcDbPolyline
 90
2
 70
0
 10
337.908432
 20
166.753644
 30
0.0
 10
359.123432
 20
175.843644
 30
0.0
  0
LWPOLYLINE
  5
2c5
100
AcDbEntity
  8
text
 62
1
100
AcDbPolyline
 90
2
 70
0
 10
337.908432
 20
166.753644
 30
0.0
 10
360.135432
 20
172.308644
 30
0.0
  0
LWPOLYLINE
  5
2c6
100
AcDbEntity
  8
text
 62
1
100
AcDbPolyline
 90
2
 70
0
 10
337.908432
 20
166.753644
 30
0.0
 10
360.639432
 20
169.276644
 30
0.0
  0
LWPOLYLINE
  5
2c7
100
AcDbEntity
  8
text
 62
1
100
AcDbPolyline
 90
2
 70
0
 10
337.908432
 20
166.753644
 30
0.0
 10
360.639432
 20
166.245644
 30
0.0
  0
LWPOLYLINE
  5
2c8
100
AcDbEntity
  8
text
 62
1
100
AcDbPolyline
 90
2
 70
0
 10
337.908432
 20
166.753644
 30
0.0
 10
360.639432
 20
163.218644
 30
0.0
  0
LWPOLYLINE
  5
2c9
100
AcDbEntity
  8
text
 62
1
100
AcDbPolyline
 90
2
 70
0
 10
337.908432
 20
166.753644
 30
0.0
 10
359.627432
 20
159.683644
 30
0.0
  0
LWPOLYLINE
  5
2ca
100
AcDbEntity
  8
text
 62
1
100
AcDbPolyline
 90
2
 70
0
 10
337.908432
 20
166.753644
 30
0.0
 10
358.619432
 20
156.651644
 30
0.0
  0
LWPOLYLINE
  5
2cb
100
AcDbEntity
  8
text
 62
1
100
AcDbPolyline
 90
2
 70
0
 10
337.908432
 20
166.753644
 30
0.0
 10
356.600432
 20
153.620644
 30
0.0
  0
LWPOLYLINE
  5
2cc
100
AcDbEntity
  8
text
 62
1
100
AcDbPolyline
 90
2
 70
0
 10
337.908432
 20
166.753644
 30
0.0
 10
354.576432
 20
151.093644
 30
0.0
  0
LWPOLYLINE
  5
2cd
100
AcDbEntity
  8
text
 62
1
100
AcDbPolyline
 90
2
 70
0
 10
337.908432
 20
166.753644
 30
0.0
 10
352.053432
 20
148.569644
 30
0.0
  0
SPLINE
  5
2ce
100
AcDbEntity
  8
text
 62
1
100
AcDbSpline
 70
8
 71
3
 72
8
 73
4
 74
0
 40
0
 40
0
 40
0
 40
0
 40
1
 40
1
 40
1
 40
1
 10
330.334432
 20
166.753644
 30
0.0
 10
330.334432
 20
171.296644
 30
0.0
 10
333.365432
 20
174.327644
 30
0.0
 10
337.908432
 20
174.327644
 30
0.0
  0
SPLINE
  5
2cf
100
AcDbEntity
  8
text
 62
1
100
AcDbSpline
 70
8
 71
3
 72
8
 73
4
 74
0
 40
0
 40
0
 40
0
 40
0
 40
1
 40
1
 40
1
 40
1
 10
337.908432
 20
174.327644
 30
0.0
 10
342.455432
 20
174.327644
 30
0.0
 10
345.486432
 20
171.296644
 30
0.0
 10
345.486432
 20
166.753644
 30
0.0
  0
SPLINE
  5
2d0
100
AcDbEntity
  8
text
 62
1
100
AcDbSpline
 70
8
 71
3
 72
8
 73
4
 74
0
 40
0
 40
0
 40
0
 40
0
 40
1
 40
1
 40
1
 40
1
 10
345.486432
 20
166.753644
 30
0.0
 10
345.486432
 20
162.206644
 30
0.0
 10
342.455432
 20
159.175644
 30
0.0
 10
337.908432
 20
159.175644
 30
0.0
  0
SPLINE
  5
2d1
100
AcDbEntity
  8
text
 62
1
100
AcDbSpline
 70
8
 71
3
 72
8
 73
4
 74
0
 40
0
 40
0
 40
0
 40
0
 40
1
 40
1
 40
1
 40
1
 10
337.908432
 20
159.175644
 30
0.0
 10
333.365432
 20
159.175644
 30
0.0
 10
330.334432
 20
162.206644
 30
0.0
 10
330.334432
 20
166.753644
 30
0.0
  0
LWPOLYLINE
  5
2d2
100
AcDbEntity
  8
text
 62
1
100
AcDbPolyline
 90
2
 70
0
 10
337.908432
 20
166.753644
 30
0.0
 10
349.525432
 20
147.054644
 30
0.0
  0
LWPOLYLINE
  5
2d3
100
AcDbEntity
  8
text
 62
1
100
AcDbPolyline
 90
2
 70
0
 10
334.881432
 20
166.753644
 30
0.0
 10
340.939432
 20
166.753644
 30
0.0
  0
SPLINE
  5
2d4
100
AcDbEntity
  8
text
 62
7
100
AcDbSpline
 70
8
 71
3
 72
8
 73
4
 74
0
 40
0
 40
0
 40
0
 40
0
 40
1
 40
1
 40
1
 40
1
 10
338.510432
 20
166.597644
 30
0.0
 10
338.510432
 20
166.261644
 30
0.0
 10
338.205432
 20
165.987644
 30
0.0
 10
337.830432
 20
165.987644
 30
0.0
  0
SPLINE
  5
2d5
100
AcDbEntity
  8
text
 62
7
100
AcDbSpline
 70
8
 71
3
 72
8
 73
4
 74
0
 40
0
 40
0
 40
0
 40
0
 40
1
 40
1
 40
1
 40
1
 10
337.830432
 20
165.987644
 30
0.0
 10
337.455432
 20
165.987644
 30
0.0
 10
337.150432
 20
166.261644
 30
0.0
 10
337.150432
 20
166.597644
 30
0.0
  0
SPLINE
  5
2d6
100
AcDbEntity
  8
text
 62
7
100
AcDbSpline
 70
8
 71
3
 72
8
 73
4
 74
0
 40
0
 40
0
 40
0
 40
0
 40
1
 40
1
 40
1
 40
1
 10
337.150432
 20
166.597644
 30
0.0
 10
337.150432
 20
166.937644
 30
0.0
 10
337.455432
 20
167.210644
 30
0.0
 10
337.830432
 20
167.210644
 30
0.0
  0
SPLINE
  5
2d7
100
AcDbEntity
  8
text
 62
7
100
AcDbSpline
 70
8
 71
3
 72
8
 73
4
 74
0
 40
0
 40
0
 40
0
 40
0
 40
1
 40
1
 40
1
 40
1
 10
337.830432
 20
167.210644
 30
0.0
 10
338.205432
 20
167.210644
 30
0.0
 10
338.510432
 20
166.937644
 30
0.0
 10
338.510432
 20
166.597644
 30
0.0
  0
LWPOLYLINE
  5
2d8
100
AcDbEntity
  8
text
 62
1
100
AcDbPolyline
 90
2
 70
0
 10
337.908432
 20
163.722644
 30
0.0
 10
337.908432
 20
169.784644
 30
0.0
  0
SPLINE
  5
2d9
100
AcDbEntity
  8
text
 62
1
100
AcDbSpline
 70
8
 71
3
 72
8
 73
4
 74
0
 40
0
 40
0
 40
0
 40
0
 40
1
 40
1
 40
1
 40
1
 10
309.573791
 20
296.165324
 30
0.0
 10
309.573791
 20
301.185324
 30
0.0
 10
312.921791
 20
304.532324
 30
0.0
 10
317.944791
 20
304.532324
 30
0.0
  0
SPLINE
  5
2da
100
AcDbEntity
  8
text
 62
1
100
AcDbSpline
 70
8
 71
3
 72
8
 73
4
 74
0
 40
0
 40
0
 40
0
 40
0
 40
1
 40
1
 40
1
 40
1
 10
317.944791
 20
304.532324
 30
0.0
 10
322.964791
 20
304.532324
 30
0.0
 10
326.307791
 20
301.185324
 30
0.0
 10
326.307791
 20
296.165324
 30
0.0
  0
SPLINE
  5
2db
100
AcDbEntity
  8
text
 62
1
100
AcDbSpline
 70
8
 71
3
 72
8
 73
4
 74
0
 40
0
 40
0
 40
0
 40
0
 40
1
 40
1
 40
1
 40
1
 10
326.307791
 20
296.165324
 30
0.0
 10
326.307791
 20
291.146324
 30
0.0
 10
322.964791
 20
287.798324
 30
0.0
 10
317.944791
 20
287.798324
 30
0.0
  0
SPLINE
  5
2dc
100
AcDbEntity
  8
text
 62
1
100
AcDbSpline
 70
8
 71
3
 72
8
 73
4
 74
0
 40
0
 40
0
 40
0
 40
0
 40
1
 40
1
 40
1
 40
1
 10
317.944791
 20
287.798324
 30
0.0
 10
312.921791
 20
287.798324
 30
0.0
 10
309.573791
 20
291.146324
 30
0.0
 10
309.573791
 20
296.165324
 30
0.0
  0
LWPOLYLINE
  5
2dd
100
AcDbEntity
  8
text
 62
7
100
AcDbPolyline
 90
2
 70
1
 10
338.510432
 20
166.597644
 30
0.0
 10
338.510432
 20
166.597644
 30
0.0
  0
LWPOLYLINE
  5
2de
100
AcDbEntity
  8
text
 62
1
100
AcDbPolyline
 90
2
 70
0
 10
314.597791
 20
296.165324
 30
0.0
 10
321.288791
 20
296.165324
 30
0.0
  0
SPLINE
  5
2df
100
AcDbEntity
  8
text
 62
1
100
AcDbSpline
 70
8
 71
3
 72
8
 73
4
 74
0
 40
0
 40
0
 40
0
 40
0
 40
1
 40
1
 40
1
 40
1
 10
413.572677
 20
123.247964
 30
0.0
 10
413.572677
 20
128.271964
 30
0.0
 10
416.920677
 20
131.614964
 30
0.0
 10
421.943677
 20
131.614964
 30
0.0
  0
SPLINE
  5
2e0
100
AcDbEntity
  8
text
 62
1
100
AcDbSpline
 70
8
 71
3
 72
8
 73
4
 74
0
 40
0
 40
0
 40
0
 40
0
 40
1
 40
1
 40
1
 40
1
 10
421.943677
 20
131.614964
 30
0.0
 10
426.963677
 20
131.614964
 30
0.0
 10
430.306677
 20
128.271964
 30
0.0
 10
430.306677
 20
123.247964
 30
0.0
  0
SPLINE
  5
2e1
100
AcDbEntity
  8
text
 62
1
100
AcDbSpline
 70
8
 71
3
 72
8
 73
4
 74
0
 40
0
 40
0
 40
0
 40
0
 40
1
 40
1
 40
1
 40
1
 10
430.306677
 20
123.247964
 30
0.0
 10
430.306677
 20
118.232964
 30
0.0
 10
426.963677
 20
114.884964
 30
0.0
 10
421.943677
 20
114.884964
 30
0.0
  0
SPLINE
  5
2e2
100
AcDbEntity
  8
text
 62
1
100
AcDbSpline
 70
8
 71
3
 72
8
 73
4
 74
0
 40
0
 40
0
 40
0
 40
0
 40
1
 40
1
 40
1
 40
1
 10
421.943677
 20
114.884964
 30
0.0
 10
416.920677
 20
114.884964
 30
0.0
 10
413.572677
 20
118.232964
 30
0.0
 10
413.572677
 20
123.247964
 30
0.0
  0
LWPOLYLINE
  5
2e3
100
AcDbEntity
  8
text
 62
1
100
AcDbPolyline
 90
2
 70
0
 10
317.944791
 20
292.818324
 30
0.0
 10
317.944791
 20
299.513324
 30
0.0
  0
LWPOLYLINE
  5
2e4
100
AcDbEntity
  8
text
 62
1
100
AcDbPolyline
 90
2
 70
0
 10
418.596677
 20
123.247964
 30
0.0
 10
425.287677
 20
123.247964
 30
0.0
  0
LWPOLYLINE
  5
2e5
100
AcDbEntity
  8
text
 62
1
100
AcDbPolyline
 90
2
 70
0
 10
421.943677
 20
119.903964
 30
0.0
 10
421.943677
 20
126.599964
 30
0.0
  0
SPLINE
  5
2e6
100
AcDbEntity
  8
text
 62
1
100
AcDbSpline
 70
8
 71
3
 72
8
 73
4
 74
0
 40
0
 40
0
 40
0
 40
0
 40
1
 40
1
 40
1
 40
1
 10
474.683694
 20
379.060548
 30
0.0
 10
474.683694
 20
378.685548
 30
0.0
 10
474.347694
 20
378.381548
 30
0.0
 10
473.933694
 20
378.381548
 30
0.0
  0
SPLINE
  5
2e7
100
AcDbEntity
  8
text
 62
1
100
AcDbSpline
 70
8
 71
3
 72
8
 73
4
 74
0
 40
0
 40
0
 40
0
 40
0
 40
1
 40
1
 40
1
 40
1
 10
473.933694
 20
378.381548
 30
0.0
 10
473.518694
 20
378.381548
 30
0.0
 10
473.186694
 20
378.685548
 30
0.0
 10
473.186694
 20
379.060548
 30
0.0
  0
SPLINE
  5
2e8
100
AcDbEntity
  8
text
 62
1
100
AcDbSpline
 70
8
 71
3
 72
8
 73
4
 74
0
 40
0
 40
0
 40
0
 40
0
 40
1
 40
1
 40
1
 40
1
 10
473.186694
 20
379.060548
 30
0.0
 10
473.186694
 20
379.435548
 30
0.0
 10
473.518694
 20
379.740548
 30
0.0
 10
473.933694
 20
379.740548
 30
0.0
  0
SPLINE
  5
2e9
100
AcDbEntity
  8
text
 62
1
100
AcDbSpline
 70
8
 71
3
 72
8
 73
4
 74
0
 40
0
 40
0
 40
0
 40
0
 40
1
 40
1
 40
1
 40
1
 10
473.933694
 20
379.740548
 30
0.0
 10
474.347694
 20
379.740548
 30
0.0
 10
474.683694
 20
379.435548
 30
0.0
 10
474.683694
 20
379.060548
 30
0.0
  0
LWPOLYLINE
  5
2ea
100
AcDbEntity
  8
text
 62
1
100
AcDbPolyline
 90
6
 70
0
 10
423.748150
 20
24.969874
 30
0.0
 10
391.056417
 20
24.969874
 30
0.0
 10
391.056417
 20
388.982099
 30
0.0
 10
481.583560
 20
388.982099
 30
0.0
 10
481.583560
 20
24.969874
 30
0.0
 10
391.056417
 20
24.969874
 30
0.0
  0
SPLINE
  5
2eb
100
AcDbEntity
  8
text
 62
1
100
AcDbSpline
 70
8
 71
3
 72
8
 73
4
 74
0
 40
0
 40
0
 40
0
 40
0
 40
1
 40
1
 40
1
 40
1
 10
416.368592
 20
33.574548
 30
0.0
 10
416.368592
 20
33.312548
 30
0.0
 10
416.094592
 20
33.097548
 30
0.0
 10
415.755592
 20
33.097548
 30
0.0
  0
SPLINE
  5
2ec
100
AcDbEntity
  8
text
 62
1
100
AcDbSpline
 70
8
 71
3
 72
8
 73
4
 74
0
 40
0
 40
0
 40
0
 40
0
 40
1
 40
1
 40
1
 40
1
 10
415.755592
 20
33.097548
 30
0.0
 10
415.419592
 20
33.097548
 30
0.0
 10
415.141592
 20
33.312548
 30
0.0
 10
415.141592
 20
33.574548
 30
0.0
  0
SPLINE
  5
2ed
100
AcDbEntity
  8
text
 62
1
100
AcDbSpline
 70
8
 71
3
 72
8
 73
4
 74
0
 40
0
 40
0
 40
0
 40
0
 40
1
 40
1
 40
1
 40
1
 10
415.141592
 20
33.574548
 30
0.0
 10
415.141592
 20
33.835548
 30
0.0
 10
415.419592
 20
34.050548
 30
0.0
 10
415.755592
 20
34.050548
 30
0.0
  0
SPLINE
  5
2ee
100
AcDbEntity
  8
text
 62
1
100
AcDbSpline
 70
8
 71
3
 72
8
 73
4
 74
0
 40
0
 40
0
 40
0
 40
0
 40
1
 40
1
 40
1
 40
1
 10
415.755592
 20
34.050548
 30
0.0
 10
416.094592
 20
34.050548
 30
0.0
 10
416.368592
 20
33.835548
 30
0.0
 10
416.368592
 20
33.574548
 30
0.0
  0
LWPOLYLINE
  5
2ef
100
AcDbEntity
  8
text
 62
1
100
AcDbPolyline
 90
2
 70
1
 10
474.683694
 20
379.060548
 30
0.0
 10
474.683694
 20
379.060548
 30
0.0
  0
LWPOLYLINE
  5
2f0
100
AcDbEntity
  8
text
 62
1
100
AcDbPolyline
 90
2
 70
1
 10
416.368592
 20
33.574548
 30
0.0
 10
416.368592
 20
33.574548
 30
0.0
  0
LWPOLYLINE
  5
2f1
100
AcDbEntity
  8
text
 62
1
100
AcDbPolyline
 90
2
 70
0
 10
441.908880
 20
217.210364
 30
0.0
 10
429.283880
 20
194.479364
 30
0.0
  0
LWPOLYLINE
  5
2f2
100
AcDbEntity
  8
text
 62
1
100
AcDbPolyline
 90
2
 70
0
 10
441.908880
 20
217.210364
 30
0.0
 10
418.674880
 20
205.593364
 30
0.0
  0
LWPOLYLINE
  5
2f3
100
AcDbEntity
  8
text
 62
1
100
AcDbPolyline
 90
2
 70
0
 10
441.908880
 20
217.210364
 30
0.0
 10
416.150880
 20
220.241364
 30
0.0
  0
LWPOLYLINE
  5
2f4
100
AcDbEntity
  8
text
 62
1
100
AcDbPolyline
 90
2
 70
0
 10
441.908880
 20
217.210364
 30
0.0
 10
422.213880
 20
233.878364
 30
0.0
  0
LWPOLYLINE
  5
2f5
100
AcDbEntity
  8
text
 62
1
100
AcDbPolyline
 90
2
 70
0
 10
441.908880
 20
217.210364
 30
0.0
 10
434.838880
 20
241.960364
 30
0.0
  0
LWPOLYLINE
  5
2f6
100
AcDbEntity
  8
text
 62
1
100
AcDbPolyline
 90
2
 70
0
 10
441.908880
 20
217.210364
 30
0.0
 10
448.982880
 20
241.960364
 30
0.0
  0
LWPOLYLINE
  5
2f7
100
AcDbEntity
  8
text
 62
1
100
AcDbPolyline
 90
2
 70
0
 10
441.908880
 20
217.210364
 30
0.0
 10
461.607880
 20
233.878364
 30
0.0
  0
LWPOLYLINE
  5
2f8
100
AcDbEntity
  8
text
 62
1
100
AcDbPolyline
 90
2
 70
0
 10
441.908880
 20
217.210364
 30
0.0
 10
467.670880
 20
220.241364
 30
0.0
  0
LWPOLYLINE
  5
2f9
100
AcDbEntity
  8
text
 62
1
100
AcDbPolyline
 90
2
 70
0
 10
441.908880
 20
217.210364
 30
0.0
 10
465.143880
 20
205.593364
 30
0.0
  0
LWPOLYLINE
  5
2fa
100
AcDbEntity
  8
text
 62
1
100
AcDbPolyline
 90
2
 70
0
 10
441.908880
 20
217.210364
 30
0.0
 10
455.041880
 20
194.479364
 30
0.0
  0
LWPOLYLINE
  5
2fb
100
AcDbEntity
  8
text
 62
1
100
AcDbPolyline
 90
2
 70
0
 10
441.908880
 20
217.210364
 30
0.0
 10
430.799880
 20
197.511364
 30
0.0
  0
LWPOLYLINE
  5
2fc
100
AcDbEntity
  8
text
 62
1
100
AcDbPolyline
 90
2
 70
0
 10
441.908880
 20
217.210364
 30
0.0
 10
427.768880
 20
199.026364
 30
0.0
  0
LWPOLYLINE
  5
2fd
100
AcDbEntity
  8
text
 62
1
100
AcDbPolyline
 90
2
 70
0
 10
441.908880
 20
217.210364
 30
0.0
 10
425.240880
 20
201.550364
 30
0.0
  0
LWPOLYLINE
  5
2fe
100
AcDbEntity
  8
text
 62
1
100
AcDbPolyline
 90
2
 70
0
 10
441.908880
 20
217.210364
 30
0.0
 10
423.221880
 20
204.077364
 30
0.0
  0
LWPOLYLINE
  5
2ff
100
AcDbEntity
  8
text
 62
1
100
AcDbPolyline
 90
2
 70
0
 10
441.908880
 20
217.210364
 30
0.0
 10
421.201880
 20
207.108364
 30
0.0
  0
LWPOLYLINE
  5
300
100
AcDbEntity
  8
text
 62
1
100
AcDbPolyline
 90
2
 70
0
 10
441.908880
 20
217.210364
 30
0.0
 10
420.189880
 20
210.140364
 30
0.0
  0
LWPOLYLINE
  5
301
100
AcDbEntity
  8
text
 62
1
100
AcDbPolyline
 90
2
 70
0
 10
441.908880
 20
217.210364
 30
0.0
 10
419.182880
 20
213.675364
 30
0.0
  0
LWPOLYLINE
  5
302
100
AcDbEntity
  8
text
 62
1
100
AcDbPolyline
 90
2
 70
0
 10
441.908880
 20
217.210364
 30
0.0
 10
419.182880
 20
216.702364
 30
0.0
  0
LWPOLYLINE
  5
303
100
AcDbEntity
  8
text
 62
1
100
AcDbPolyline
 90
2
 70
0
 10
441.908880
 20
217.210364
 30
0.0
 10
419.182880
 20
219.733364
 30
0.0
  0
LWPOLYLINE
  5
304
100
AcDbEntity
  8
text
 62
1
100
AcDbPolyline
 90
2
 70
0
 10
441.908880
 20
217.210364
 30
0.0
 10
419.686880
 20
222.765364
 30
0.0
  0
LWPOLYLINE
  5
305
100
AcDbEntity
  8
text
 62
1
100
AcDbPolyline
 90
2
 70
0
 10
441.908880
 20
217.210364
 30
0.0
 10
420.697880
 20
226.300364
 30
0.0
  0
LWPOLYLINE
  5
306
100
AcDbEntity
  8
text
 62
1
100
AcDbPolyline
 90
2
 70
0
 10
441.908880
 20
217.210364
 30
0.0
 10
422.213880
 20
229.331364
 30
0.0
  0
LWPOLYLINE
  5
307
100
AcDbEntity
  8
text
 62
1
100
AcDbPolyline
 90
2
 70
0
 10
441.908880
 20
217.210364
 30
0.0
 10
424.232880
 20
231.858364
 30
0.0
  0
LWPOLYLINE
  5
308
100
AcDbEntity
  8
text
 62
1
100
AcDbPolyline
 90
2
 70
0
 10
441.908880
 20
217.210364
 30
0.0
 10
426.756880
 20
234.382364
 30
0.0
  0
LWPOLYLINE
  5
309
100
AcDbEntity
  8
text
 62
1
100
AcDbPolyline
 90
2
 70
0
 10
441.908880
 20
217.210364
 30
0.0
 10
429.283880
 20
236.401364
 30
0.0
  0
LWPOLYLINE
  5
30a
100
AcDbEntity
  8
text
 62
1
100
AcDbPolyline
 90
2
 70
0
 10
441.908880
 20
217.210364
 30
0.0
 10
432.314880
 20
237.917364
 30
0.0
  0
LWPOLYLINE
  5
30b
100
AcDbEntity
  8
text
 62
1
100
AcDbPolyline
 90
2
 70
0
 10
441.908880
 20
217.210364
 30
0.0
 10
435.342880
 20
239.433364
 30
0.0
  0
LWPOLYLINE
  5
30c
100
AcDbEntity
  8
text
 62
1
100
AcDbPolyline
 90
2
 70
0
 10
441.908880
 20
217.210364
 30
0.0
 10
438.881880
 20
239.937364
 30
0.0
  0
LWPOLYLINE
  5
30d
100
AcDbEntity
  8
text
 62
1
100
AcDbPolyline
 90
2
 70
0
 10
441.908880
 20
217.210364
 30
0.0
 10
441.908880
 20
240.444364
 30
0.0
  0
LWPOLYLINE
  5
30e
100
AcDbEntity
  8
text
 62
1
100
AcDbPolyline
 90
2
 70
0
 10
441.908880
 20
217.210364
 30
0.0
 10
444.939880
 20
239.937364
 30
0.0
  0
LWPOLYLINE
  5
30f
100
AcDbEntity
  8
text
 62
1
100
AcDbPolyline
 90
2
 70
0
 10
441.908880
 20
217.210364
 30
0.0
 10
448.475880
 20
239.433364
 30
0.0
  0
LWPOLYLINE
  5
310
100
AcDbEntity
  8
text
 62
1
100
AcDbPolyline
 90
2
 70
0
 10
441.908880
 20
217.210364
 30
0.0
 10
451.506880
 20
237.917364
 30
0.0
  0
LWPOLYLINE
  5
311
100
AcDbEntity
  8
text
 62
1
100
AcDbPolyline
 90
2
 70
0
 10
441.908880
 20
217.210364
 30
0.0
 10
454.537880
 20
236.401364
 30
0.0
  0
LWPOLYLINE
  5
312
100
AcDbEntity
  8
text
 62
1
100
AcDbPolyline
 90
2
 70
0
 10
441.908880
 20
217.210364
 30
0.0
 10
457.061880
 20
234.382364
 30
0.0
  0
LWPOLYLINE
  5
313
100
AcDbEntity
  8
text
 62
1
100
AcDbPolyline
 90
2
 70
0
 10
441.908880
 20
217.210364
 30
0.0
 10
459.588880
 20
231.858364
 30
0.0
  0
LWPOLYLINE
  5
314
100
AcDbEntity
  8
text
 62
1
100
AcDbPolyline
 90
2
 70
0
 10
441.908880
 20
217.210364
 30
0.0
 10
461.607880
 20
229.331364
 30
0.0
  0
LWPOLYLINE
  5
315
100
AcDbEntity
  8
text
 62
1
100
AcDbPolyline
 90
2
 70
0
 10
441.908880
 20
217.210364
 30
0.0
 10
463.123880
 20
226.300364
 30
0.0
  0
LWPOLYLINE
  5
316
100
AcDbEntity
  8
text
 62
1
100
AcDbPolyline
 90
2
 70
0
 10
441.908880
 20
217.210364
 30
0.0
 10
464.135880
 20
222.765364
 30
0.0
  0
LWPOLYLINE
  5
317
100
AcDbEntity
  8
text
 62
1
100
AcDbPolyline
 90
2
 70
0
 10
441.908880
 20
217.210364
 30
0.0
 10
464.639880
 20
219.733364
 30
0.0
  0
LWPOLYLINE
  5
318
100
AcDbEntity
  8
text
 62
1
100
AcDbPolyline
 90
2
 70
0
 10
441.908880
 20
217.210364
 30
0.0
 10
464.639880
 20
216.702364
 30
0.0
  0
LWPOLYLINE
  5
319
100
AcDbEntity
  8
text
 62
1
100
AcDbPolyline
 90
2
 70
0
 10
441.908880
 20
217.210364
 30
0.0
 10
464.639880
 20
213.675364
 30
0.0
  0
LWPOLYLINE
  5
31a
100
AcDbEntity
  8
text
 62
1
100
AcDbPolyline
 90
2
 70
0
 10
441.908880
 20
217.210364
 30
0.0
 10
463.627880
 20
210.140364
 30
0.0
  0
LWPOLYLINE
  5
31b
100
AcDbEntity
  8
text
 62
1
100
AcDbPolyline
 90
2
 70
0
 10
441.908880
 20
217.210364
 30
0.0
 10
462.619880
 20
207.108364
 30
0.0
  0
LWPOLYLINE
  5
31c
100
AcDbEntity
  8
text
 62
1
100
AcDbPolyline
 90
2
 70
0
 10
441.908880
 20
217.210364
 30
0.0
 10
460.600880
 20
204.077364
 30
0.0
  0
LWPOLYLINE
  5
31d
100
AcDbEntity
  8
text
 62
1
100
AcDbPolyline
 90
2
 70
0
 10
441.908880
 20
217.210364
 30
0.0
 10
458.576880
 20
201.550364
 30
0.0
  0
LWPOLYLINE
  5
31e
100
AcDbEntity
  8
text
 62
1
100
AcDbPolyline
 90
2
 70
0
 10
441.908880
 20
217.210364
 30
0.0
 10
456.053880
 20
199.026364
 30
0.0
  0
SPLINE
  5
31f
100
AcDbEntity
  8
text
 62
1
100
AcDbSpline
 70
8
 71
3
 72
8
 73
4
 74
0
 40
0
 40
0
 40
0
 40
0
 40
1
 40
1
 40
1
 40
1
 10
434.334880
 20
217.210364
 30
0.0
 10
434.334880
 20
221.753364
 30
0.0
 10
437.365880
 20
224.784364
 30
0.0
 10
441.908880
 20
224.784364
 30
0.0
  0
SPLINE
  5
320
100
AcDbEntity
  8
text
 62
1
100
AcDbSpline
 70
8
 71
3
 72
8
 73
4
 74
0
 40
0
 40
0
 40
0
 40
0
 40
1
 40
1
 40
1
 40
1
 10
441.908880
 20
224.784364
 30
0.0
 10
446.455880
 20
224.784364
 30
0.0
 10
449.486880
 20
221.753364
 30
0.0
 10
449.486880
 20
217.210364
 30
0.0
  0
SPLINE
  5
321
100
AcDbEntity
  8
text
 62
1
100
AcDbSpline
 70
8
 71
3
 72
8
 73
4
 74
0
 40
0
 40
0
 40
0
 40
0
 40
1
 40
1
 40
1
 40
1
 10
449.486880
 20
217.210364
 30
0.0
 10
449.486880
 20
212.663364
 30
0.0
 10
446.455880
 20
209.632364
 30
0.0
 10
441.908880
 20
209.632364
 30
0.0
  0
SPLINE
  5
322
100
AcDbEntity
  8
text
 62
1
100
AcDbSpline
 70
8
 71
3
 72
8
 73
4
 74
0
 40
0
 40
0
 40
0
 40
0
 40
1
 40
1
 40
1
 40
1
 10
441.908880
 20
209.632364
 30
0.0
 10
437.365880
 20
209.632364
 30
0.0
 10
434.334880
 20
212.663364
 30
0.0
 10
434.334880
 20
217.210364
 30
0.0
  0
LWPOLYLINE
  5
323
100
AcDbEntity
  8
text
 62
1
100
AcDbPolyline
 90
2
 70
0
 10
441.908880
 20
217.210364
 30
0.0
 10
453.525880
 20
197.511364
 30
0.0
  0
LWPOLYLINE
  5
324
100
AcDbEntity
  8
text
 62
1
100
AcDbPolyline
 90
2
 70
0
 10
438.881880
 20
217.210364
 30
0.0
 10
444.939880
 20
217.210364
 30
0.0
  0
SPLINE
  5
325
100
AcDbEntity
  8
text
 62
7
100
AcDbSpline
 70
8
 71
3
 72
8
 73
4
 74
0
 40
0
 40
0
 40
0
 40
0
 40
1
 40
1
 40
1
 40
1
 10
442.510880
 20
217.054364
 30
0.0
 10
442.510880
 20
216.718364
 30
0.0
 10
442.205880
 20
216.444364
 30
0.0
 10
441.830880
 20
216.444364
 30
0.0
  0
SPLINE
  5
326
100
AcDbEntity
  8
text
 62
7
100
AcDbSpline
 70
8
 71
3
 72
8
 73
4
 74
0
 40
0
 40
0
 40
0
 40
0
 40
1
 40
1
 40
1
 40
1
 10
441.830880
 20
216.444364
 30
0.0
 10
441.455880
 20
216.444364
 30
0.0
 10
441.150880
 20
216.718364
 30
0.0
 10
441.150880
 20
217.054364
 30
0.0
  0
SPLINE
  5
327
100
AcDbEntity
  8
text
 62
7
100
AcDbSpline
 70
8
 71
3
 72
8
 73
4
 74
0
 40
0
 40
0
 40
0
 40
0
 40
1
 40
1
 40
1
 40
1
 10
441.150880
 20
217.054364
 30
0.0
 10
441.150880
 20
217.394364
 30
0.0
 10
441.455880
 20
217.667364
 30
0.0
 10
441.830880
 20
217.667364
 30
0.0
  0
SPLINE
  5
328
100
AcDbEntity
  8
text
 62
7
100
AcDbSpline
 70
8
 71
3
 72
8
 73
4
 74
0
 40
0
 40
0
 40
0
 40
0
 40
1
 40
1
 40
1
 40
1
 10
441.830880
 20
217.667364
 30
0.0
 10
442.205880
 20
217.667364
 30
0.0
 10
442.510880
 20
217.394364
 30
0.0
 10
442.510880
 20
217.054364
 30
0.0
  0
LWPOLYLINE
  5
329
100
AcDbEntity
  8
text
 62
1
100
AcDbPolyline
 90
2
 70
0
 10
441.908880
 20
214.179364
 30
0.0
 10
441.908880
 20
220.241364
 30
0.0
  0
SPLINE
  5
32a
100
AcDbEntity
  8
text
 62
1
100
AcDbSpline
 70
8
 71
3
 72
8
 73
4
 74
0
 40
0
 40
0
 40
0
 40
0
 40
1
 40
1
 40
1
 40
1
 10
413.573783
 20
259.881884
 30
0.0
 10
413.573783
 20
264.901884
 30
0.0
 10
416.921783
 20
268.248884
 30
0.0
 10
421.944783
 20
268.248884
 30
0.0
  0
SPLINE
  5
32b
100
AcDbEntity
  8
text
 62
1
100
AcDbSpline
 70
8
 71
3
 72
8
 73
4
 74
0
 40
0
 40
0
 40
0
 40
0
 40
1
 40
1
 40
1
 40
1
 10
421.944783
 20
268.248884
 30
0.0
 10
426.964783
 20
268.248884
 30
0.0
 10
430.307783
 20
264.901884
 30
0.0
 10
430.307783
 20
259.881884
 30
0.0
  0
SPLINE
  5
32c
100
AcDbEntity
  8
text
 62
1
100
AcDbSpline
 70
8
 71
3
 72
8
 73
4
 74
0
 40
0
 40
0
 40
0
 40
0
 40
1
 40
1
 40
1
 40
1
 10
430.307783
 20
259.881884
 30
0.0
 10
430.307783
 20
254.862884
 30
0.0
 10
426.964783
 20
251.514884
 30
0.0
 10
421.944783
 20
251.514884
 30
0.0
  0
SPLINE
  5
32d
100
AcDbEntity
  8
text
 62
1
100
AcDbSpline
 70
8
 71
3
 72
8
 73
4
 74
0
 40
0
 40
0
 40
0
 40
0
 40
1
 40
1
 40
1
 40
1
 10
421.944783
 20
251.514884
 30
0.0
 10
416.921783
 20
251.514884
 30
0.0
 10
413.573783
 20
254.862884
 30
0.0
 10
413.573783
 20
259.881884
 30
0.0
  0
LWPOLYLINE
  5
32e
100
AcDbEntity
  8
text
 62
7
100
AcDbPolyline
 90
2
 70
1
 10
442.510880
 20
217.054364
 30
0.0
 10
442.510880
 20
217.054364
 30
0.0
  0
LWPOLYLINE
  5
32f
100
AcDbEntity
  8
text
 62
1
100
AcDbPolyline
 90
2
 70
0
 10
418.597783
 20
259.881884
 30
0.0
 10
425.288783
 20
259.881884
 30
0.0
  0
LWPOLYLINE
  5
330
100
AcDbEntity
  8
text
 62
1
100
AcDbPolyline
 90
2
 70
0
 10
421.944783
 20
256.534884
 30
0.0
 10
421.944783
 20
263.229884
 30
0.0
  0
LWPOLYLINE
  5
331
100
AcDbEntity
  8
text
 62
1
100
AcDbPolyline
 90
2
 70
0
 10
441.908424
 20
166.753644
 30
0.0
 10
429.283424
 20
144.022644
 30
0.0
  0
LWPOLYLINE
  5
332
100
AcDbEntity
  8
text
 62
1
100
AcDbPolyline
 90
2
 70
0
 10
441.908424
 20
166.753644
 30
0.0
 10
418.674424
 20
155.136644
 30
0.0
  0
LWPOLYLINE
  5
333
100
AcDbEntity
  8
text
 62
1
100
AcDbPolyline
 90
2
 70
0
 10
441.908424
 20
166.753644
 30
0.0
 10
416.150424
 20
169.784644
 30
0.0
  0
LWPOLYLINE
  5
334
100
AcDbEntity
  8
text
 62
1
100
AcDbPolyline
 90
2
 70
0
 10
441.908424
 20
166.753644
 30
0.0
 10
422.213424
 20
183.421644
 30
0.0
  0
LWPOLYLINE
  5
335
100
AcDbEntity
  8
text
 62
1
100
AcDbPolyline
 90
2
 70
0
 10
441.908424
 20
166.753644
 30
0.0
 10
434.838424
 20
191.503644
 30
0.0
  0
LWPOLYLINE
  5
336
100
AcDbEntity
  8
text
 62
1
100
AcDbPolyline
 90
2
 70
0
 10
441.908424
 20
166.753644
 30
0.0
 10
448.982424
 20
191.503644
 30
0.0
  0
LWPOLYLINE
  5
337
100
AcDbEntity
  8
text
 62
1
100
AcDbPolyline
 90
2
 70
0
 10
441.908424
 20
166.753644
 30
0.0
 10
461.607424
 20
183.421644
 30
0.0
  0
LWPOLYLINE
  5
338
100
AcDbEntity
  8
text
 62
1
100
AcDbPolyline
 90
2
 70
0
 10
441.908424
 20
166.753644
 30
0.0
 10
467.670424
 20
169.784644
 30
0.0
  0
LWPOLYLINE
  5
339
100
AcDbEntity
  8
text
 62
1
100
AcDbPolyline
 90
2
 70
0
 10
441.908424
 20
166.753644
 30
0.0
 10
465.143424
 20
155.136644
 30
0.0
  0
LWPOLYLINE
  5
33a
100
AcDbEntity
  8
text
 62
1
100
AcDbPolyline
 90
2
 70
0
 10
441.908424
 20
166.753644
 30
0.0
 10
455.041424
 20
144.022644
 30
0.0
  0
LWPOLYLINE
  5
33b
100
AcDbEntity
  8
text
 62
1
100
AcDbPolyline
 90
2
 70
0
 10
441.908424
 20
166.753644
 30
0.0
 10
430.799424
 20
147.054644
 30
0.0
  0
LWPOLYLINE
  5
33c
100
AcDbEntity
  8
text
 62
1
100
AcDbPolyline
 90
2
 70
0
 10
441.908424
 20
166.753644
 30
0.0
 10
427.768424
 20
148.569644
 30
0.0
  0
LWPOLYLINE
  5
33d
100
AcDbEntity
  8
text
 62
1
100
AcDbPolyline
 90
2
 70
0
 10
441.908424
 20
166.753644
 30
0.0
 10
425.240424
 20
151.093644
 30
0.0
  0
LWPOLYLINE
  5
33e
100
AcDbEntity
  8
text
 62
1
100
AcDbPolyline
 90
2
 70
0
 10
441.908424
 20
166.753644
 30
0.0
 10
423.221424
 20
153.620644
 30
0.0
  0
LWPOLYLINE
  5
33f
100
AcDbEntity
  8
text
 62
1
100
AcDbPolyline
 90
2
 70
0
 10
441.908424
 20
166.753644
 30
0.0
 10
421.201424
 20
156.651644
 30
0.0
  0
LWPOLYLINE
  5
340
100
AcDbEntity
  8
text
 62
1
100
AcDbPolyline
 90
2
 70
0
 10
441.908424
 20
166.753644
 30
0.0
 10
420.189424
 20
159.683644
 30
0.0
  0
LWPOLYLINE
  5
341
100
AcDbEntity
  8
text
 62
1
100
AcDbPolyline
 90
2
 70
0
 10
441.908424
 20
166.753644
 30
0.0
 10
419.182424
 20
163.218644
 30
0.0
  0
LWPOLYLINE
  5
342
100
AcDbEntity
  8
text
 62
1
100
AcDbPolyline
 90
2
 70
0
 10
441.908424
 20
166.753644
 30
0.0
 10
419.182424
 20
166.245644
 30
0.0
  0
LWPOLYLINE
  5
343
100
AcDbEntity
  8
text
 62
1
100
AcDbPolyline
 90
2
 70
0
 10
441.908424
 20
166.753644
 30
0.0
 10
419.182424
 20
169.276644
 30
0.0
  0
LWPOLYLINE
  5
344
100
AcDbEntity
  8
text
 62
1
100
AcDbPolyline
 90
2
 70
0
 10
441.908424
 20
166.753644
 30
0.0
 10
419.686424
 20
172.308644
 30
0.0
  0
LWPOLYLINE
  5
345
100
AcDbEntity
  8
text
 62
1
100
AcDbPolyline
 90
2
 70
0
 10
441.908424
 20
166.753644
 30
0.0
 10
420.697424
 20
175.843644
 30
0.0
  0
LWPOLYLINE
  5
346
100
AcDbEntity
  8
text
 62
1
100
AcDbPolyline
 90
2
 70
0
 10
441.908424
 20
166.753644
 30
0.0
 10
422.213424
 20
178.874644
 30
0.0
  0
LWPOLYLINE
  5
347
100
AcDbEntity
  8
text
 62
1
100
AcDbPolyline
 90
2
 70
0
 10
441.908424
 20
166.753644
 30
0.0
 10
424.232424
 20
181.401644
 30
0.0
  0
LWPOLYLINE
  5
348
100
AcDbEntity
  8
text
 62
1
100
AcDbPolyline
 90
2
 70
0
 10
441.908424
 20
166.753644
 30
0.0
 10
426.756424
 20
183.925644
 30
0.0
  0
LWPOLYLINE
  5
349
100
AcDbEntity
  8
text
 62
1
100
AcDbPolyline
 90
2
 70
0
 10
441.908424
 20
166.753644
 30
0.0
 10
429.283424
 20
185.944644
 30
0.0
  0
LWPOLYLINE
  5
34a
100
AcDbEntity
  8
text
 62
1
100
AcDbPolyline
 90
2
 70
0
 10
441.908424
 20
166.753644
 30
0.0
 10
432.314424
 20
187.460644
 30
0.0
  0
LWPOLYLINE
  5
34b
100
AcDbEntity
  8
text
 62
1
100
AcDbPolyline
 90
2
 70
0
 10
441.908424
 20
166.753644
 30
0.0
 10
435.342424
 20
188.976644
 30
0.0
  0
LWPOLYLINE
  5
34c
100
AcDbEntity
  8
text
 62
1
100
AcDbPolyline
 90
2
 70
0
 10
441.908424
 20
166.753644
 30
0.0
 10
438.881424
 20
189.480644
 30
0.0
  0
LWPOLYLINE
  5
34d
100
AcDbEntity
  8
text
 62
1
100
AcDbPolyline
 90
2
 70
0
 10
441.908424
 20
166.753644
 30
0.0
 10
441.908424
 20
189.987644
 30
0.0
  0
LWPOLYLINE
  5
34e
100
AcDbEntity
  8
text
 62
1
100
AcDbPolyline
 90
2
 70
0
 10
441.908424
 20
166.753644
 30
0.0
 10
444.939424
 20
189.480644
 30
0.0
  0
LWPOLYLINE
  5
34f
100
AcDbEntity
  8
text
 62
1
100
AcDbPolyline
 90
2
 70
0
 10
441.908424
 20
166.753644
 30
0.0
 10
448.475424
 20
188.976644
 30
0.0
  0
LWPOLYLINE
  5
350
100
AcDbEntity
  8
text
 62
1
100
AcDbPolyline
 90
2
 70
0
 10
441.908424
 20
166.753644
 30
0.0
 10
451.506424
 20
187.460644
 30
0.0
  0
LWPOLYLINE
  5
351
100
AcDbEntity
  8
text
 62
1
100
AcDbPolyline
 90
2
 70
0
 10
441.908424
 20
166.753644
 30
0.0
 10
454.537424
 20
185.944644
 30
0.0
  0
LWPOLYLINE
  5
352
100
AcDbEntity
  8
text
 62
1
100
AcDbPolyline
 90
2
 70
0
 10
441.908424
 20
166.753644
 30
0.0
 10
457.061424
 20
183.925644
 30
0.0
  0
LWPOLYLINE
  5
353
100
AcDbEntity
  8
text
 62
1
100
AcDbPolyline
 90
2
 70
0
 10
441.908424
 20
166.753644
 30
0.0
 10
459.588424
 20
181.401644
 30
0.0
  0
LWPOLYLINE
  5
354
100
AcDbEntity
  8
text
 62
1
100
AcDbPolyline
 90
2
 70
0
 10
441.908424
 20
166.753644
 30
0.0
 10
461.607424
 20
178.874644
 30
0.0
  0
LWPOLYLINE
  5
355
100
AcDbEntity
  8
text
 62
1
100
AcDbPolyline
 90
2
 70
0
 10
441.908424
 20
166.753644
 30
0.0
 10
463.123424
 20
175.843644
 30
0.0
  0
LWPOLYLINE
  5
356
100
AcDbEntity
  8
text
 62
1
100
AcDbPolyline
 90
2
 70
0
 10
441.908424
 20
166.753644
 30
0.0
 10
464.135424
 20
172.308644
 30
0.0
  0
LWPOLYLINE
  5
357
100
AcDbEntity
  8
text
 62
1
100
AcDbPolyline
 90
2
 70
0
 10
441.908424
 20
166.753644
 30
0.0
 10
464.639424
 20
169.276644
 30
0.0
  0
LWPOLYLINE
  5
358
100
AcDbEntity
  8
text
 62
1
100
AcDbPolyline
 90
2
 70
0
 10
441.908424
 20
166.753644
 30
0.0
 10
464.639424
 20
166.245644
 30
0.0
  0
LWPOLYLINE
  5
359
100
AcDbEntity
  8
text
 62
1
100
AcDbPolyline
 90
2
 70
0
 10
441.908424
 20
166.753644
 30
0.0
 10
464.639424
 20
163.218644
 30
0.0
  0
LWPOLYLINE
  5
35a
100
AcDbEntity
  8
text
 62
1
100
AcDbPolyline
 90
2
 70
0
 10
441.908424
 20
166.753644
 30
0.0
 10
463.627424
 20
159.683644
 30
0.0
  0
LWPOLYLINE
  5
35b
100
AcDbEntity
  8
text
 62
1
100
AcDbPolyline
 90
2
 70
0
 10
441.908424
 20
166.753644
 30
0.0
 10
462.619424
 20
156.651644
 30
0.0
  0
LWPOLYLINE
  5
35c
100
AcDbEntity
  8
text
 62
1
100
AcDbPolyline
 90
2
 70
0
 10
441.908424
 20
166.753644
 30
0.0
 10
460.600424
 20
153.620644
 30
0.0
  0
LWPOLYLINE
  5
35d
100
AcDbEntity
  8
text
 62
1
100
AcDbPolyline
 90
2
 70
0
 10
441.908424
 20
166.753644
 30
0.0
 10
458.576424
 20
151.093644
 30
0.0
  0
LWPOLYLINE
  5
35e
100
AcDbEntity
  8
text
 62
1
100
AcDbPolyline
 90
2
 70
0
 10
441.908424
 20
166.753644
 30
0.0
 10
456.053424
 20
148.569644
 30
0.0
  0
SPLINE
  5
35f
100
AcDbEntity
  8
text
 62
1
100
AcDbSpline
 70
8
 71
3
 72
8
 73
4
 74
0
 40
0
 40
0
 40
0
 40
0
 40
1
 40
1
 40
1
 40
1
 10
434.334424
 20
166.753644
 30
0.0
 10
434.334424
 20
171.296644
 30
0.0
 10
437.365424
 20
174.327644
 30
0.0
 10
441.908424
 20
174.327644
 30
0.0
  0
SPLINE
  5
360
100
AcDbEntity
  8
text
 62
1
100
AcDbSpline
 70
8
 71
3
 72
8
 73
4
 74
0
 40
0
 40
0
 40
0
 40
0
 40
1
 40
1
 40
1
 40
1
 10
441.908424
 20
174.327644
 30
0.0
 10
446.455424
 20
174.327644
 30
0.0
 10
449.486424
 20
171.296644
 30
0.0
 10
449.486424
 20
166.753644
 30
0.0
  0
SPLINE
  5
361
100
AcDbEntity
  8
text
 62
1
100
AcDbSpline
 70
8
 71
3
 72
8
 73
4
 74
0
 40
0
 40
0
 40
0
 40
0
 40
1
 40
1
 40
1
 40
1
 10
449.486424
 20
166.753644
 30
0.0
 10
449.486424
 20
162.206644
 30
0.0
 10
446.455424
 20
159.175644
 30
0.0
 10
441.908424
 20
159.175644
 30
0.0
  0
SPLINE
  5
362
100
AcDbEntity
  8
text
 62
1
100
AcDbSpline
 70
8
 71
3
 72
8
 73
4
 74
0
 40
0
 40
0
 40
0
 40
0
 40
1
 40
1
 40
1
 40
1
 10
441.908424
 20
159.175644
 30
0.0
 10
437.365424
 20
159.175644
 30
0.0
 10
434.334424
 20
162.206644
 30
0.0
 10
434.334424
 20
166.753644
 30
0.0
  0
LWPOLYLINE
  5
363
100
AcDbEntity
  8
text
 62
1
100
AcDbPolyline
 90
2
 70
0
 10
441.908424
 20
166.753644
 30
0.0
 10
453.525424
 20
147.054644
 30
0.0
  0
LWPOLYLINE
  5
364
100
AcDbEntity
  8
text
 62
1
100
AcDbPolyline
 90
2
 70
0
 10
438.881424
 20
166.753644
 30
0.0
 10
444.939424
 20
166.753644
 30
0.0
  0
SPLINE
  5
365
100
AcDbEntity
  8
text
 62
7
100
AcDbSpline
 70
8
 71
3
 72
8
 73
4
 74
0
 40
0
 40
0
 40
0
 40
0
 40
1
 40
1
 40
1
 40
1
 10
442.510424
 20
166.597644
 30
0.0
 10
442.510424
 20
166.261644
 30
0.0
 10
442.205424
 20
165.987644
 30
0.0
 10
441.830424
 20
165.987644
 30
0.0
  0
SPLINE
  5
366
100
AcDbEntity
  8
text
 62
7
100
AcDbSpline
 70
8
 71
3
 72
8
 73
4
 74
0
 40
0
 40
0
 40
0
 40
0
 40
1
 40
1
 40
1
 40
1
 10
441.830424
 20
165.987644
 30
0.0
 10
441.455424
 20
165.987644
 30
0.0
 10
441.150424
 20
166.261644
 30
0.0
 10
441.150424
 20
166.597644
 30
0.0
  0
SPLINE
  5
367
100
AcDbEntity
  8
text
 62
7
100
AcDbSpline
 70
8
 71
3
 72
8
 73
4
 74
0
 40
0
 40
0
 40
0
 40
0
 40
1
 40
1
 40
1
 40
1
 10
441.150424
 20
166.597644
 30
0.0
 10
441.150424
 20
166.937644
 30
0.0
 10
441.455424
 20
167.210644
 30
0.0
 10
441.830424
 20
167.210644
 30
0.0
  0
SPLINE
  5
368
100
AcDbEntity
  8
text
 62
7
100
AcDbSpline
 70
8
 71
3
 72
8
 73
4
 74
0
 40
0
 40
0
 40
0
 40
0
 40
1
 40
1
 40
1
 40
1
 10
441.830424
 20
167.210644
 30
0.0
 10
442.205424
 20
167.210644
 30
0.0
 10
442.510424
 20
166.937644
 30
0.0
 10
442.510424
 20
166.597644
 30
0.0
  0
LWPOLYLINE
  5
369
100
AcDbEntity
  8
text
 62
1
100
AcDbPolyline
 90
2
 70
0
 10
441.908424
 20
163.722644
 30
0.0
 10
441.908424
 20
169.784644
 30
0.0
  0
SPLINE
  5
36a
100
AcDbEntity
  8
text
 62
1
100
AcDbSpline
 70
8
 71
3
 72
8
 73
4
 74
0
 40
0
 40
0
 40
0
 40
0
 40
1
 40
1
 40
1
 40
1
 10
413.573783
 20
296.165324
 30
0.0
 10
413.573783
 20
301.185324
 30
0.0
 10
416.921783
 20
304.532324
 30
0.0
 10
421.944783
 20
304.532324
 30
0.0
  0
SPLINE
  5
36b
100
AcDbEntity
  8
text
 62
1
100
AcDbSpline
 70
8
 71
3
 72
8
 73
4
 74
0
 40
0
 40
0
 40
0
 40
0
 40
1
 40
1
 40
1
 40
1
 10
421.944783
 20
304.532324
 30
0.0
 10
426.964783
 20
304.532324
 30
0.0
 10
430.307783
 20
301.185324
 30
0.0
 10
430.307783
 20
296.165324
 30
0.0
  0
SPLINE
  5
36c
100
AcDbEntity
  8
text
 62
1
100
AcDbSpline
 70
8
 71
3
 72
8
 73
4
 74
0
 40
0
 40
0
 40
0
 40
0
 40
1
 40
1
 40
1
 40
1
 10
430.307783
 20
296.165324
 30
0.0
 10
430.307783
 20
291.146324
 30
0.0
 10
426.964783
 20
287.798324
 30
0.0
 10
421.944783
 20
287.798324
 30
0.0
  0
SPLINE
  5
36d
100
AcDbEntity
  8
text
 62
1
100
AcDbSpline
 70
8
 71
3
 72
8
 73
4
 74
0
 40
0
 40
0
 40
0
 40
0
 40
1
 40
1
 40
1
 40
1
 10
421.944783
 20
287.798324
 30
0.0
 10
416.921783
 20
287.798324
 30
0.0
 10
413.573783
 20
291.146324
 30
0.0
 10
413.573783
 20
296.165324
 30
0.0
  0
LWPOLYLINE
  5
36e
100
AcDbEntity
  8
text
 62
7
100
AcDbPolyline
 90
2
 70
1
 10
442.510424
 20
166.597644
 30
0.0
 10
442.510424
 20
166.597644
 30
0.0
  0
LWPOLYLINE
  5
36f
100
AcDbEntity
  8
text
 62
1
100
AcDbPolyline
 90
2
 70
0
 10
418.597783
 20
296.165324
 30
0.0
 10
425.288783
 20
296.165324
 30
0.0
  0
SPLINE
  5
370
100
AcDbEntity
  8
text
 62
1
100
AcDbSpline
 70
8
 71
3
 72
8
 73
4
 74
0
 40
0
 40
0
 40
0
 40
0
 40
1
 40
1
 40
1
 40
1
 10
519.172677
 20
123.247964
 30
0.0
 10
519.172677
 20
128.271964
 30
0.0
 10
522.520677
 20
131.614964
 30
0.0
 10
527.543677
 20
131.614964
 30
0.0
  0
SPLINE
  5
371
100
AcDbEntity
  8
text
 62
1
100
AcDbSpline
 70
8
 71
3
 72
8
 73
4
 74
0
 40
0
 40
0
 40
0
 40
0
 40
1
 40
1
 40
1
 40
1
 10
527.543677
 20
131.614964
 30
0.0
 10
532.563677
 20
131.614964
 30
0.0
 10
535.906677
 20
128.271964
 30
0.0
 10
535.906677
 20
123.247964
 30
0.0
  0
SPLINE
  5
372
100
AcDbEntity
  8
text
 62
1
100
AcDbSpline
 70
8
 71
3
 72
8
 73
4
 74
0
 40
0
 40
0
 40
0
 40
0
 40
1
 40
1
 40
1
 40
1
 10
535.906677
 20
123.247964
 30
0.0
 10
535.906677
 20
118.232964
 30
0.0
 10
532.563677
 20
114.884964
 30
0.0
 10
527.543677
 20
114.884964
 30
0.0
  0
SPLINE
  5
373
100
AcDbEntity
  8
text
 62
1
100
AcDbSpline
 70
8
 71
3
 72
8
 73
4
 74
0
 40
0
 40
0
 40
0
 40
0
 40
1
 40
1
 40
1
 40
1
 10
527.543677
 20
114.884964
 30
0.0
 10
522.520677
 20
114.884964
 30
0.0
 10
519.172677
 20
118.232964
 30
0.0
 10
519.172677
 20
123.247964
 30
0.0
  0
LWPOLYLINE
  5
374
100
AcDbEntity
  8
text
 62
1
100
AcDbPolyline
 90
2
 70
0
 10
421.944783
 20
292.818324
 30
0.0
 10
421.944783
 20
299.513324
 30
0.0
  0
LWPOLYLINE
  5
375
100
AcDbEntity
  8
text
 62
1
100
AcDbPolyline
 90
2
 70
0
 10
524.196677
 20
123.247964
 30
0.0
 10
530.887677
 20
123.247964
 30
0.0
  0
LWPOLYLINE
  5
376
100
AcDbEntity
  8
text
 62
1
100
AcDbPolyline
 90
2
 70
0
 10
527.543677
 20
119.903964
 30
0.0
 10
527.543677
 20
126.599964
 30
0.0
  0
SPLINE
  5
377
100
AcDbEntity
  8
text
 62
1
100
AcDbSpline
 70
8
 71
3
 72
8
 73
4
 74
0
 40
0
 40
0
 40
0
 40
0
 40
1
 40
1
 40
1
 40
1
 10
580.283694
 20
379.060548
 30
0.0
 10
580.283694
 20
378.685548
 30
0.0
 10
579.947694
 20
378.381548
 30
0.0
 10
579.533694
 20
378.381548
 30
0.0
  0
SPLINE
  5
378
100
AcDbEntity
  8
text
 62
1
100
AcDbSpline
 70
8
 71
3
 72
8
 73
4
 74
0
 40
0
 40
0
 40
0
 40
0
 40
1
 40
1
 40
1
 40
1
 10
579.533694
 20
378.381548
 30
0.0
 10
579.118694
 20
378.381548
 30
0.0
 10
578.786694
 20
378.685548
 30
0.0
 10
578.786694
 20
379.060548
 30
0.0
  0
SPLINE
  5
379
100
AcDbEntity
  8
text
 62
1
100
AcDbSpline
 70
8
 71
3
 72
8
 73
4
 74
0
 40
0
 40
0
 40
0
 40
0
 40
1
 40
1
 40
1
 40
1
 10
578.786694
 20
379.060548
 30
0.0
 10
578.786694
 20
379.435548
 30
0.0
 10
579.118694
 20
379.740548
 30
0.0
 10
579.533694
 20
379.740548
 30
0.0
  0
SPLINE
  5
37a
100
AcDbEntity
  8
text
 62
1
100
AcDbSpline
 70
8
 71
3
 72
8
 73
4
 74
0
 40
0
 40
0
 40
0
 40
0
 40
1
 40
1
 40
1
 40
1
 10
579.533694
 20
379.740548
 30
0.0
 10
579.947694
 20
379.740548
 30
0.0
 10
580.283694
 20
379.435548
 30
0.0
 10
580.283694
 20
379.060548
 30
0.0
  0
LWPOLYLINE
  5
37b
100
AcDbEntity
  8
text
 62
1
100
AcDbPolyline
 90
6
 70
0
 10
529.348150
 20
24.969874
 30
0.0
 10
496.656417
 20
24.969874
 30
0.0
 10
496.656417
 20
388.982099
 30
0.0
 10
587.183560
 20
388.982099
 30
0.0
 10
587.183560
 20
24.969874
 30
0.0
 10
496.656417
 20
24.969874
 30
0.0
  0
SPLINE
  5
37c
100
AcDbEntity
  8
text
 62
1
100
AcDbSpline
 70
8
 71
3
 72
8
 73
4
 74
0
 40
0
 40
0
 40
0
 40
0
 40
1
 40
1
 40
1
 40
1
 10
521.968592
 20
33.574548
 30
0.0
 10
521.968592
 20
33.312548
 30
0.0
 10
521.694592
 20
33.097548
 30
0.0
 10
521.355592
 20
33.097548
 30
0.0
  0
SPLINE
  5
37d
100
AcDbEntity
  8
text
 62
1
100
AcDbSpline
 70
8
 71
3
 72
8
 73
4
 74
0
 40
0
 40
0
 40
0
 40
0
 40
1
 40
1
 40
1
 40
1
 10
521.355592
 20
33.097548
 30
0.0
 10
521.019592
 20
33.097548
 30
0.0
 10
520.741592
 20
33.312548
 30
0.0
 10
520.741592
 20
33.574548
 30
0.0
  0
SPLINE
  5
37e
100
AcDbEntity
  8
text
 62
1
100
AcDbSpline
 70
8
 71
3
 72
8
 73
4
 74
0
 40
0
 40
0
 40
0
 40
0
 40
1
 40
1
 40
1
 40
1
 10
520.741592
 20
33.574548
 30
0.0
 10
520.741592
 20
33.835548
 30
0.0
 10
521.019592
 20
34.050548
 30
0.0
 10
521.355592
 20
34.050548
 30
0.0
  0
SPLINE
  5
37f
100
AcDbEntity
  8
text
 62
1
100
AcDbSpline
 70
8
 71
3
 72
8
 73
4
 74
0
 40
0
 40
0
 40
0
 40
0
 40
1
 40
1
 40
1
 40
1
 10
521.355592
 20
34.050548
 30
0.0
 10
521.694592
 20
34.050548
 30
0.0
 10
521.968592
 20
33.835548
 30
0.0
 10
521.968592
 20
33.574548
 30
0.0
  0
LWPOLYLINE
  5
380
100
AcDbEntity
  8
text
 62
1
100
AcDbPolyline
 90
2
 70
1
 10
580.283694
 20
379.060548
 30
0.0
 10
580.283694
 20
379.060548
 30
0.0
  0
LWPOLYLINE
  5
381
100
AcDbEntity
  8
text
 62
1
100
AcDbPolyline
 90
2
 70
1
 10
521.968592
 20
33.574548
 30
0.0
 10
521.968592
 20
33.574548
 30
0.0
  0
LWPOLYLINE
  5
382
100
AcDbEntity
  8
text
 62
1
100
AcDbPolyline
 90
2
 70
0
 10
547.508880
 20
217.210364
 30
0.0
 10
534.883880
 20
194.479364
 30
0.0
  0
LWPOLYLINE
  5
383
100
AcDbEntity
  8
text
 62
1
100
AcDbPolyline
 90
2
 70
0
 10
547.508880
 20
217.210364
 30
0.0
 10
524.274880
 20
205.593364
 30
0.0
  0
LWPOLYLINE
  5
384
100
AcDbEntity
  8
text
 62
1
100
AcDbPolyline
 90
2
 70
0
 10
547.508880
 20
217.210364
 30
0.0
 10
521.750880
 20
220.241364
 30
0.0
  0
LWPOLYLINE
  5
385
100
AcDbEntity
  8
text
 62
1
100
AcDbPolyline
 90
2
 70
0
 10
547.508880
 20
217.210364
 30
0.0
 10
527.813880
 20
233.878364
 30
0.0
  0
LWPOLYLINE
  5
386
100
AcDbEntity
  8
text
 62
1
100
AcDbPolyline
 90
2
 70
0
 10
547.508880
 20
217.210364
 30
0.0
 10
540.438880
 20
241.960364
 30
0.0
  0
LWPOLYLINE
  5
387
100
AcDbEntity
  8
text
 62
1
100
AcDbPolyline
 90
2
 70
0
 10
547.508880
 20
217.210364
 30
0.0
 10
554.582880
 20
241.960364
 30
0.0
  0
LWPOLYLINE
  5
388
100
AcDbEntity
  8
text
 62
1
100
AcDbPolyline
 90
2
 70
0
 10
547.508880
 20
217.210364
 30
0.0
 10
567.207880
 20
233.878364
 30
0.0
  0
LWPOLYLINE
  5
389
100
AcDbEntity
  8
text
 62
1
100
AcDbPolyline
 90
2
 70
0
 10
547.508880
 20
217.210364
 30
0.0
 10
573.270880
 20
220.241364
 30
0.0
  0
LWPOLYLINE
  5
38a
100
AcDbEntity
  8
text
 62
1
100
AcDbPolyline
 90
2
 70
0
 10
547.508880
 20
217.210364
 30
0.0
 10
570.743880
 20
205.593364
 30
0.0
  0
LWPOLYLINE
  5
38b
100
AcDbEntity
  8
text
 62
1
100
AcDbPolyline
 90
2
 70
0
 10
547.508880
 20
217.210364
 30
0.0
 10
560.641880
 20
194.479364
 30
0.0
  0
LWPOLYLINE
  5
38c
100
AcDbEntity
  8
text
 62
1
100
AcDbPolyline
 90
2
 70
0
 10
547.508880
 20
217.210364
 30
0.0
 10
536.399880
 20
197.511364
 30
0.0
  0
LWPOLYLINE
  5
38d
100
AcDbEntity
  8
text
 62
1
100
AcDbPolyline
 90
2
 70
0
 10
547.508880
 20
217.210364
 30
0.0
 10
533.368880
 20
199.026364
 30
0.0
  0
LWPOLYLINE
  5
38e
100
AcDbEntity
  8
text
 62
1
100
AcDbPolyline
 90
2
 70
0
 10
547.508880
 20
217.210364
 30
0.0
 10
530.840880
 20
201.550364
 30
0.0
  0
LWPOLYLINE
  5
38f
100
AcDbEntity
  8
text
 62
1
100
AcDbPolyline
 90
2
 70
0
 10
547.508880
 20
217.210364
 30
0.0
 10
528.821880
 20
204.077364
 30
0.0
  0
LWPOLYLINE
  5
390
100
AcDbEntity
  8
text
 62
1
100
AcDbPolyline
 90
2
 70
0
 10
547.508880
 20
217.210364
 30
0.0
 10
526.801880
 20
207.108364
 30
0.0
  0
LWPOLYLINE
  5
391
100
AcDbEntity
  8
text
 62
1
100
AcDbPolyline
 90
2
 70
0
 10
547.508880
 20
217.210364
 30
0.0
 10
525.789880
 20
210.140364
 30
0.0
  0
LWPOLYLINE
  5
392
100
AcDbEntity
  8
text
 62
1
100
AcDbPolyline
 90
2
 70
0
 10
547.508880
 20
217.210364
 30
0.0
 10
524.782880
 20
213.675364
 30
0.0
  0
LWPOLYLINE
  5
393
100
AcDbEntity
  8
text
 62
1
100
AcDbPolyline
 90
2
 70
0
 10
547.508880
 20
217.210364
 30
0.0
 10
524.782880
 20
216.702364
 30
0.0
  0
LWPOLYLINE
  5
394
100
AcDbEntity
  8
text
 62
1
100
AcDbPolyline
 90
2
 70
0
 10
547.508880
 20
217.210364
 30
0.0
 10
524.782880
 20
219.733364
 30
0.0
  0
LWPOLYLINE
  5
395
100
AcDbEntity
  8
text
 62
1
100
AcDbPolyline
 90
2
 70
0
 10
547.508880
 20
217.210364
 30
0.0
 10
525.286880
 20
222.765364
 30
0.0
  0
LWPOLYLINE
  5
396
100
AcDbEntity
  8
text
 62
1
100
AcDbPolyline
 90
2
 70
0
 10
547.508880
 20
217.210364
 30
0.0
 10
526.297880
 20
226.300364
 30
0.0
  0
LWPOLYLINE
  5
397
100
AcDbEntity
  8
text
 62
1
100
AcDbPolyline
 90
2
 70
0
 10
547.508880
 20
217.210364
 30
0.0
 10
527.813880
 20
229.331364
 30
0.0
  0
LWPOLYLINE
  5
398
100
AcDbEntity
  8
text
 62
1
100
AcDbPolyline
 90
2
 70
0
 10
547.508880
 20
217.210364
 30
0.0
 10
529.832880
 20
231.858364
 30
0.0
  0
LWPOLYLINE
  5
399
100
AcDbEntity
  8
text
 62
1
100
AcDbPolyline
 90
2
 70
0
 10
547.508880
 20
217.210364
 30
0.0
 10
532.356880
 20
234.382364
 30
0.0
  0
LWPOLYLINE
  5
39a
100
AcDbEntity
  8
text
 62
1
100
AcDbPolyline
 90
2
 70
0
 10
547.508880
 20
217.210364
 30
0.0
 10
534.883880
 20
236.401364
 30
0.0
  0
LWPOLYLINE
  5
39b
100
AcDbEntity
  8
text
 62
1
100
AcDbPolyline
 90
2
 70
0
 10
547.508880
 20
217.210364
 30
0.0
 10
537.914880
 20
237.917364
 30
0.0
  0
LWPOLYLINE
  5
39c
100
AcDbEntity
  8
text
 62
1
100
AcDbPolyline
 90
2
 70
0
 10
547.508880
 20
217.210364
 30
0.0
 10
540.942880
 20
239.433364
 30
0.0
  0
LWPOLYLINE
  5
39d
100
AcDbEntity
  8
text
 62
1
100
AcDbPolyline
 90
2
 70
0
 10
547.508880
 20
217.210364
 30
0.0
 10
544.481880
 20
239.937364
 30
0.0
  0
LWPOLYLINE
  5
39e
100
AcDbEntity
  8
text
 62
1
100
AcDbPolyline
 90
2
 70
0
 10
547.508880
 20
217.210364
 30
0.0
 10
547.508880
 20
240.444364
 30
0.0
  0
LWPOLYLINE
  5
39f
100
AcDbEntity
  8
text
 62
1
100
AcDbPolyline
 90
2
 70
0
 10
547.508880
 20
217.210364
 30
0.0
 10
550.539880
 20
239.937364
 30
0.0
  0
LWPOLYLINE
  5
3a0
100
AcDbEntity
  8
text
 62
1
100
AcDbPolyline
 90
2
 70
0
 10
547.508880
 20
217.210364
 30
0.0
 10
554.075880
 20
239.433364
 30
0.0
  0
LWPOLYLINE
  5
3a1
100
AcDbEntity
  8
text
 62
1
100
AcDbPolyline
 90
2
 70
0
 10
547.508880
 20
217.210364
 30
0.0
 10
557.106880
 20
237.917364
 30
0.0
  0
LWPOLYLINE
  5
3a2
100
AcDbEntity
  8
text
 62
1
100
AcDbPolyline
 90
2
 70
0
 10
547.508880
 20
217.210364
 30
0.0
 10
560.137880
 20
236.401364
 30
0.0
  0
LWPOLYLINE
  5
3a3
100
AcDbEntity
  8
text
 62
1
100
AcDbPolyline
 90
2
 70
0
 10
547.508880
 20
217.210364
 30
0.0
 10
562.661880
 20
234.382364
 30
0.0
  0
LWPOLYLINE
  5
3a4
100
AcDbEntity
  8
text
 62
1
100
AcDbPolyline
 90
2
 70
0
 10
547.508880
 20
217.210364
 30
0.0
 10
565.188880
 20
231.858364
 30
0.0
  0
LWPOLYLINE
  5
3a5
100
AcDbEntity
  8
text
 62
1
100
AcDbPolyline
 90
2
 70
0
 10
547.508880
 20
217.210364
 30
0.0
 10
567.207880
 20
229.331364
 30
0.0
  0
LWPOLYLINE
  5
3a6
100
AcDbEntity
  8
text
 62
1
100
AcDbPolyline
 90
2
 70
0
 10
547.508880
 20
217.210364
 30
0.0
 10
568.723880
 20
226.300364
 30
0.0
  0
LWPOLYLINE
  5
3a7
100
AcDbEntity
  8
text
 62
1
100
AcDbPolyline
 90
2
 70
0
 10
547.508880
 20
217.210364
 30
0.0
 10
569.735880
 20
222.765364
 30
0.0
  0
LWPOLYLINE
  5
3a8
100
AcDbEntity
  8
text
 62
1
100
AcDbPolyline
 90
2
 70
0
 10
547.508880
 20
217.210364
 30
0.0
 10
570.239880
 20
219.733364
 30
0.0
  0
LWPOLYLINE
  5
3a9
100
AcDbEntity
  8
text
 62
1
100
AcDbPolyline
 90
2
 70
0
 10
547.508880
 20
217.210364
 30
0.0
 10
570.239880
 20
216.702364
 30
0.0
  0
LWPOLYLINE
  5
3aa
100
AcDbEntity
  8
text
 62
1
100
AcDbPolyline
 90
2
 70
0
 10
547.508880
 20
217.210364
 30
0.0
 10
570.239880
 20
213.675364
 30
0.0
  0
LWPOLYLINE
  5
3ab
100
AcDbEntity
  8
text
 62
1
100
AcDbPolyline
 90
2
 70
0
 10
547.508880
 20
217.210364
 30
0.0
 10
569.227880
 20
210.140364
 30
0.0
  0
LWPOLYLINE
  5
3ac
100
AcDbEntity
  8
text
 62
1
100
AcDbPolyline
 90
2
 70
0
 10
547.508880
 20
217.210364
 30
0.0
 10
568.219880
 20
207.108364
 30
0.0
  0
LWPOLYLINE
  5
3ad
100
AcDbEntity
  8
text
 62
1
100
AcDbPolyline
 90
2
 70
0
 10
547.508880
 20
217.210364
 30
0.0
 10
566.200880
 20
204.077364
 30
0.0
  0
LWPOLYLINE
  5
3ae
100
AcDbEntity
  8
text
 62
1
100
AcDbPolyline
 90
2
 70
0
 10
547.508880
 20
217.210364
 30
0.0
 10
564.176880
 20
201.550364
 30
0.0
  0
LWPOLYLINE
  5
3af
100
AcDbEntity
  8
text
 62
1
100
AcDbPolyline
 90
2
 70
0
 10
547.508880
 20
217.210364
 30
0.0
 10
561.653880
 20
199.026364
 30
0.0
  0
SPLINE
  5
3b0
100
AcDbEntity
  8
text
 62
1
100
AcDbSpline
 70
8
 71
3
 72
8
 73
4
 74
0
 40
0
 40
0
 40
0
 40
0
 40
1
 40
1
 40
1
 40
1
 10
539.934880
 20
217.210364
 30
0.0
 10
539.934880
 20
221.753364
 30
0.0
 10
542.965880
 20
224.784364
 30
0.0
 10
547.508880
 20
224.784364
 30
0.0
  0
SPLINE
  5
3b1
100
AcDbEntity
  8
text
 62
1
100
AcDbSpline
 70
8
 71
3
 72
8
 73
4
 74
0
 40
0
 40
0
 40
0
 40
0
 40
1
 40
1
 40
1
 40
1
 10
547.508880
 20
224.784364
 30
0.0
 10
552.055880
 20
224.784364
 30
0.0
 10
555.086880
 20
221.753364
 30
0.0
 10
555.086880
 20
217.210364
 30
0.0
  0
SPLINE
  5
3b2
100
AcDbEntity
  8
text
 62
1
100
AcDbSpline
 70
8
 71
3
 72
8
 73
4
 74
0
 40
0
 40
0
 40
0
 40
0
 40
1
 40
1
 40
1
 40
1
 10
555.086880
 20
217.210364
 30
0.0
 10
555.086880
 20
212.663364
 30
0.0
 10
552.055880
 20
209.632364
 30
0.0
 10
547.508880
 20
209.632364
 30
0.0
  0
SPLINE
  5
3b3
100
AcDbEntity
  8
text
 62
1
100
AcDbSpline
 70
8
 71
3
 72
8
 73
4
 74
0
 40
0
 40
0
 40
0
 40
0
 40
1
 40
1
 40
1
 40
1
 10
547.508880
 20
209.632364
 30
0.0
 10
542.965880
 20
209.632364
 30
0.0
 10
539.934880
 20
212.663364
 30
0.0
 10
539.934880
 20
217.210364
 30
0.0
  0
LWPOLYLINE
  5
3b4
100
AcDbEntity
  8
text
 62
1
100
AcDbPolyline
 90
2
 70
0
 10
547.508880
 20
217.210364
 30
0.0
 10
559.125880
 20
197.511364
 30
0.0
  0
LWPOLYLINE
  5
3b5
100
AcDbEntity
  8
text
 62
1
100
AcDbPolyline
 90
2
 70
0
 10
544.481880
 20
217.210364
 30
0.0
 10
550.539880
 20
217.210364
 30
0.0
  0
SPLINE
  5
3b6
100
AcDbEntity
  8
text
 62
7
100
AcDbSpline
 70
8
 71
3
 72
8
 73
4
 74
0
 40
0
 40
0
 40
0
 40
0
 40
1
 40
1
 40
1
 40
1
 10
548.110880
 20
217.054364
 30
0.0
 10
548.110880
 20
216.718364
 30
0.0
 10
547.805880
 20
216.444364
 30
0.0
 10
547.430880
 20
216.444364
 30
0.0
  0
SPLINE
  5
3b7
100
AcDbEntity
  8
text
 62
7
100
AcDbSpline
 70
8
 71
3
 72
8
 73
4
 74
0
 40
0
 40
0
 40
0
 40
0
 40
1
 40
1
 40
1
 40
1
 10
547.430880
 20
216.444364
 30
0.0
 10
547.055880
 20
216.444364
 30
0.0
 10
546.750880
 20
216.718364
 30
0.0
 10
546.750880
 20
217.054364
 30
0.0
  0
SPLINE
  5
3b8
100
AcDbEntity
  8
text
 62
7
100
AcDbSpline
 70
8
 71
3
 72
8
 73
4
 74
0
 40
0
 40
0
 40
0
 40
0
 40
1
 40
1
 40
1
 40
1
 10
546.750880
 20
217.054364
 30
0.0
 10
546.750880
 20
217.394364
 30
0.0
 10
547.055880
 20
217.667364
 30
0.0
 10
547.430880
 20
217.667364
 30
0.0
  0
SPLINE
  5
3b9
100
AcDbEntity
  8
text
 62
7
100
AcDbSpline
 70
8
 71
3
 72
8
 73
4
 74
0
 40
0
 40
0
 40
0
 40
0
 40
1
 40
1
 40
1
 40
1
 10
547.430880
 20
217.667364
 30
0.0
 10
547.805880
 20
217.667364
 30
0.0
 10
548.110880
 20
217.394364
 30
0.0
 10
548.110880
 20
217.054364
 30
0.0
  0
LWPOLYLINE
  5
3ba
100
AcDbEntity
  8
text
 62
1
100
AcDbPolyline
 90
2
 70
0
 10
547.508880
 20
214.179364
 30
0.0
 10
547.508880
 20
220.241364
 30
0.0
  0
SPLINE
  5
3bb
100
AcDbEntity
  8
text
 62
1
100
AcDbSpline
 70
8
 71
3
 72
8
 73
4
 74
0
 40
0
 40
0
 40
0
 40
0
 40
1
 40
1
 40
1
 40
1
 10
519.173783
 20
259.881884
 30
0.0
 10
519.173783
 20
264.901884
 30
0.0
 10
522.521783
 20
268.248884
 30
0.0
 10
527.544783
 20
268.248884
 30
0.0
  0
SPLINE
  5
3bc
100
AcDbEntity
  8
text
 62
1
100
AcDbSpline
 70
8
 71
3
 72
8
 73
4
 74
0
 40
0
 40
0
 40
0
 40
0
 40
1
 40
1
 40
1
 40
1
 10
527.544783
 20
268.248884
 30
0.0
 10
532.564783
 20
268.248884
 30
0.0
 10
535.907783
 20
264.901884
 30
0.0
 10
535.907783
 20
259.881884
 30
0.0
  0
SPLINE
  5
3bd
100
AcDbEntity
  8
text
 62
1
100
AcDbSpline
 70
8
 71
3
 72
8
 73
4
 74
0
 40
0
 40
0
 40
0
 40
0
 40
1
 40
1
 40
1
 40
1
 10
535.907783
 20
259.881884
 30
0.0
 10
535.907783
 20
254.862884
 30
0.0
 10
532.564783
 20
251.514884
 30
0.0
 10
527.544783
 20
251.514884
 30
0.0
  0
SPLINE
  5
3be
100
AcDbEntity
  8
text
 62
1
100
AcDbSpline
 70
8
 71
3
 72
8
 73
4
 74
0
 40
0
 40
0
 40
0
 40
0
 40
1
 40
1
 40
1
 40
1
 10
527.544783
 20
251.514884
 30
0.0
 10
522.521783
 20
251.514884
 30
0.0
 10
519.173783
 20
254.862884
 30
0.0
 10
519.173783
 20
259.881884
 30
0.0
  0
LWPOLYLINE
  5
3bf
100
AcDbEntity
  8
text
 62
7
100
AcDbPolyline
 90
2
 70
1
 10
548.110880
 20
217.054364
 30
0.0
 10
548.110880
 20
217.054364
 30
0.0
  0
LWPOLYLINE
  5
3c0
100
AcDbEntity
  8
text
 62
1
100
AcDbPolyline
 90
2
 70
0
 10
524.197783
 20
259.881884
 30
0.0
 10
530.888783
 20
259.881884
 30
0.0
  0
LWPOLYLINE
  5
3c1
100
AcDbEntity
  8
text
 62
1
100
AcDbPolyline
 90
2
 70
0
 10
527.544783
 20
256.534884
 30
0.0
 10
527.544783
 20
263.229884
 30
0.0
  0
LWPOLYLINE
  5
3c2
100
AcDbEntity
  8
text
 62
1
100
AcDbPolyline
 90
2
 70
0
 10
547.508424
 20
166.753644
 30
0.0
 10
534.883424
 20
144.022644
 30
0.0
  0
LWPOLYLINE
  5
3c3
100
AcDbEntity
  8
text
 62
1
100
AcDbPolyline
 90
2
 70
0
 10
547.508424
 20
166.753644
 30
0.0
 10
524.274424
 20
155.136644
 30
0.0
  0
LWPOLYLINE
  5
3c4
100
AcDbEntity
  8
text
 62
1
100
AcDbPolyline
 90
2
 70
0
 10
547.508424
 20
166.753644
 30
0.0
 10
521.750424
 20
169.784644
 30
0.0
  0
LWPOLYLINE
  5
3c5
100
AcDbEntity
  8
text
 62
1
100
AcDbPolyline
 90
2
 70
0
 10
547.508424
 20
166.753644
 30
0.0
 10
527.813424
 20
183.421644
 30
0.0
  0
LWPOLYLINE
  5
3c6
100
AcDbEntity
  8
text
 62
1
100
AcDbPolyline
 90
2
 70
0
 10
547.508424
 20
166.753644
 30
0.0
 10
540.438424
 20
191.503644
 30
0.0
  0
LWPOLYLINE
  5
3c7
100
AcDbEntity
  8
text
 62
1
100
AcDbPolyline
 90
2
 70
0
 10
547.508424
 20
166.753644
 30
0.0
 10
554.582424
 20
191.503644
 30
0.0
  0
LWPOLYLINE
  5
3c8
100
AcDbEntity
  8
text
 62
1
100
AcDbPolyline
 90
2
 70
0
 10
547.508424
 20
166.753644
 30
0.0
 10
567.207424
 20
183.421644
 30
0.0
  0
LWPOLYLINE
  5
3c9
100
AcDbEntity
  8
text
 62
1
100
AcDbPolyline
 90
2
 70
0
 10
547.508424
 20
166.753644
 30
0.0
 10
573.270424
 20
169.784644
 30
0.0
  0
LWPOLYLINE
  5
3ca
100
AcDbEntity
  8
text
 62
1
100
AcDbPolyline
 90
2
 70
0
 10
547.508424
 20
166.753644
 30
0.0
 10
570.743424
 20
155.136644
 30
0.0
  0
LWPOLYLINE
  5
3cb
100
AcDbEntity
  8
text
 62
1
100
AcDbPolyline
 90
2
 70
0
 10
547.508424
 20
166.753644
 30
0.0
 10
560.641424
 20
144.022644
 30
0.0
  0
LWPOLYLINE
  5
3cc
100
AcDbEntity
  8
text
 62
1
100
AcDbPolyline
 90
2
 70
0
 10
547.508424
 20
166.753644
 30
0.0
 10
536.399424
 20
147.054644
 30
0.0
  0
LWPOLYLINE
  5
3cd
100
AcDbEntity
  8
text
 62
1
100
AcDbPolyline
 90
2
 70
0
 10
547.508424
 20
166.753644
 30
0.0
 10
533.368424
 20
148.569644
 30
0.0
  0
LWPOLYLINE
  5
3ce
100
AcDbEntity
  8
text
 62
1
100
AcDbPolyline
 90
2
 70
0
 10
547.508424
 20
166.753644
 30
0.0
 10
530.840424
 20
151.093644
 30
0.0
  0
LWPOLYLINE
  5
3cf
100
AcDbEntity
  8
text
 62
1
100
AcDbPolyline
 90
2
 70
0
 10
547.508424
 20
166.753644
 30
0.0
 10
528.821424
 20
153.620644
 30
0.0
  0
LWPOLYLINE
  5
3d0
100
AcDbEntity
  8
text
 62
1
100
AcDbPolyline
 90
2
 70
0
 10
547.508424
 20
166.753644
 30
0.0
 10
526.801424
 20
156.651644
 30
0.0
  0
LWPOLYLINE
  5
3d1
100
AcDbEntity
  8
text
 62
1
100
AcDbPolyline
 90
2
 70
0
 10
547.508424
 20
166.753644
 30
0.0
 10
525.789424
 20
159.683644
 30
0.0
  0
LWPOLYLINE
  5
3d2
100
AcDbEntity
  8
text
 62
1
100
AcDbPolyline
 90
2
 70
0
 10
547.508424
 20
166.753644
 30
0.0
 10
524.782424
 20
163.218644
 30
0.0
  0
LWPOLYLINE
  5
3d3
100
AcDbEntity
  8
text
 62
1
100
AcDbPolyline
 90
2
 70
0
 10
547.508424
 20
166.753644
 30
0.0
 10
524.782424
 20
166.245644
 30
0.0
  0
LWPOLYLINE
  5
3d4
100
AcDbEntity
  8
text
 62
1
100
AcDbPolyline
 90
2
 70
0
 10
547.508424
 20
166.753644
 30
0.0
 10
524.782424
 20
169.276644
 30
0.0
  0
LWPOLYLINE
  5
3d5
100
AcDbEntity
  8
text
 62
1
100
AcDbPolyline
 90
2
 70
0
 10
547.508424
 20
166.753644
 30
0.0
 10
525.286424
 20
172.308644
 30
0.0
  0
LWPOLYLINE
  5
3d6
100
AcDbEntity
  8
text
 62
1
100
AcDbPolyline
 90
2
 70
0
 10
547.508424
 20
166.753644
 30
0.0
 10
526.297424
 20
175.843644
 30
0.0
  0
LWPOLYLINE
  5
3d7
100
AcDbEntity
  8
text
 62
1
100
AcDbPolyline
 90
2
 70
0
 10
547.508424
 20
166.753644
 30
0.0
 10
527.813424
 20
178.874644
 30
0.0
  0
LWPOLYLINE
  5
3d8
100
AcDbEntity
  8
text
 62
1
100
AcDbPolyline
 90
2
 70
0
 10
547.508424
 20
166.753644
 30
0.0
 10
529.832424
 20
181.401644
 30
0.0
  0
LWPOLYLINE
  5
3d9
100
AcDbEntity
  8
text
 62
1
100
AcDbPolyline
 90
2
 70
0
 10
547.508424
 20
166.753644
 30
0.0
 10
532.356424
 20
183.925644
 30
0.0
  0
LWPOLYLINE
  5
3da
100
AcDbEntity
  8
text
 62
1
100
AcDbPolyline
 90
2
 70
0
 10
547.508424
 20
166.753644
 30
0.0
 10
534.883424
 20
185.944644
 30
0.0
  0
LWPOLYLINE
  5
3db
100
AcDbEntity
  8
text
 62
1
100
AcDbPolyline
 90
2
 70
0
 10
547.508424
 20
166.753644
 30
0.0
 10
537.914424
 20
187.460644
 30
0.0
  0
LWPOLYLINE
  5
3dc
100
AcDbEntity
  8
text
 62
1
100
AcDbPolyline
 90
2
 70
0
 10
547.508424
 20
166.753644
 30
0.0
 10
540.942424
 20
188.976644
 30
0.0
  0
LWPOLYLINE
  5
3dd
100
AcDbEntity
  8
text
 62
1
100
AcDbPolyline
 90
2
 70
0
 10
547.508424
 20
166.753644
 30
0.0
 10
544.481424
 20
189.480644
 30
0.0
  0
LWPOLYLINE
  5
3de
100
AcDbEntity
  8
text
 62
1
100
AcDbPolyline
 90
2
 70
0
 10
547.508424
 20
166.753644
 30
0.0
 10
547.508424
 20
189.987644
 30
0.0
  0
LWPOLYLINE
  5
3df
100
AcDbEntity
  8
text
 62
1
100
AcDbPolyline
 90
2
 70
0
 10
547.508424
 20
166.753644
 30
0.0
 10
550.539424
 20
189.480644
 30
0.0
  0
LWPOLYLINE
  5
3e0
100
AcDbEntity
  8
text
 62
1
100
AcDbPolyline
 90
2
 70
0
 10
547.508424
 20
166.753644
 30
0.0
 10
554.075424
 20
188.976644
 30
0.0
  0
LWPOLYLINE
  5
3e1
100
AcDbEntity
  8
text
 62
1
100
AcDbPolyline
 90
2
 70
0
 10
547.508424
 20
166.753644
 30
0.0
 10
557.106424
 20
187.460644
 30
0.0
  0
LWPOLYLINE
  5
3e2
100
AcDbEntity
  8
text
 62
1
100
AcDbPolyline
 90
2
 70
0
 10
547.508424
 20
166.753644
 30
0.0
 10
560.137424
 20
185.944644
 30
0.0
  0
LWPOLYLINE
  5
3e3
100
AcDbEntity
  8
text
 62
1
100
AcDbPolyline
 90
2
 70
0
 10
547.508424
 20
166.753644
 30
0.0
 10
562.661424
 20
183.925644
 30
0.0
  0
LWPOLYLINE
  5
3e4
100
AcDbEntity
  8
text
 62
1
100
AcDbPolyline
 90
2
 70
0
 10
547.508424
 20
166.753644
 30
0.0
 10
565.188424
 20
181.401644
 30
0.0
  0
LWPOLYLINE
  5
3e5
100
AcDbEntity
  8
text
 62
1
100
AcDbPolyline
 90
2
 70
0
 10
547.508424
 20
166.753644
 30
0.0
 10
567.207424
 20
178.874644
 30
0.0
  0
LWPOLYLINE
  5
3e6
100
AcDbEntity
  8
text
 62
1
100
AcDbPolyline
 90
2
 70
0
 10
547.508424
 20
166.753644
 30
0.0
 10
568.723424
 20
175.843644
 30
0.0
  0
LWPOLYLINE
  5
3e7
100
AcDbEntity
  8
text
 62
1
100
AcDbPolyline
 90
2
 70
0
 10
547.508424
 20
166.753644
 30
0.0
 10
569.735424
 20
172.308644
 30
0.0
  0
LWPOLYLINE
  5
3e8
100
AcDbEntity
  8
text
 62
1
100
AcDbPolyline
 90
2
 70
0
 10
547.508424
 20
166.753644
 30
0.0
 10
570.239424
 20
169.276644
 30
0.0
  0
LWPOLYLINE
  5
3e9
100
AcDbEntity
  8
text
 62
1
100
AcDbPolyline
 90
2
 70
0
 10
547.508424
 20
166.753644
 30
0.0
 10
570.239424
 20
166.245644
 30
0.0
  0
LWPOLYLINE
  5
3ea
100
AcDbEntity
  8
text
 62
1
100
AcDbPolyline
 90
2
 70
0
 10
547.508424
 20
166.753644
 30
0.0
 10
570.239424
 20
163.218644
 30
0.0
  0
LWPOLYLINE
  5
3eb
100
AcDbEntity
  8
text
 62
1
100
AcDbPolyline
 90
2
 70
0
 10
547.508424
 20
166.753644
 30
0.0
 10
569.227424
 20
159.683644
 30
0.0
  0
LWPOLYLINE
  5
3ec
100
AcDbEntity
  8
text
 62
1
100
AcDbPolyline
 90
2
 70
0
 10
547.508424
 20
166.753644
 30
0.0
 10
568.219424
 20
156.651644
 30
0.0
  0
LWPOLYLINE
  5
3ed
100
AcDbEntity
  8
text
 62
1
100
AcDbPolyline
 90
2
 70
0
 10
547.508424
 20
166.753644
 30
0.0
 10
566.200424
 20
153.620644
 30
0.0
  0
LWPOLYLINE
  5
3ee
100
AcDbEntity
  8
text
 62
1
100
AcDbPolyline
 90
2
 70
0
 10
547.508424
 20
166.753644
 30
0.0
 10
564.176424
 20
151.093644
 30
0.0
  0
LWPOLYLINE
  5
3ef
100
AcDbEntity
  8
text
 62
1
100
AcDbPolyline
 90
2
 70
0
 10
547.508424
 20
166.753644
 30
0.0
 10
561.653424
 20
148.569644
 30
0.0
  0
SPLINE
  5
3f0
100
AcDbEntity
  8
text
 62
1
100
AcDbSpline
 70
8
 71
3
 72
8
 73
4
 74
0
 40
0
 40
0
 40
0
 40
0
 40
1
 40
1
 40
1
 40
1
 10
539.934424
 20
166.753644
 30
0.0
 10
539.934424
 20
171.296644
 30
0.0
 10
542.965424
 20
174.327644
 30
0.0
 10
547.508424
 20
174.327644
 30
0.0
  0
SPLINE
  5
3f1
100
AcDbEntity
  8
text
 62
1
100
AcDbSpline
 70
8
 71
3
 72
8
 73
4
 74
0
 40
0
 40
0
 40
0
 40
0
 40
1
 40
1
 40
1
 40
1
 10
547.508424
 20
174.327644
 30
0.0
 10
552.055424
 20
174.327644
 30
0.0
 10
555.086424
 20
171.296644
 30
0.0
 10
555.086424
 20
166.753644
 30
0.0
  0
SPLINE
  5
3f2
100
AcDbEntity
  8
text
 62
1
100
AcDbSpline
 70
8
 71
3
 72
8
 73
4
 74
0
 40
0
 40
0
 40
0
 40
0
 40
1
 40
1
 40
1
 40
1
 10
555.086424
 20
166.753644
 30
0.0
 10
555.086424
 20
162.206644
 30
0.0
 10
552.055424
 20
159.175644
 30
0.0
 10
547.508424
 20
159.175644
 30
0.0
  0
SPLINE
  5
3f3
100
AcDbEntity
  8
text
 62
1
100
AcDbSpline
 70
8
 71
3
 72
8
 73
4
 74
0
 40
0
 40
0
 40
0
 40
0
 40
1
 40
1
 40
1
 40
1
 10
547.508424
 20
159.175644
 30
0.0
 10
542.965424
 20
159.175644
 30
0.0
 10
539.934424
 20
162.206644
 30
0.0
 10
539.934424
 20
166.753644
 30
0.0
  0
LWPOLYLINE
  5
3f4
100
AcDbEntity
  8
text
 62
1
100
AcDbPolyline
 90
2
 70
0
 10
547.508424
 20
166.753644
 30
0.0
 10
559.125424
 20
147.054644
 30
0.0
  0
LWPOLYLINE
  5
3f5
100
AcDbEntity
  8
text
 62
1
100
AcDbPolyline
 90
2
 70
0
 10
544.481424
 20
166.753644
 30
0.0
 10
550.539424
 20
166.753644
 30
0.0
  0
SPLINE
  5
3f6
100
AcDbEntity
  8
text
 62
7
100
AcDbSpline
 70
8
 71
3
 72
8
 73
4
 74
0
 40
0
 40
0
 40
0
 40
0
 40
1
 40
1
 40
1
 40
1
 10
548.110424
 20
166.597644
 30
0.0
 10
548.110424
 20
166.261644
 30
0.0
 10
547.805424
 20
165.987644
 30
0.0
 10
547.430424
 20
165.987644
 30
0.0
  0
SPLINE
  5
3f7
100
AcDbEntity
  8
text
 62
7
100
AcDbSpline
 70
8
 71
3
 72
8
 73
4
 74
0
 40
0
 40
0
 40
0
 40
0
 40
1
 40
1
 40
1
 40
1
 10
547.430424
 20
165.987644
 30
0.0
 10
547.055424
 20
165.987644
 30
0.0
 10
546.750424
 20
166.261644
 30
0.0
 10
546.750424
 20
166.597644
 30
0.0
  0
SPLINE
  5
3f8
100
AcDbEntity
  8
text
 62
7
100
AcDbSpline
 70
8
 71
3
 72
8
 73
4
 74
0
 40
0
 40
0
 40
0
 40
0
 40
1
 40
1
 40
1
 40
1
 10
546.750424
 20
166.597644
 30
0.0
 10
546.750424
 20
166.937644
 30
0.0
 10
547.055424
 20
167.210644
 30
0.0
 10
547.430424
 20
167.210644
 30
0.0
  0
SPLINE
  5
3f9
100
AcDbEntity
  8
text
 62
7
100
AcDbSpline
 70
8
 71
3
 72
8
 73
4
 74
0
 40
0
 40
0
 40
0
 40
0
 40
1
 40
1
 40
1
 40
1
 10
547.430424
 20
167.210644
 30
0.0
 10
547.805424
 20
167.210644
 30
0.0
 10
548.110424
 20
166.937644
 30
0.0
 10
548.110424
 20
166.597644
 30
0.0
  0
LWPOLYLINE
  5
3fa
100
AcDbEntity
  8
text
 62
1
100
AcDbPolyline
 90
2
 70
0
 10
547.508424
 20
163.722644
 30
0.0
 10
547.508424
 20
169.784644
 30
0.0
  0
SPLINE
  5
3fb
100
AcDbEntity
  8
text
 62
1
100
AcDbSpline
 70
8
 71
3
 72
8
 73
4
 74
0
 40
0
 40
0
 40
0
 40
0
 40
1
 40
1
 40
1
 40
1
 10
519.173783
 20
296.165324
 30
0.0
 10
519.173783
 20
301.185324
 30
0.0
 10
522.521783
 20
304.532324
 30
0.0
 10
527.544783
 20
304.532324
 30
0.0
  0
SPLINE
  5
3fc
100
AcDbEntity
  8
text
 62
1
100
AcDbSpline
 70
8
 71
3
 72
8
 73
4
 74
0
 40
0
 40
0
 40
0
 40
0
 40
1
 40
1
 40
1
 40
1
 10
527.544783
 20
304.532324
 30
0.0
 10
532.564783
 20
304.532324
 30
0.0
 10
535.907783
 20
301.185324
 30
0.0
 10
535.907783
 20
296.165324
 30
0.0
  0
SPLINE
  5
3fd
100
AcDbEntity
  8
text
 62
1
100
AcDbSpline
 70
8
 71
3
 72
8
 73
4
 74
0
 40
0
 40
0
 40
0
 40
0
 40
1
 40
1
 40
1
 40
1
 10
535.907783
 20
296.165324
 30
0.0
 10
535.907783
 20
291.146324
 30
0.0
 10
532.564783
 20
287.798324
 30
0.0
 10
527.544783
 20
287.798324
 30
0.0
  0
SPLINE
  5
3fe
100
AcDbEntity
  8
text
 62
1
100
AcDbSpline
 70
8
 71
3
 72
8
 73
4
 74
0
 40
0
 40
0
 40
0
 40
0
 40
1
 40
1
 40
1
 40
1
 10
527.544783
 20
287.798324
 30
0.0
 10
522.521783
 20
287.798324
 30
0.0
 10
519.173783
 20
291.146324
 30
0.0
 10
519.173783
 20
296.165324
 30
0.0
  0
LWPOLYLINE
  5
3ff
100
AcDbEntity
  8
text
 62
7
100
AcDbPolyline
 90
2
 70
1
 10
548.110424
 20
166.597644
 30
0.0
 10
548.110424
 20
166.597644
 30
0.0
  0
LWPOLYLINE
  5
400
100
AcDbEntity
  8
text
 62
1
100
AcDbPolyline
 90
2
 70
0
 10
524.197783
 20
296.165324
 30
0.0
 10
530.888783
 20
296.165324
 30
0.0
  0
SPLINE
  5
401
100
AcDbEntity
  8
text
 62
1
100
AcDbSpline
 70
8
 71
3
 72
8
 73
4
 74
0
 40
0
 40
0
 40
0
 40
0
 40
1
 40
1
 40
1
 40
1
 10
627.972677
 20
123.247964
 30
0.0
 10
627.972677
 20
128.271964
 30
0.0
 10
631.320677
 20
131.614964
 30
0.0
 10
636.343677
 20
131.614964
 30
0.0
  0
SPLINE
  5
402
100
AcDbEntity
  8
text
 62
1
100
AcDbSpline
 70
8
 71
3
 72
8
 73
4
 74
0
 40
0
 40
0
 40
0
 40
0
 40
1
 40
1
 40
1
 40
1
 10
636.343677
 20
131.614964
 30
0.0
 10
641.363677
 20
131.614964
 30
0.0
 10
644.706677
 20
128.271964
 30
0.0
 10
644.706677
 20
123.247964
 30
0.0
  0
SPLINE
  5
403
100
AcDbEntity
  8
text
 62
1
100
AcDbSpline
 70
8
 71
3
 72
8
 73
4
 74
0
 40
0
 40
0
 40
0
 40
0
 40
1
 40
1
 40
1
 40
1
 10
644.706677
 20
123.247964
 30
0.0
 10
644.706677
 20
118.232964
 30
0.0
 10
641.363677
 20
114.884964
 30
0.0
 10
636.343677
 20
114.884964
 30
0.0
  0
SPLINE
  5
404
100
AcDbEntity
  8
text
 62
1
100
AcDbSpline
 70
8
 71
3
 72
8
 73
4
 74
0
 40
0
 40
0
 40
0
 40
0
 40
1
 40
1
 40
1
 40
1
 10
636.343677
 20
114.884964
 30
0.0
 10
631.320677
 20
114.884964
 30
0.0
 10
627.972677
 20
118.232964
 30
0.0
 10
627.972677
 20
123.247964
 30
0.0
  0
LWPOLYLINE
  5
405
100
AcDbEntity
  8
text
 62
1
100
AcDbPolyline
 90
2
 70
0
 10
527.544783
 20
292.818324
 30
0.0
 10
527.544783
 20
299.513324
 30
0.0
  0
LWPOLYLINE
  5
406
100
AcDbEntity
  8
text
 62
1
100
AcDbPolyline
 90
2
 70
0
 10
632.996677
 20
123.247964
 30
0.0
 10
639.687677
 20
123.247964
 30
0.0
  0
LWPOLYLINE
  5
407
100
AcDbEntity
  8
text
 62
1
100
AcDbPolyline
 90
2
 70
0
 10
636.343677
 20
119.903964
 30
0.0
 10
636.343677
 20
126.599964
 30
0.0
  0
SPLINE
  5
408
100
AcDbEntity
  8
text
 62
1
100
AcDbSpline
 70
8
 71
3
 72
8
 73
4
 74
0
 40
0
 40
0
 40
0
 40
0
 40
1
 40
1
 40
1
 40
1
 10
689.083694
 20
379.060548
 30
0.0
 10
689.083694
 20
378.685548
 30
0.0
 10
688.747694
 20
378.381548
 30
0.0
 10
688.333694
 20
378.381548
 30
0.0
  0
SPLINE
  5
409
100
AcDbEntity
  8
text
 62
1
100
AcDbSpline
 70
8
 71
3
 72
8
 73
4
 74
0
 40
0
 40
0
 40
0
 40
0
 40
1
 40
1
 40
1
 40
1
 10
688.333694
 20
378.381548
 30
0.0
 10
687.918694
 20
378.381548
 30
0.0
 10
687.586694
 20
378.685548
 30
0.0
 10
687.586694
 20
379.060548
 30
0.0
  0
SPLINE
  5
40a
100
AcDbEntity
  8
text
 62
1
100
AcDbSpline
 70
8
 71
3
 72
8
 73
4
 74
0
 40
0
 40
0
 40
0
 40
0
 40
1
 40
1
 40
1
 40
1
 10
687.586694
 20
379.060548
 30
0.0
 10
687.586694
 20
379.435548
 30
0.0
 10
687.918694
 20
379.740548
 30
0.0
 10
688.333694
 20
379.740548
 30
0.0
  0
SPLINE
  5
40b
100
AcDbEntity
  8
text
 62
1
100
AcDbSpline
 70
8
 71
3
 72
8
 73
4
 74
0
 40
0
 40
0
 40
0
 40
0
 40
1
 40
1
 40
1
 40
1
 10
688.333694
 20
379.740548
 30
0.0
 10
688.747694
 20
379.740548
 30
0.0
 10
689.083694
 20
379.435548
 30
0.0
 10
689.083694
 20
379.060548
 30
0.0
  0
LWPOLYLINE
  5
40c
100
AcDbEntity
  8
text
 62
1
100
AcDbPolyline
 90
6
 70
0
 10
638.148150
 20
24.969874
 30
0.0
 10
605.456417
 20
24.969874
 30
0.0
 10
605.456417
 20
388.982099
 30
0.0
 10
695.983560
 20
388.982099
 30
0.0
 10
695.983560
 20
24.969874
 30
0.0
 10
605.456417
 20
24.969874
 30
0.0
  0
SPLINE
  5
40d
100
AcDbEntity
  8
text
 62
1
100
AcDbSpline
 70
8
 71
3
 72
8
 73
4
 74
0
 40
0
 40
0
 40
0
 40
0
 40
1
 40
1
 40
1
 40
1
 10
630.768592
 20
33.574548
 30
0.0
 10
630.768592
 20
33.312548
 30
0.0
 10
630.494592
 20
33.097548
 30
0.0
 10
630.155592
 20
33.097548
 30
0.0
  0
SPLINE
  5
40e
100
AcDbEntity
  8
text
 62
1
100
AcDbSpline
 70
8
 71
3
 72
8
 73
4
 74
0
 40
0
 40
0
 40
0
 40
0
 40
1
 40
1
 40
1
 40
1
 10
630.155592
 20
33.097548
 30
0.0
 10
629.819592
 20
33.097548
 30
0.0
 10
629.541592
 20
33.312548
 30
0.0
 10
629.541592
 20
33.574548
 30
0.0
  0
SPLINE
  5
40f
100
AcDbEntity
  8
text
 62
1
100
AcDbSpline
 70
8
 71
3
 72
8
 73
4
 74
0
 40
0
 40
0
 40
0
 40
0
 40
1
 40
1
 40
1
 40
1
 10
629.541592
 20
33.574548
 30
0.0
 10
629.541592
 20
33.835548
 30
0.0
 10
629.819592
 20
34.050548
 30
0.0
 10
630.155592
 20
34.050548
 30
0.0
  0
SPLINE
  5
410
100
AcDbEntity
  8
text
 62
1
100
AcDbSpline
 70
8
 71
3
 72
8
 73
4
 74
0
 40
0
 40
0
 40
0
 40
0
 40
1
 40
1
 40
1
 40
1
 10
630.155592
 20
34.050548
 30
0.0
 10
630.494592
 20
34.050548
 30
0.0
 10
630.768592
 20
33.835548
 30
0.0
 10
630.768592
 20
33.574548
 30
0.0
  0
LWPOLYLINE
  5
411
100
AcDbEntity
  8
text
 62
1
100
AcDbPolyline
 90
2
 70
1
 10
689.083694
 20
379.060548
 30
0.0
 10
689.083694
 20
379.060548
 30
0.0
  0
LWPOLYLINE
  5
412
100
AcDbEntity
  8
text
 62
1
100
AcDbPolyline
 90
2
 70
1
 10
630.768592
 20
33.574548
 30
0.0
 10
630.768592
 20
33.574548
 30
0.0
  0
LWPOLYLINE
  5
413
100
AcDbEntity
  8
text
 62
1
100
AcDbPolyline
 90
2
 70
0
 10
656.308880
 20
217.210364
 30
0.0
 10
643.683880
 20
194.479364
 30
0.0
  0
LWPOLYLINE
  5
414
100
AcDbEntity
  8
text
 62
1
100
AcDbPolyline
 90
2
 70
0
 10
656.308880
 20
217.210364
 30
0.0
 10
633.074880
 20
205.593364
 30
0.0
  0
LWPOLYLINE
  5
415
100
AcDbEntity
  8
text
 62
1
100
AcDbPolyline
 90
2
 70
0
 10
656.308880
 20
217.210364
 30
0.0
 10
630.550880
 20
220.241364
 30
0.0
  0
LWPOLYLINE
  5
416
100
AcDbEntity
  8
text
 62
1
100
AcDbPolyline
 90
2
 70
0
 10
656.308880
 20
217.210364
 30
0.0
 10
636.613880
 20
233.878364
 30
0.0
  0
LWPOLYLINE
  5
417
100
AcDbEntity
  8
text
 62
1
100
AcDbPolyline
 90
2
 70
0
 10
656.308880
 20
217.210364
 30
0.0
 10
649.238880
 20
241.960364
 30
0.0
  0
LWPOLYLINE
  5
418
100
AcDbEntity
  8
text
 62
1
100
AcDbPolyline
 90
2
 70
0
 10
656.308880
 20
217.210364
 30
0.0
 10
663.382880
 20
241.960364
 30
0.0
  0
LWPOLYLINE
  5
419
100
AcDbEntity
  8
text
 62
1
100
AcDbPolyline
 90
2
 70
0
 10
656.308880
 20
217.210364
 30
0.0
 10
676.007880
 20
233.878364
 30
0.0
  0
LWPOLYLINE
  5
41a
100
AcDbEntity
  8
text
 62
1
100
AcDbPolyline
 90
2
 70
0
 10
656.308880
 20
217.210364
 30
0.0
 10
682.070880
 20
220.241364
 30
0.0
  0
LWPOLYLINE
  5
41b
100
AcDbEntity
  8
text
 62
1
100
AcDbPolyline
 90
2
 70
0
 10
656.308880
 20
217.210364
 30
0.0
 10
679.543880
 20
205.593364
 30
0.0
  0
LWPOLYLINE
  5
41c
100
AcDbEntity
  8
text
 62
1
100
AcDbPolyline
 90
2
 70
0
 10
656.308880
 20
217.210364
 30
0.0
 10
669.441880
 20
194.479364
 30
0.0
  0
LWPOLYLINE
  5
41d
100
AcDbEntity
  8
text
 62
1
100
AcDbPolyline
 90
2
 70
0
 10
656.308880
 20
217.210364
 30
0.0
 10
645.199880
 20
197.511364
 30
0.0
  0
LWPOLYLINE
  5
41e
100
AcDbEntity
  8
text
 62
1
100
AcDbPolyline
 90
2
 70
0
 10
656.308880
 20
217.210364
 30
0.0
 10
642.168880
 20
199.026364
 30
0.0
  0
LWPOLYLINE
  5
41f
100
AcDbEntity
  8
text
 62
1
100
AcDbPolyline
 90
2
 70
0
 10
656.308880
 20
217.210364
 30
0.0
 10
639.640880
 20
201.550364
 30
0.0
  0
LWPOLYLINE
  5
420
100
AcDbEntity
  8
text
 62
1
100
AcDbPolyline
 90
2
 70
0
 10
656.308880
 20
217.210364
 30
0.0
 10
637.621880
 20
204.077364
 30
0.0
  0
LWPOLYLINE
  5
421
100
AcDbEntity
  8
text
 62
1
100
AcDbPolyline
 90
2
 70
0
 10
656.308880
 20
217.210364
 30
0.0
 10
635.601880
 20
207.108364
 30
0.0
  0
LWPOLYLINE
  5
422
100
AcDbEntity
  8
text
 62
1
100
AcDbPolyline
 90
2
 70
0
 10
656.308880
 20
217.210364
 30
0.0
 10
634.589880
 20
210.140364
 30
0.0
  0
LWPOLYLINE
  5
423
100
AcDbEntity
  8
text
 62
1
100
AcDbPolyline
 90
2
 70
0
 10
656.308880
 20
217.210364
 30
0.0
 10
633.582880
 20
213.675364
 30
0.0
  0
LWPOLYLINE
  5
424
100
AcDbEntity
  8
text
 62
1
100
AcDbPolyline
 90
2
 70
0
 10
656.308880
 20
217.210364
 30
0.0
 10
633.582880
 20
216.702364
 30
0.0
  0
LWPOLYLINE
  5
425
100
AcDbEntity
  8
text
 62
1
100
AcDbPolyline
 90
2
 70
0
 10
656.308880
 20
217.210364
 30
0.0
 10
633.582880
 20
219.733364
 30
0.0
  0
LWPOLYLINE
  5
426
100
AcDbEntity
  8
text
 62
1
100
AcDbPolyline
 90
2
 70
0
 10
656.308880
 20
217.210364
 30
0.0
 10
634.086880
 20
222.765364
 30
0.0
  0
LWPOLYLINE
  5
427
100
AcDbEntity
  8
text
 62
1
100
AcDbPolyline
 90
2
 70
0
 10
656.308880
 20
217.210364
 30
0.0
 10
635.097880
 20
226.300364
 30
0.0
  0
LWPOLYLINE
  5
428
100
AcDbEntity
  8
text
 62
1
100
AcDbPolyline
 90
2
 70
0
 10
656.308880
 20
217.210364
 30
0.0
 10
636.613880
 20
229.331364
 30
0.0
  0
LWPOLYLINE
  5
429
100
AcDbEntity
  8
text
 62
1
100
AcDbPolyline
 90
2
 70
0
 10
656.308880
 20
217.210364
 30
0.0
 10
638.632880
 20
231.858364
 30
0.0
  0
LWPOLYLINE
  5
42a
100
AcDbEntity
  8
text
 62
1
100
AcDbPolyline
 90
2
 70
0
 10
656.308880
 20
217.210364
 30
0.0
 10
641.156880
 20
234.382364
 30
0.0
  0
LWPOLYLINE
  5
42b
100
AcDbEntity
  8
text
 62
1
100
AcDbPolyline
 90
2
 70
0
 10
656.308880
 20
217.210364
 30
0.0
 10
643.683880
 20
236.401364
 30
0.0
  0
LWPOLYLINE
  5
42c
100
AcDbEntity
  8
text
 62
1
100
AcDbPolyline
 90
2
 70
0
 10
656.308880
 20
217.210364
 30
0.0
 10
646.714880
 20
237.917364
 30
0.0
  0
LWPOLYLINE
  5
42d
100
AcDbEntity
  8
text
 62
1
100
AcDbPolyline
 90
2
 70
0
 10
656.308880
 20
217.210364
 30
0.0
 10
649.742880
 20
239.433364
 30
0.0
  0
LWPOLYLINE
  5
42e
100
AcDbEntity
  8
text
 62
1
100
AcDbPolyline
 90
2
 70
0
 10
656.308880
 20
217.210364
 30
0.0
 10
653.281880
 20
239.937364
 30
0.0
  0
LWPOLYLINE
  5
42f
100
AcDbEntity
  8
text
 62
1
100
AcDbPolyline
 90
2
 70
0
 10
656.308880
 20
217.210364
 30
0.0
 10
656.308880
 20
240.444364
 30
0.0
  0
LWPOLYLINE
  5
430
100
AcDbEntity
  8
text
 62
1
100
AcDbPolyline
 90
2
 70
0
 10
656.308880
 20
217.210364
 30
0.0
 10
659.339880
 20
239.937364
 30
0.0
  0
LWPOLYLINE
  5
431
100
AcDbEntity
  8
text
 62
1
100
AcDbPolyline
 90
2
 70
0
 10
656.308880
 20
217.210364
 30
0.0
 10
662.875880
 20
239.433364
 30
0.0
  0
LWPOLYLINE
  5
432
100
AcDbEntity
  8
text
 62
1
100
AcDbPolyline
 90
2
 70
0
 10
656.308880
 20
217.210364
 30
0.0
 10
665.906880
 20
237.917364
 30
0.0
  0
LWPOLYLINE
  5
433
100
AcDbEntity
  8
text
 62
1
100
AcDbPolyline
 90
2
 70
0
 10
656.308880
 20
217.210364
 30
0.0
 10
668.937880
 20
236.401364
 30
0.0
  0
LWPOLYLINE
  5
434
100
AcDbEntity
  8
text
 62
1
100
AcDbPolyline
 90
2
 70
0
 10
656.308880
 20
217.210364
 30
0.0
 10
671.461880
 20
234.382364
 30
0.0
  0
LWPOLYLINE
  5
435
100
AcDbEntity
  8
text
 62
1
100
AcDbPolyline
 90
2
 70
0
 10
656.308880
 20
217.210364
 30
0.0
 10
673.988880
 20
231.858364
 30
0.0
  0
LWPOLYLINE
  5
436
100
AcDbEntity
  8
text
 62
1
100
AcDbPolyline
 90
2
 70
0
 10
656.308880
 20
217.210364
 30
0.0
 10
676.007880
 20
229.331364
 30
0.0
  0
LWPOLYLINE
  5
437
100
AcDbEntity
  8
text
 62
1
100
AcDbPolyline
 90
2
 70
0
 10
656.308880
 20
217.210364
 30
0.0
 10
677.523880
 20
226.300364
 30
0.0
  0
LWPOLYLINE
  5
438
100
AcDbEntity
  8
text
 62
1
100
AcDbPolyline
 90
2
 70
0
 10
656.308880
 20
217.210364
 30
0.0
 10
678.535880
 20
222.765364
 30
0.0
  0
LWPOLYLINE
  5
439
100
AcDbEntity
  8
text
 62
1
100
AcDbPolyline
 90
2
 70
0
 10
656.308880
 20
217.210364
 30
0.0
 10
679.039880
 20
219.733364
 30
0.0
  0
LWPOLYLINE
  5
43a
100
AcDbEntity
  8
text
 62
1
100
AcDbPolyline
 90
2
 70
0
 10
656.308880
 20
217.210364
 30
0.0
 10
679.039880
 20
216.702364
 30
0.0
  0
LWPOLYLINE
  5
43b
100
AcDbEntity
  8
text
 62
1
100
AcDbPolyline
 90
2
 70
0
 10
656.308880
 20
217.210364
 30
0.0
 10
679.039880
 20
213.675364
 30
0.0
  0
LWPOLYLINE
  5
43c
100
AcDbEntity
  8
text
 62
1
100
AcDbPolyline
 90
2
 70
0
 10
656.308880
 20
217.210364
 30
0.0
 10
678.027880
 20
210.140364
 30
0.0
  0
LWPOLYLINE
  5
43d
100
AcDbEntity
  8
text
 62
1
100
AcDbPolyline
 90
2
 70
0
 10
656.308880
 20
217.210364
 30
0.0
 10
677.019880
 20
207.108364
 30
0.0
  0
LWPOLYLINE
  5
43e
100
AcDbEntity
  8
text
 62
1
100
AcDbPolyline
 90
2
 70
0
 10
656.308880
 20
217.210364
 30
0.0
 10
675.000880
 20
204.077364
 30
0.0
  0
LWPOLYLINE
  5
43f
100
AcDbEntity
  8
text
 62
1
100
AcDbPolyline
 90
2
 70
0
 10
656.308880
 20
217.210364
 30
0.0
 10
672.976880
 20
201.550364
 30
0.0
  0
LWPOLYLINE
  5
440
100
AcDbEntity
  8
text
 62
1
100
AcDbPolyline
 90
2
 70
0
 10
656.308880
 20
217.210364
 30
0.0
 10
670.453880
 20
199.026364
 30
0.0
  0
SPLINE
  5
441
100
AcDbEntity
  8
text
 62
1
100
AcDbSpline
 70
8
 71
3
 72
8
 73
4
 74
0
 40
0
 40
0
 40
0
 40
0
 40
1
 40
1
 40
1
 40
1
 10
648.734880
 20
217.210364
 30
0.0
 10
648.734880
 20
221.753364
 30
0.0
 10
651.765880
 20
224.784364
 30
0.0
 10
656.308880
 20
224.784364
 30
0.0
  0
SPLINE
  5
442
100
AcDbEntity
  8
text
 62
1
100
AcDbSpline
 70
8
 71
3
 72
8
 73
4
 74
0
 40
0
 40
0
 40
0
 40
0
 40
1
 40
1
 40
1
 40
1
 10
656.308880
 20
224.784364
 30
0.0
 10
660.855880
 20
224.784364
 30
0.0
 10
663.886880
 20
221.753364
 30
0.0
 10
663.886880
 20
217.210364
 30
0.0
  0
SPLINE
  5
443
100
AcDbEntity
  8
text
 62
1
100
AcDbSpline
 70
8
 71
3
 72
8
 73
4
 74
0
 40
0
 40
0
 40
0
 40
0
 40
1
 40
1
 40
1
 40
1
 10
663.886880
 20
217.210364
 30
0.0
 10
663.886880
 20
212.663364
 30
0.0
 10
660.855880
 20
209.632364
 30
0.0
 10
656.308880
 20
209.632364
 30
0.0
  0
SPLINE
  5
444
100
AcDbEntity
  8
text
 62
1
100
AcDbSpline
 70
8
 71
3
 72
8
 73
4
 74
0
 40
0
 40
0
 40
0
 40
0
 40
1
 40
1
 40
1
 40
1
 10
656.308880
 20
209.632364
 30
0.0
 10
651.765880
 20
209.632364
 30
0.0
 10
648.734880
 20
212.663364
 30
0.0
 10
648.734880
 20
217.210364
 30
0.0
  0
LWPOLYLINE
  5
445
100
AcDbEntity
  8
text
 62
1
100
AcDbPolyline
 90
2
 70
0
 10
656.308880
 20
217.210364
 30
0.0
 10
667.925880
 20
197.511364
 30
0.0
  0
LWPOLYLINE
  5
446
100
AcDbEntity
  8
text
 62
1
100
AcDbPolyline
 90
2
 70
0
 10
653.281880
 20
217.210364
 30
0.0
 10
659.339880
 20
217.210364
 30
0.0
  0
SPLINE
  5
447
100
AcDbEntity
  8
text
 62
7
100
AcDbSpline
 70
8
 71
3
 72
8
 73
4
 74
0
 40
0
 40
0
 40
0
 40
0
 40
1
 40
1
 40
1
 40
1
 10
656.910880
 20
217.054364
 30
0.0
 10
656.910880
 20
216.718364
 30
0.0
 10
656.605880
 20
216.444364
 30
0.0
 10
656.230880
 20
216.444364
 30
0.0
  0
SPLINE
  5
448
100
AcDbEntity
  8
text
 62
7
100
AcDbSpline
 70
8
 71
3
 72
8
 73
4
 74
0
 40
0
 40
0
 40
0
 40
0
 40
1
 40
1
 40
1
 40
1
 10
656.230880
 20
216.444364
 30
0.0
 10
655.855880
 20
216.444364
 30
0.0
 10
655.550880
 20
216.718364
 30
0.0
 10
655.550880
 20
217.054364
 30
0.0
  0
SPLINE
  5
449
100
AcDbEntity
  8
text
 62
7
100
AcDbSpline
 70
8
 71
3
 72
8
 73
4
 74
0
 40
0
 40
0
 40
0
 40
0
 40
1
 40
1
 40
1
 40
1
 10
655.550880
 20
217.054364
 30
0.0
 10
655.550880
 20
217.394364
 30
0.0
 10
655.855880
 20
217.667364
 30
0.0
 10
656.230880
 20
217.667364
 30
0.0
  0
SPLINE
  5
44a
100
AcDbEntity
  8
text
 62
7
100
AcDbSpline
 70
8
 71
3
 72
8
 73
4
 74
0
 40
0
 40
0
 40
0
 40
0
 40
1
 40
1
 40
1
 40
1
 10
656.230880
 20
217.667364
 30
0.0
 10
656.605880
 20
217.667364
 30
0.0
 10
656.910880
 20
217.394364
 30
0.0
 10
656.910880
 20
217.054364
 30
0.0
  0
LWPOLYLINE
  5
44b
100
AcDbEntity
  8
text
 62
1
100
AcDbPolyline
 90
2
 70
0
 10
656.308880
 20
214.179364
 30
0.0
 10
656.308880
 20
220.241364
 30
0.0
  0
SPLINE
  5
44c
100
AcDbEntity
  8
text
 62
1
100
AcDbSpline
 70
8
 71
3
 72
8
 73
4
 74
0
 40
0
 40
0
 40
0
 40
0
 40
1
 40
1
 40
1
 40
1
 10
627.973783
 20
259.881884
 30
0.0
 10
627.973783
 20
264.901884
 30
0.0
 10
631.321783
 20
268.248884
 30
0.0
 10
636.344783
 20
268.248884
 30
0.0
  0
SPLINE
  5
44d
100
AcDbEntity
  8
text
 62
1
100
AcDbSpline
 70
8
 71
3
 72
8
 73
4
 74
0
 40
0
 40
0
 40
0
 40
0
 40
1
 40
1
 40
1
 40
1
 10
636.344783
 20
268.248884
 30
0.0
 10
641.364783
 20
268.248884
 30
0.0
 10
644.707783
 20
264.901884
 30
0.0
 10
644.707783
 20
259.881884
 30
0.0
  0
SPLINE
  5
44e
100
AcDbEntity
  8
text
 62
1
100
AcDbSpline
 70
8
 71
3
 72
8
 73
4
 74
0
 40
0
 40
0
 40
0
 40
0
 40
1
 40
1
 40
1
 40
1
 10
644.707783
 20
259.881884
 30
0.0
 10
644.707783
 20
254.862884
 30
0.0
 10
641.364783
 20
251.514884
 30
0.0
 10
636.344783
 20
251.514884
 30
0.0
  0
SPLINE
  5
44f
100
AcDbEntity
  8
text
 62
1
100
AcDbSpline
 70
8
 71
3
 72
8
 73
4
 74
0
 40
0
 40
0
 40
0
 40
0
 40
1
 40
1
 40
1
 40
1
 10
636.344783
 20
251.514884
 30
0.0
 10
631.321783
 20
251.514884
 30
0.0
 10
627.973783
 20
254.862884
 30
0.0
 10
627.973783
 20
259.881884
 30
0.0
  0
LWPOLYLINE
  5
450
100
AcDbEntity
  8
text
 62
7
100
AcDbPolyline
 90
2
 70
1
 10
656.910880
 20
217.054364
 30
0.0
 10
656.910880
 20
217.054364
 30
0.0
  0
LWPOLYLINE
  5
451
100
AcDbEntity
  8
text
 62
1
100
AcDbPolyline
 90
2
 70
0
 10
632.997783
 20
259.881884
 30
0.0
 10
639.688783
 20
259.881884
 30
0.0
  0
LWPOLYLINE
  5
452
100
AcDbEntity
  8
text
 62
1
100
AcDbPolyline
 90
2
 70
0
 10
636.344783
 20
256.534884
 30
0.0
 10
636.344783
 20
263.229884
 30
0.0
  0
LWPOLYLINE
  5
453
100
AcDbEntity
  8
text
 62
1
100
AcDbPolyline
 90
2
 70
0
 10
656.308424
 20
166.753644
 30
0.0
 10
643.683424
 20
144.022644
 30
0.0
  0
LWPOLYLINE
  5
454
100
AcDbEntity
  8
text
 62
1
100
AcDbPolyline
 90
2
 70
0
 10
656.308424
 20
166.753644
 30
0.0
 10
633.074424
 20
155.136644
 30
0.0
  0
LWPOLYLINE
  5
455
100
AcDbEntity
  8
text
 62
1
100
AcDbPolyline
 90
2
 70
0
 10
656.308424
 20
166.753644
 30
0.0
 10
630.550424
 20
169.784644
 30
0.0
  0
LWPOLYLINE
  5
456
100
AcDbEntity
  8
text
 62
1
100
AcDbPolyline
 90
2
 70
0
 10
656.308424
 20
166.753644
 30
0.0
 10
636.613424
 20
183.421644
 30
0.0
  0
LWPOLYLINE
  5
457
100
AcDbEntity
  8
text
 62
1
100
AcDbPolyline
 90
2
 70
0
 10
656.308424
 20
166.753644
 30
0.0
 10
649.238424
 20
191.503644
 30
0.0
  0
LWPOLYLINE
  5
458
100
AcDbEntity
  8
text
 62
1
100
AcDbPolyline
 90
2
 70
0
 10
656.308424
 20
166.753644
 30
0.0
 10
663.382424
 20
191.503644
 30
0.0
  0
LWPOLYLINE
  5
459
100
AcDbEntity
  8
text
 62
1
100
AcDbPolyline
 90
2
 70
0
 10
656.308424
 20
166.753644
 30
0.0
 10
676.007424
 20
183.421644
 30
0.0
  0
LWPOLYLINE
  5
45a
100
AcDbEntity
  8
text
 62
1
100
AcDbPolyline
 90
2
 70
0
 10
656.308424
 20
166.753644
 30
0.0
 10
682.070424
 20
169.784644
 30
0.0
  0
LWPOLYLINE
  5
45b
100
AcDbEntity
  8
text
 62
1
100
AcDbPolyline
 90
2
 70
0
 10
656.308424
 20
166.753644
 30
0.0
 10
679.543424
 20
155.136644
 30
0.0
  0
LWPOLYLINE
  5
45c
100
AcDbEntity
  8
text
 62
1
100
AcDbPolyline
 90
2
 70
0
 10
656.308424
 20
166.753644
 30
0.0
 10
669.441424
 20
144.022644
 30
0.0
  0
LWPOLYLINE
  5
45d
100
AcDbEntity
  8
text
 62
1
100
AcDbPolyline
 90
2
 70
0
 10
656.308424
 20
166.753644
 30
0.0
 10
645.199424
 20
147.054644
 30
0.0
  0
LWPOLYLINE
  5
45e
100
AcDbEntity
  8
text
 62
1
100
AcDbPolyline
 90
2
 70
0
 10
656.308424
 20
166.753644
 30
0.0
 10
642.168424
 20
148.569644
 30
0.0
  0
LWPOLYLINE
  5
45f
100
AcDbEntity
  8
text
 62
1
100
AcDbPolyline
 90
2
 70
0
 10
656.308424
 20
166.753644
 30
0.0
 10
639.640424
 20
151.093644
 30
0.0
  0
LWPOLYLINE
  5
460
100
AcDbEntity
  8
text
 62
1
100
AcDbPolyline
 90
2
 70
0
 10
656.308424
 20
166.753644
 30
0.0
 10
637.621424
 20
153.620644
 30
0.0
  0
LWPOLYLINE
  5
461
100
AcDbEntity
  8
text
 62
1
100
AcDbPolyline
 90
2
 70
0
 10
656.308424
 20
166.753644
 30
0.0
 10
635.601424
 20
156.651644
 30
0.0
  0
LWPOLYLINE
  5
462
100
AcDbEntity
  8
text
 62
1
100
AcDbPolyline
 90
2
 70
0
 10
656.308424
 20
166.753644
 30
0.0
 10
634.589424
 20
159.683644
 30
0.0
  0
LWPOLYLINE
  5
463
100
AcDbEntity
  8
text
 62
1
100
AcDbPolyline
 90
2
 70
0
 10
656.308424
 20
166.753644
 30
0.0
 10
633.582424
 20
163.218644
 30
0.0
  0
LWPOLYLINE
  5
464
100
AcDbEntity
  8
text
 62
1
100
AcDbPolyline
 90
2
 70
0
 10
656.308424
 20
166.753644
 30
0.0
 10
633.582424
 20
166.245644
 30
0.0
  0
LWPOLYLINE
  5
465
100
AcDbEntity
  8
text
 62
1
100
AcDbPolyline
 90
2
 70
0
 10
656.308424
 20
166.753644
 30
0.0
 10
633.582424
 20
169.276644
 30
0.0
  0
LWPOLYLINE
  5
466
100
AcDbEntity
  8
text
 62
1
100
AcDbPolyline
 90
2
 70
0
 10
656.308424
 20
166.753644
 30
0.0
 10
634.086424
 20
172.308644
 30
0.0
  0
LWPOLYLINE
  5
467
100
AcDbEntity
  8
text
 62
1
100
AcDbPolyline
 90
2
 70
0
 10
656.308424
 20
166.753644
 30
0.0
 10
635.097424
 20
175.843644
 30
0.0
  0
LWPOLYLINE
  5
468
100
AcDbEntity
  8
text
 62
1
100
AcDbPolyline
 90
2
 70
0
 10
656.308424
 20
166.753644
 30
0.0
 10
636.613424
 20
178.874644
 30
0.0
  0
LWPOLYLINE
  5
469
100
AcDbEntity
  8
text
 62
1
100
AcDbPolyline
 90
2
 70
0
 10
656.308424
 20
166.753644
 30
0.0
 10
638.632424
 20
181.401644
 30
0.0
  0
LWPOLYLINE
  5
46a
100
AcDbEntity
  8
text
 62
1
100
AcDbPolyline
 90
2
 70
0
 10
656.308424
 20
166.753644
 30
0.0
 10
641.156424
 20
183.925644
 30
0.0
  0
LWPOLYLINE
  5
46b
100
AcDbEntity
  8
text
 62
1
100
AcDbPolyline
 90
2
 70
0
 10
656.308424
 20
166.753644
 30
0.0
 10
643.683424
 20
185.944644
 30
0.0
  0
LWPOLYLINE
  5
46c
100
AcDbEntity
  8
text
 62
1
100
AcDbPolyline
 90
2
 70
0
 10
656.308424
 20
166.753644
 30
0.0
 10
646.714424
 20
187.460644
 30
0.0
  0
LWPOLYLINE
  5
46d
100
AcDbEntity
  8
text
 62
1
100
AcDbPolyline
 90
2
 70
0
 10
656.308424
 20
166.753644
 30
0.0
 10
649.742424
 20
188.976644
 30
0.0
  0
LWPOLYLINE
  5
46e
100
AcDbEntity
  8
text
 62
1
100
AcDbPolyline
 90
2
 70
0
 10
656.308424
 20
166.753644
 30
0.0
 10
653.281424
 20
189.480644
 30
0.0
  0
LWPOLYLINE
  5
46f
100
AcDbEntity
  8
text
 62
1
100
AcDbPolyline
 90
2
 70
0
 10
656.308424
 20
166.753644
 30
0.0
 10
656.308424
 20
189.987644
 30
0.0
  0
LWPOLYLINE
  5
470
100
AcDbEntity
  8
text
 62
1
100
AcDbPolyline
 90
2
 70
0
 10
656.308424
 20
166.753644
 30
0.0
 10
659.339424
 20
189.480644
 30
0.0
  0
LWPOLYLINE
  5
471
100
AcDbEntity
  8
text
 62
1
100
AcDbPolyline
 90
2
 70
0
 10
656.308424
 20
166.753644
 30
0.0
 10
662.875424
 20
188.976644
 30
0.0
  0
LWPOLYLINE
  5
472
100
AcDbEntity
  8
text
 62
1
100
AcDbPolyline
 90
2
 70
0
 10
656.308424
 20
166.753644
 30
0.0
 10
665.906424
 20
187.460644
 30
0.0
  0
LWPOLYLINE
  5
473
100
AcDbEntity
  8
text
 62
1
100
AcDbPolyline
 90
2
 70
0
 10
656.308424
 20
166.753644
 30
0.0
 10
668.937424
 20
185.944644
 30
0.0
  0
LWPOLYLINE
  5
474
100
AcDbEntity
  8
text
 62
1
100
AcDbPolyline
 90
2
 70
0
 10
656.308424
 20
166.753644
 30
0.0
 10
671.461424
 20
183.925644
 30
0.0
  0
LWPOLYLINE
  5
475
100
AcDbEntity
  8
text
 62
1
100
AcDbPolyline
 90
2
 70
0
 10
656.308424
 20
166.753644
 30
0.0
 10
673.988424
 20
181.401644
 30
0.0
  0
LWPOLYLINE
  5
476
100
AcDbEntity
  8
text
 62
1
100
AcDbPolyline
 90
2
 70
0
 10
656.308424
 20
166.753644
 30
0.0
 10
676.007424
 20
178.874644
 30
0.0
  0
LWPOLYLINE
  5
477
100
AcDbEntity
  8
text
 62
1
100
AcDbPolyline
 90
2
 70
0
 10
656.308424
 20
166.753644
 30
0.0
 10
677.523424
 20
175.843644
 30
0.0
  0
LWPOLYLINE
  5
478
100
AcDbEntity
  8
text
 62
1
100
AcDbPolyline
 90
2
 70
0
 10
656.308424
 20
166.753644
 30
0.0
 10
678.535424
 20
172.308644
 30
0.0
  0
LWPOLYLINE
  5
479
100
AcDbEntity
  8
text
 62
1
100
AcDbPolyline
 90
2
 70
0
 10
656.308424
 20
166.753644
 30
0.0
 10
679.039424
 20
169.276644
 30
0.0
  0
LWPOLYLINE
  5
47a
100
AcDbEntity
  8
text
 62
1
100
AcDbPolyline
 90
2
 70
0
 10
656.308424
 20
166.753644
 30
0.0
 10
679.039424
 20
166.245644
 30
0.0
  0
LWPOLYLINE
  5
47b
100
AcDbEntity
  8
text
 62
1
100
AcDbPolyline
 90
2
 70
0
 10
656.308424
 20
166.753644
 30
0.0
 10
679.039424
 20
163.218644
 30
0.0
  0
LWPOLYLINE
  5
47c
100
AcDbEntity
  8
text
 62
1
100
AcDbPolyline
 90
2
 70
0
 10
656.308424
 20
166.753644
 30
0.0
 10
678.027424
 20
159.683644
 30
0.0
  0
LWPOLYLINE
  5
47d
100
AcDbEntity
  8
text
 62
1
100
AcDbPolyline
 90
2
 70
0
 10
656.308424
 20
166.753644
 30
0.0
 10
677.019424
 20
156.651644
 30
0.0
  0
LWPOLYLINE
  5
47e
100
AcDbEntity
  8
text
 62
1
100
AcDbPolyline
 90
2
 70
0
 10
656.308424
 20
166.753644
 30
0.0
 10
675.000424
 20
153.620644
 30
0.0
  0
LWPOLYLINE
  5
47f
100
AcDbEntity
  8
text
 62
1
100
AcDbPolyline
 90
2
 70
0
 10
656.308424
 20
166.753644
 30
0.0
 10
672.976424
 20
151.093644
 30
0.0
  0
LWPOLYLINE
  5
480
100
AcDbEntity
  8
text
 62
1
100
AcDbPolyline
 90
2
 70
0
 10
656.308424
 20
166.753644
 30
0.0
 10
670.453424
 20
148.569644
 30
0.0
  0
SPLINE
  5
481
100
AcDbEntity
  8
text
 62
1
100
AcDbSpline
 70
8
 71
3
 72
8
 73
4
 74
0
 40
0
 40
0
 40
0
 40
0
 40
1
 40
1
 40
1
 40
1
 10
648.734424
 20
166.753644
 30
0.0
 10
648.734424
 20
171.296644
 30
0.0
 10
651.765424
 20
174.327644
 30
0.0
 10
656.308424
 20
174.327644
 30
0.0
  0
SPLINE
  5
482
100
AcDbEntity
  8
text
 62
1
100
AcDbSpline
 70
8
 71
3
 72
8
 73
4
 74
0
 40
0
 40
0
 40
0
 40
0
 40
1
 40
1
 40
1
 40
1
 10
656.308424
 20
174.327644
 30
0.0
 10
660.855424
 20
174.327644
 30
0.0
 10
663.886424
 20
171.296644
 30
0.0
 10
663.886424
 20
166.753644
 30
0.0
  0
SPLINE
  5
483
100
AcDbEntity
  8
text
 62
1
100
AcDbSpline
 70
8
 71
3
 72
8
 73
4
 74
0
 40
0
 40
0
 40
0
 40
0
 40
1
 40
1
 40
1
 40
1
 10
663.886424
 20
166.753644
 30
0.0
 10
663.886424
 20
162.206644
 30
0.0
 10
660.855424
 20
159.175644
 30
0.0
 10
656.308424
 20
159.175644
 30
0.0
  0
SPLINE
  5
484
100
AcDbEntity
  8
text
 62
1
100
AcDbSpline
 70
8
 71
3
 72
8
 73
4
 74
0
 40
0
 40
0
 40
0
 40
0
 40
1
 40
1
 40
1
 40
1
 10
656.308424
 20
159.175644
 30
0.0
 10
651.765424
 20
159.175644
 30
0.0
 10
648.734424
 20
162.206644
 30
0.0
 10
648.734424
 20
166.753644
 30
0.0
  0
LWPOLYLINE
  5
485
100
AcDbEntity
  8
text
 62
1
100
AcDbPolyline
 90
2
 70
0
 10
656.308424
 20
166.753644
 30
0.0
 10
667.925424
 20
147.054644
 30
0.0
  0
LWPOLYLINE
  5
486
100
AcDbEntity
  8
text
 62
1
100
AcDbPolyline
 90
2
 70
0
 10
653.281424
 20
166.753644
 30
0.0
 10
659.339424
 20
166.753644
 30
0.0
  0
SPLINE
  5
487
100
AcDbEntity
  8
text
 62
7
100
AcDbSpline
 70
8
 71
3
 72
8
 73
4
 74
0
 40
0
 40
0
 40
0
 40
0
 40
1
 40
1
 40
1
 40
1
 10
656.910424
 20
166.597644
 30
0.0
 10
656.910424
 20
166.261644
 30
0.0
 10
656.605424
 20
165.987644
 30
0.0
 10
656.230424
 20
165.987644
 30
0.0
  0
SPLINE
  5
488
100
AcDbEntity
  8
text
 62
7
100
AcDbSpline
 70
8
 71
3
 72
8
 73
4
 74
0
 40
0
 40
0
 40
0
 40
0
 40
1
 40
1
 40
1
 40
1
 10
656.230424
 20
165.987644
 30
0.0
 10
655.855424
 20
165.987644
 30
0.0
 10
655.550424
 20
166.261644
 30
0.0
 10
655.550424
 20
166.597644
 30
0.0
  0
SPLINE
  5
489
100
AcDbEntity
  8
text
 62
7
100
AcDbSpline
 70
8
 71
3
 72
8
 73
4
 74
0
 40
0
 40
0
 40
0
 40
0
 40
1
 40
1
 40
1
 40
1
 10
655.550424
 20
166.597644
 30
0.0
 10
655.550424
 20
166.937644
 30
0.0
 10
655.855424
 20
167.210644
 30
0.0
 10
656.230424
 20
167.210644
 30
0.0
  0
SPLINE
  5
48a
100
AcDbEntity
  8
text
 62
7
100
AcDbSpline
 70
8
 71
3
 72
8
 73
4
 74
0
 40
0
 40
0
 40
0
 40
0
 40
1
 40
1
 40
1
 40
1
 10
656.230424
 20
167.210644
 30
0.0
 10
656.605424
 20
167.210644
 30
0.0
 10
656.910424
 20
166.937644
 30
0.0
 10
656.910424
 20
166.597644
 30
0.0
  0
LWPOLYLINE
  5
48b
100
AcDbEntity
  8
text
 62
1
100
AcDbPolyline
 90
2
 70
0
 10
656.308424
 20
163.722644
 30
0.0
 10
656.308424
 20
169.784644
 30
0.0
  0
SPLINE
  5
48c
100
AcDbEntity
  8
text
 62
1
100
AcDbSpline
 70
8
 71
3
 72
8
 73
4
 74
0
 40
0
 40
0
 40
0
 40
0
 40
1
 40
1
 40
1
 40
1
 10
627.973783
 20
296.165324
 30
0.0
 10
627.973783
 20
301.185324
 30
0.0
 10
631.321783
 20
304.532324
 30
0.0
 10
636.344783
 20
304.532324
 30
0.0
  0
SPLINE
  5
48d
100
AcDbEntity
  8
text
 62
1
100
AcDbSpline
 70
8
 71
3
 72
8
 73
4
 74
0
 40
0
 40
0
 40
0
 40
0
 40
1
 40
1
 40
1
 40
1
 10
636.344783
 20
304.532324
 30
0.0
 10
641.364783
 20
304.532324
 30
0.0
 10
644.707783
 20
301.185324
 30
0.0
 10
644.707783
 20
296.165324
 30
0.0
  0
SPLINE
  5
48e
100
AcDbEntity
  8
text
 62
1
100
AcDbSpline
 70
8
 71
3
 72
8
 73
4
 74
0
 40
0
 40
0
 40
0
 40
0
 40
1
 40
1
 40
1
 40
1
 10
644.707783
 20
296.165324
 30
0.0
 10
644.707783
 20
291.146324
 30
0.0
 10
641.364783
 20
287.798324
 30
0.0
 10
636.344783
 20
287.798324
 30
0.0
  0
SPLINE
  5
48f
100
AcDbEntity
  8
text
 62
1
100
AcDbSpline
 70
8
 71
3
 72
8
 73
4
 74
0
 40
0
 40
0
 40
0
 40
0
 40
1
 40
1
 40
1
 40
1
 10
636.344783
 20
287.798324
 30
0.0
 10
631.321783
 20
287.798324
 30
0.0
 10
627.973783
 20
291.146324
 30
0.0
 10
627.973783
 20
296.165324
 30
0.0
  0
LWPOLYLINE
  5
490
100
AcDbEntity
  8
text
 62
7
100
AcDbPolyline
 90
2
 70
1
 10
656.910424
 20
166.597644
 30
0.0
 10
656.910424
 20
166.597644
 30
0.0
  0
LWPOLYLINE
  5
491
100
AcDbEntity
  8
text
 62
1
100
AcDbPolyline
 90
2
 70
0
 10
632.997783
 20
296.165324
 30
0.0
 10
639.688783
 20
296.165324
 30
0.0
  0
LWPOLYLINE
  5
492
100
AcDbEntity
  8
text
 62
1
100
AcDbPolyline
 90
2
 70
0
 10
636.344783
 20
292.818324
 30
0.0
 10
636.344783
 20
299.513324
 30
0.0
  0
ENDSEC
  0
SECTION
  2
OBJECTS
  0
DICTIONARY
  5
C
330
0
100
AcDbDictionary
  3
ACAD_GROUP
350
D
  3
ACAD_MLINESTYLE
350
17
  0
DICTIONARY
  5
D
330
C
100
AcDbDictionary
  0
DICTIONARY
  5
1A
330
C
100
AcDbDictionary
  0
DICTIONARY
  5
17
330
C
100
AcDbDictionary
  3
STANDARD
350
18
  0
DICTIONARY
  5
19
330
C
100
AcDbDictionary
  0
ENDSEC
  0
EOF
